<ttFont>
    <TTGlyph name=".notdef" xMin="102" yMin="0" xMax="922" yMax="1092">
      <contour>
        <pt x="102" y="0" on="1"/>
        <pt x="102" y="1092" on="1"/>
        <pt x="922" y="1092" on="1"/>
        <pt x="922" y="0" on="1"/>
      </contour>
      <contour>
        <pt x="204" y="102" on="1"/>
        <pt x="820" y="102" on="1"/>
        <pt x="820" y="990" on="1"/>
        <pt x="204" y="990" on="1"/>
      </contour>
    </TTGlyph>
    <TTGlyph name="A" xMin="3" yMin="0" xMax="1299" yMax="1482">
      <contour>
        <pt x="892" y="614" on="1"/>
        <pt x="681" y="1227" on="0"/>
        <pt x="659" y="1303" on="1"/>
        <pt x="659" y="1303" on="0"/>
        <pt x="416" y="614" on="1"/>
      </contour>
      <contour>
        <pt x="1121" y="0" on="1"/>
        <pt x="948" y="469" on="1"/>
        <pt x="358" y="469" on="1"/>
        <pt x="179" y="0" on="1"/>
        <pt x="3" y="0" on="1"/>
        <pt x="571" y="1482" on="1"/>
        <pt x="748" y="1482" on="1"/>
        <pt x="1299" y="0" on="1"/>
      </contour>
    </TTGlyph>
    <TTGlyph name="AE" xMin="85" yMin="0" xMax="1966" yMax="1568">
      <contour>
        <pt x="85" y="0" on="1"/>
        <pt x="1001" y="1568" on="1"/>
        <pt x="1946" y="1568" on="1"/>
        <pt x="1946" y="1409" on="1"/>
        <pt x="1241" y="1409" on="1"/>
        <pt x="1280" y="882" on="1"/>
        <pt x="1911" y="882" on="1"/>
        <pt x="1911" y="724" on="1"/>
        <pt x="1300" y="724" on="1"/>
        <pt x="1342" y="158" on="1"/>
        <pt x="1966" y="158" on="1"/>
        <pt x="1966" y="0" on="1"/>
        <pt x="1183" y="0" on="1"/>
        <pt x="1152" y="427" on="1"/>
        <pt x="498" y="427" on="1"/>
        <pt x="258" y="0" on="1"/>
      </contour>
      <contour>
        <pt x="582" y="589" on="1"/>
        <pt x="1130" y="589" on="1"/>
        <pt x="1069" y="1409" on="1"/>
      </contour>
    </TTGlyph>
    <TTGlyph name="Aacute" xMin="3" yMin="0" xMax="1299" yMax="2015">
      <component glyphName="acute" x="466" y="377" flags="0x1004"/>
      <component glyphName="A" x="0" y="0" flags="0x1204"/>
    </TTGlyph>
    <TTGlyph name="Abreve" xMin="3" yMin="0" xMax="1299" yMax="1885">
      <component glyphName="breve" x="272" y="328" flags="0x1004"/>
      <component glyphName="A" x="0" y="0" flags="0x1204"/>
    </TTGlyph>
    <TTGlyph name="Acircumflex" xMin="3" yMin="0" xMax="1299" yMax="2015">
      <component glyphName="circumflex" x="250" y="376" flags="0x1004"/>
      <component glyphName="A" x="0" y="0" flags="0x1204"/>
    </TTGlyph>
    <TTGlyph name="Adieresis" xMin="3" yMin="0" xMax="1299" yMax="1839">
      <component glyphName="dieresis" x="260" y="373" flags="0x1004"/>
      <component glyphName="A" x="0" y="0" flags="0x1204"/>
    </TTGlyph>
    <TTGlyph name="Agrave" xMin="3" yMin="0" xMax="1299" yMax="2014">
      <component glyphName="grave" x="187" y="376" flags="0x1004"/>
      <component glyphName="A" x="0" y="0" flags="0x1204"/>
    </TTGlyph>
    <TTGlyph name="Amacron" xMin="3" yMin="0" xMax="1299" yMax="1749">
      <component glyphName="macron" x="120" y="124" flags="0x1004"/>
      <component glyphName="A" x="0" y="0" flags="0x1204"/>
    </TTGlyph>
    <TTGlyph name="Aogonek" xMin="3" yMin="-410" xMax="1299" yMax="1482">
      <component glyphName="ogonek" x="814" y="9" flags="0x1004"/>
      <component glyphName="A" x="0" y="0" flags="0x1004"/>
    </TTGlyph>
    <TTGlyph name="Aring" xMin="3" yMin="0" xMax="1299" yMax="1992">
      <component glyphName="ring" x="434" y="1323" flags="0x1004"/>
      <component glyphName="A" x="0" y="0" flags="0x1204"/>
    </TTGlyph>
    <TTGlyph name="Atilde" xMin="3" yMin="0" xMax="1299" yMax="1872">
      <component glyphName="tilde" x="22" y="1513" flags="0x1004"/>
      <component glyphName="A" x="0" y="0" flags="0x1204"/>
    </TTGlyph>
    <TTGlyph name="B" xMin="174" yMin="0" xMax="1213" yMax="1479">
      <contour>
        <pt x="347" y="704" on="1"/>
        <pt x="347" y="142" on="1"/>
        <pt x="656" y="142" on="1"/>
        <pt x="844" y="142" on="0"/>
        <pt x="1032" y="281" on="0"/>
        <pt x="1032" y="428" on="1"/>
        <pt x="1032" y="581" on="0"/>
        <pt x="829" y="704" on="0"/>
        <pt x="614" y="704" on="1"/>
      </contour>
      <contour>
        <pt x="347" y="843" on="1"/>
        <pt x="664" y="843" on="1"/>
        <pt x="819" y="843" on="0"/>
        <pt x="977" y="951" on="0"/>
        <pt x="977" y="1089" on="1"/>
        <pt x="977" y="1228" on="0"/>
        <pt x="788" y="1333" on="0"/>
        <pt x="589" y="1333" on="1"/>
        <pt x="347" y="1333" on="1"/>
      </contour>
      <contour>
        <pt x="174" y="1479" on="1"/>
        <pt x="598" y="1479" on="1"/>
        <pt x="883" y="1479" on="0"/>
        <pt x="1158" y="1305" on="0"/>
        <pt x="1158" y="1115" on="1"/>
        <pt x="1158" y="1087" on="0"/>
        <pt x="1151" y="1032" on="0"/>
        <pt x="1122" y="946" on="0"/>
        <pt x="1072" y="875" on="0"/>
        <pt x="975" y="804" on="0"/>
        <pt x="910" y="783" on="1"/>
        <pt x="1059" y="755" on="0"/>
        <pt x="1213" y="559" on="0"/>
        <pt x="1213" y="421" on="1"/>
        <pt x="1213" y="220" on="0"/>
        <pt x="950" y="0" on="0"/>
        <pt x="690" y="0" on="1"/>
        <pt x="174" y="0" on="1"/>
      </contour>
    </TTGlyph>
    <TTGlyph name="C" xMin="112" yMin="-22" xMax="1241" yMax="1504">
      <contour>
        <pt x="823" y="1352" on="1"/>
        <pt x="656" y="1352" on="0"/>
        <pt x="415" y="1190" on="0"/>
        <pt x="297" y="916" on="0"/>
        <pt x="297" y="738" on="1"/>
        <pt x="297" y="605" on="0"/>
        <pt x="361" y="386" on="0"/>
        <pt x="489" y="221" on="0"/>
        <pt x="694" y="130" on="0"/>
        <pt x="827" y="130" on="1"/>
        <pt x="998" y="130" on="0"/>
        <pt x="1181" y="219" on="1"/>
        <pt x="1210" y="72" on="1"/>
        <pt x="1061" y="-22" on="0"/>
        <pt x="807" y="-22" on="1"/>
        <pt x="640" y="-22" on="0"/>
        <pt x="375" y="89" on="0"/>
        <pt x="202" y="292" on="0"/>
        <pt x="112" y="573" on="0"/>
        <pt x="112" y="745" on="1"/>
        <pt x="112" y="911" on="0"/>
        <pt x="210" y="1191" on="0"/>
        <pt x="389" y="1392" on="0"/>
        <pt x="657" y="1504" on="0"/>
        <pt x="821" y="1504" on="1"/>
        <pt x="1070" y="1504" on="0"/>
        <pt x="1241" y="1394" on="1"/>
        <pt x="1173" y="1253" on="1"/>
        <pt x="1009" y="1352" on="0"/>
      </contour>
    </TTGlyph>
    <TTGlyph name="Cacute" xMin="112" yMin="-22" xMax="1241" yMax="2015">
      <component glyphName="acute" x="492" y="377" flags="0x1004"/>
      <component glyphName="C" x="0" y="0" flags="0x1204"/>
    </TTGlyph>
    <TTGlyph name="Ccaron" xMin="112" yMin="-22" xMax="1241" yMax="2015">
      <component glyphName="caron" x="275" y="376" flags="0x1004"/>
      <component glyphName="C" x="0" y="0" flags="0x1204"/>
    </TTGlyph>
    <TTGlyph name="Ccedilla" xMin="112" yMin="-434" xMax="1241" yMax="1504">
      <component glyphName="cedilla" x="408" y="-24" flags="0x1004"/>
      <component glyphName="C" x="0" y="0" flags="0x1204"/>
    </TTGlyph>
    <TTGlyph name="Ccircumflex" xMin="112" yMin="-22" xMax="1241" yMax="2015">
      <component glyphName="circumflex" x="275" y="376" flags="0x1004"/>
      <component glyphName="C" x="0" y="0" flags="0x1204"/>
    </TTGlyph>
    <TTGlyph name="Cdotaccent" xMin="112" yMin="-22" xMax="1241" yMax="1825">
      <component glyphName="uni0307" x="470" y="329" flags="0x1004"/>
      <component glyphName="C" x="0" y="0" flags="0x1204"/>
    </TTGlyph>
    <TTGlyph name="D" xMin="174" yMin="0" xMax="1390" yMax="1479">
      <contour>
        <pt x="1205" y="736" on="1"/>
        <pt x="1205" y="1046" on="0"/>
        <pt x="885" y="1328" on="0"/>
        <pt x="579" y="1328" on="1"/>
        <pt x="347" y="1328" on="1"/>
        <pt x="347" y="151" on="1"/>
        <pt x="608" y="151" on="1"/>
        <pt x="900" y="151" on="0"/>
        <pt x="1205" y="446" on="0"/>
      </contour>
      <contour>
        <pt x="1390" y="741" on="1"/>
        <pt x="1390" y="380" on="0"/>
        <pt x="980" y="0" on="0"/>
        <pt x="613" y="0" on="1"/>
        <pt x="174" y="0" on="1"/>
        <pt x="174" y="1479" on="1"/>
        <pt x="584" y="1479" on="1"/>
        <pt x="769" y="1479" on="0"/>
        <pt x="1061" y="1392" on="0"/>
        <pt x="1276" y="1215" on="0"/>
        <pt x="1390" y="930" on="0"/>
      </contour>
    </TTGlyph>
    <TTGlyph name="Dcaron" xMin="174" yMin="0" xMax="1390" yMax="2015">
      <component glyphName="caron" x="380" y="376" flags="0x1004"/>
      <component glyphName="D" x="0" y="0" flags="0x1204"/>
    </TTGlyph>
    <TTGlyph name="Dcroat" xMin="29" yMin="0" xMax="1412" yMax="1496">
      <contour>
        <pt x="324" y="697" on="1"/>
        <pt x="324" y="155" on="1"/>
        <pt x="639" y="155" on="1"/>
        <pt x="918" y="155" on="0"/>
        <pt x="1223" y="448" on="0"/>
        <pt x="1223" y="734" on="1"/>
        <pt x="1223" y="873" on="0"/>
        <pt x="1158" y="1083" on="0"/>
        <pt x="1044" y="1220" on="0"/>
        <pt x="870" y="1306" on="0"/>
        <pt x="668" y="1341" on="0"/>
        <pt x="540" y="1341" on="1"/>
        <pt x="324" y="1341" on="1"/>
        <pt x="324" y="832" on="1"/>
        <pt x="566" y="832" on="1"/>
        <pt x="566" y="697" on="1"/>
      </contour>
      <contour>
        <pt x="29" y="697" on="1"/>
        <pt x="29" y="832" on="1"/>
        <pt x="147" y="832" on="1"/>
        <pt x="147" y="1496" on="1"/>
        <pt x="519" y="1496" on="1"/>
        <pt x="680" y="1496" on="0"/>
        <pt x="942" y="1450" on="0"/>
        <pt x="1170" y="1340" on="0"/>
        <pt x="1324" y="1169" on="0"/>
        <pt x="1412" y="907" on="0"/>
        <pt x="1412" y="738" on="1"/>
        <pt x="1412" y="555" on="0"/>
        <pt x="1298" y="272" on="0"/>
        <pt x="1088" y="92" on="0"/>
        <pt x="800" y="0" on="0"/>
        <pt x="621" y="0" on="1"/>
        <pt x="147" y="0" on="1"/>
        <pt x="147" y="697" on="1"/>
      </contour>
    </TTGlyph>
    <TTGlyph name="E" xMin="174" yMin="0" xMax="1037" yMax="1479">
      <contour>
        <pt x="174" y="0" on="1"/>
        <pt x="174" y="1479" on="1"/>
        <pt x="1022" y="1479" on="1"/>
        <pt x="1015" y="1326" on="1"/>
        <pt x="347" y="1326" on="1"/>
        <pt x="347" y="842" on="1"/>
        <pt x="982" y="842" on="1"/>
        <pt x="982" y="691" on="1"/>
        <pt x="347" y="691" on="1"/>
        <pt x="347" y="153" on="1"/>
        <pt x="1037" y="153" on="1"/>
        <pt x="1029" y="0" on="1"/>
      </contour>
    </TTGlyph>
    <TTGlyph name="Eacute" xMin="174" yMin="0" xMax="1037" yMax="2015">
      <component glyphName="acute" x="420" y="377" flags="0x1004"/>
      <component glyphName="E" x="0" y="0" flags="0x1204"/>
    </TTGlyph>
    <TTGlyph name="Ecaron" xMin="174" yMin="0" xMax="1037" yMax="2015">
      <component glyphName="caron" x="204" y="376" flags="0x1004"/>
      <component glyphName="E" x="0" y="0" flags="0x1204"/>
    </TTGlyph>
    <TTGlyph name="Ecircumflex" xMin="174" yMin="0" xMax="1037" yMax="2015">
      <component glyphName="circumflex" x="204" y="376" flags="0x1004"/>
      <component glyphName="E" x="0" y="0" flags="0x1204"/>
    </TTGlyph>
    <TTGlyph name="Edieresis" xMin="174" yMin="0" xMax="1037" yMax="1839">
      <component glyphName="dieresis" x="215" y="373" flags="0x1004"/>
      <component glyphName="E" x="0" y="0" flags="0x1204"/>
    </TTGlyph>
    <TTGlyph name="Edotaccent" xMin="174" yMin="0" xMax="1037" yMax="1825">
      <component glyphName="uni0307" x="400" y="329" flags="0x1004"/>
      <component glyphName="E" x="0" y="0" flags="0x1204"/>
    </TTGlyph>
    <TTGlyph name="Egrave" xMin="174" yMin="0" xMax="1037" yMax="2014">
      <component glyphName="grave" x="142" y="376" flags="0x1004"/>
      <component glyphName="E" x="0" y="0" flags="0x1204"/>
    </TTGlyph>
    <TTGlyph name="Emacron" xMin="174" yMin="0" xMax="1037" yMax="1749">
      <component glyphName="macron" x="74" y="124" flags="0x1004"/>
      <component glyphName="E" x="0" y="0" flags="0x1204"/>
    </TTGlyph>
    <TTGlyph name="Eogonek" xMin="174" yMin="-410" xMax="1037" yMax="1479">
      <component glyphName="ogonek" x="456" y="9" flags="0x1004"/>
      <component glyphName="E" x="0" y="0" flags="0x1004"/>
    </TTGlyph>
    <TTGlyph name="Eth" xMin="29" yMin="0" xMax="1412" yMax="1496">
      <contour>
        <pt x="147" y="0" on="1"/>
        <pt x="147" y="697" on="1"/>
        <pt x="29" y="697" on="1"/>
        <pt x="29" y="832" on="1"/>
        <pt x="147" y="832" on="1"/>
        <pt x="147" y="1496" on="1"/>
        <pt x="519" y="1496" on="1"/>
        <pt x="680" y="1496" on="0"/>
        <pt x="942" y="1450" on="0"/>
        <pt x="1170" y="1340" on="0"/>
        <pt x="1324" y="1169" on="0"/>
        <pt x="1412" y="907" on="0"/>
        <pt x="1412" y="738" on="1"/>
        <pt x="1412" y="555" on="0"/>
        <pt x="1298" y="272" on="0"/>
        <pt x="1088" y="92" on="0"/>
        <pt x="800" y="0" on="0"/>
        <pt x="621" y="0" on="1"/>
      </contour>
      <contour>
        <pt x="324" y="155" on="1"/>
        <pt x="639" y="155" on="1"/>
        <pt x="918" y="155" on="0"/>
        <pt x="1223" y="448" on="0"/>
        <pt x="1223" y="734" on="1"/>
        <pt x="1223" y="873" on="0"/>
        <pt x="1158" y="1083" on="0"/>
        <pt x="1044" y="1220" on="0"/>
        <pt x="870" y="1306" on="0"/>
        <pt x="668" y="1341" on="0"/>
        <pt x="540" y="1341" on="1"/>
        <pt x="324" y="1341" on="1"/>
        <pt x="324" y="832" on="1"/>
        <pt x="566" y="832" on="1"/>
        <pt x="566" y="697" on="1"/>
        <pt x="324" y="697" on="1"/>
      </contour>
    </TTGlyph>
    <TTGlyph name="Euro" xMin="105" yMin="-22" xMax="1088" yMax="1524">
      <contour>
        <pt x="106" y="580" on="1"/>
        <pt x="123" y="683" on="1"/>
        <pt x="215" y="683" on="1"/>
        <pt x="213" y="715" on="0"/>
        <pt x="213" y="731" on="1"/>
        <pt x="213" y="752" on="0"/>
        <pt x="218" y="845" on="1"/>
        <pt x="105" y="845" on="1"/>
        <pt x="124" y="957" on="1"/>
        <pt x="234" y="957" on="1"/>
        <pt x="253" y="1083" on="0"/>
        <pt x="342" y="1288" on="0"/>
        <pt x="479" y="1441" on="0"/>
        <pt x="676" y="1524" on="0"/>
        <pt x="796" y="1524" on="1"/>
        <pt x="977" y="1524" on="0"/>
        <pt x="1088" y="1429" on="1"/>
        <pt x="1087" y="1249" on="1"/>
        <pt x="977" y="1369" on="0"/>
        <pt x="818" y="1369" on="1"/>
        <pt x="653" y="1369" on="0"/>
        <pt x="457" y="1150" on="0"/>
        <pt x="425" y="957" on="1"/>
        <pt x="983" y="957" on="1"/>
        <pt x="966" y="845" on="1"/>
        <pt x="407" y="845" on="1"/>
        <pt x="405" y="824" on="0"/>
        <pt x="403" y="742" on="0"/>
        <pt x="403" y="683" on="0"/>
        <pt x="402" y="683" on="1"/>
        <pt x="951" y="683" on="1"/>
        <pt x="941" y="580" on="1"/>
        <pt x="419" y="580" on="1"/>
        <pt x="430" y="489" on="0"/>
        <pt x="486" y="333" on="0"/>
        <pt x="576" y="207" on="0"/>
        <pt x="714" y="135" on="0"/>
        <pt x="800" y="135" on="1"/>
        <pt x="948" y="135" on="0"/>
        <pt x="1088" y="244" on="1"/>
        <pt x="1087" y="69" on="1"/>
        <pt x="962" y="-22" on="0"/>
        <pt x="781" y="-22" on="1"/>
        <pt x="680" y="-22" on="0"/>
        <pt x="508" y="48" on="0"/>
        <pt x="387" y="163" on="0"/>
        <pt x="294" y="321" on="0"/>
        <pt x="240" y="488" on="0"/>
        <pt x="227" y="580" on="1"/>
      </contour>
    </TTGlyph>
    <TTGlyph name="F" xMin="174" yMin="0" xMax="995" yMax="1479">
      <contour>
        <pt x="347" y="0" on="1"/>
        <pt x="174" y="0" on="1"/>
        <pt x="174" y="1479" on="1"/>
        <pt x="995" y="1479" on="1"/>
        <pt x="988" y="1326" on="1"/>
        <pt x="347" y="1326" on="1"/>
        <pt x="347" y="807" on="1"/>
        <pt x="958" y="807" on="1"/>
        <pt x="958" y="660" on="1"/>
        <pt x="347" y="660" on="1"/>
      </contour>
    </TTGlyph>
    <TTGlyph name="G" xMin="113" yMin="-22" xMax="1331" yMax="1504">
      <contour>
        <pt x="819" y="-22" on="1"/>
        <pt x="650" y="-22" on="0"/>
        <pt x="381" y="91" on="0"/>
        <pt x="206" y="294" on="0"/>
        <pt x="113" y="572" on="0"/>
        <pt x="113" y="738" on="1"/>
        <pt x="113" y="962" on="0"/>
        <pt x="283" y="1306" on="0"/>
        <pt x="619" y="1504" on="0"/>
        <pt x="849" y="1504" on="1"/>
        <pt x="1104" y="1504" on="0"/>
        <pt x="1297" y="1388" on="1"/>
        <pt x="1231" y="1245" on="1"/>
        <pt x="1045" y="1352" on="0"/>
        <pt x="851" y="1352" on="1"/>
        <pt x="716" y="1352" on="0"/>
        <pt x="503" y="1259" on="0"/>
        <pt x="368" y="1094" on="0"/>
        <pt x="297" y="871" on="0"/>
        <pt x="297" y="738" on="1"/>
        <pt x="297" y="456" on="0"/>
        <pt x="578" y="129" on="0"/>
        <pt x="852" y="129" on="1"/>
        <pt x="1008" y="129" on="0"/>
        <pt x="1169" y="192" on="1"/>
        <pt x="1169" y="614" on="1"/>
        <pt x="820" y="614" on="1"/>
        <pt x="826" y="765" on="1"/>
        <pt x="1331" y="765" on="1"/>
        <pt x="1331" y="89" on="1"/>
        <pt x="1205" y="29" on="0"/>
        <pt x="970" y="-22" on="0"/>
      </contour>
    </TTGlyph>
    <TTGlyph name="Gbreve" xMin="113" yMin="-22" xMax="1331" yMax="1885">
      <component glyphName="breve" x="343" y="328" flags="0x1004"/>
      <component glyphName="G" x="0" y="0" flags="0x1204"/>
    </TTGlyph>
    <TTGlyph name="Gcircumflex" xMin="113" yMin="-22" xMax="1331" yMax="2015">
      <component glyphName="circumflex" x="320" y="376" flags="0x1004"/>
      <component glyphName="G" x="0" y="0" flags="0x1204"/>
    </TTGlyph>
    <TTGlyph name="Gcommaaccent" xMin="113" yMin="-642" xMax="1331" yMax="1504">
      <component glyphName="uni0326" x="448" y="30" flags="0x1004"/>
      <component glyphName="G" x="0" y="0" flags="0x1204"/>
    </TTGlyph>
    <TTGlyph name="Gdotaccent" xMin="113" yMin="-22" xMax="1331" yMax="1825">
      <component glyphName="uni0307" x="516" y="329" flags="0x1004"/>
      <component glyphName="G" x="0" y="0" flags="0x1204"/>
    </TTGlyph>
    <TTGlyph name="H" xMin="174" yMin="0" xMax="1314" yMax="1479">
      <contour>
        <pt x="1314" y="0" on="1"/>
        <pt x="1141" y="0" on="1"/>
        <pt x="1141" y="692" on="1"/>
        <pt x="347" y="692" on="1"/>
        <pt x="347" y="0" on="1"/>
        <pt x="174" y="0" on="1"/>
        <pt x="174" y="1479" on="1"/>
        <pt x="347" y="1479" on="1"/>
        <pt x="347" y="844" on="1"/>
        <pt x="1141" y="844" on="1"/>
        <pt x="1141" y="1479" on="1"/>
        <pt x="1314" y="1479" on="1"/>
      </contour>
    </TTGlyph>
    <TTGlyph name="Hbar" xMin="57" yMin="0" xMax="1408" yMax="1496">
      <contour>
        <pt x="324" y="1146" on="1"/>
        <pt x="324" y="848" on="1"/>
        <pt x="1141" y="848" on="1"/>
        <pt x="1141" y="1146" on="1"/>
      </contour>
      <contour>
        <pt x="1141" y="696" on="1"/>
        <pt x="324" y="696" on="1"/>
        <pt x="324" y="0" on="1"/>
        <pt x="147" y="0" on="1"/>
        <pt x="147" y="1146" on="1"/>
        <pt x="57" y="1146" on="1"/>
        <pt x="57" y="1251" on="1"/>
        <pt x="147" y="1251" on="1"/>
        <pt x="147" y="1496" on="1"/>
        <pt x="324" y="1496" on="1"/>
        <pt x="324" y="1251" on="1"/>
        <pt x="1141" y="1251" on="1"/>
        <pt x="1141" y="1496" on="1"/>
        <pt x="1318" y="1496" on="1"/>
        <pt x="1318" y="1251" on="1"/>
        <pt x="1408" y="1251" on="1"/>
        <pt x="1408" y="1146" on="1"/>
        <pt x="1318" y="1146" on="1"/>
        <pt x="1318" y="0" on="1"/>
        <pt x="1141" y="0" on="1"/>
      </contour>
    </TTGlyph>
    <TTGlyph name="Hcircumflex" xMin="174" yMin="0" xMax="1314" yMax="2015">
      <component glyphName="circumflex" x="342" y="376" flags="0x1004"/>
      <component glyphName="H" x="0" y="0" flags="0x1204"/>
    </TTGlyph>
    <TTGlyph name="I" xMin="182" yMin="0" xMax="355" yMax="1479">
      <contour>
        <pt x="355" y="0" on="1"/>
        <pt x="182" y="0" on="1"/>
        <pt x="182" y="1479" on="1"/>
        <pt x="355" y="1479" on="1"/>
      </contour>
    </TTGlyph>
    <TTGlyph name="IJ" xMin="182" yMin="-214" xMax="943" yMax="1496">
      <contour>
        <pt x="766" y="181" on="1"/>
        <pt x="766" y="1496" on="1"/>
        <pt x="943" y="1496" on="1"/>
        <pt x="943" y="241" on="1"/>
        <pt x="943" y="168" on="0"/>
        <pt x="937" y="68" on="0"/>
        <pt x="919" y="-35" on="0"/>
        <pt x="884" y="-101" on="0"/>
        <pt x="828" y="-162" on="0"/>
        <pt x="745" y="-195" on="0"/>
        <pt x="631" y="-214" on="0"/>
        <pt x="556" y="-214" on="1"/>
        <pt x="521" y="-214" on="1"/>
        <pt x="500" y="-72" on="1"/>
        <pt x="574" y="-72" on="1"/>
        <pt x="627" y="-72" on="0"/>
        <pt x="700" y="-46" on="0"/>
        <pt x="740" y="-7" on="0"/>
        <pt x="761" y="65" on="0"/>
        <pt x="766" y="128" on="0"/>
      </contour>
      <contour>
        <pt x="355" y="0" on="1"/>
        <pt x="182" y="0" on="1"/>
        <pt x="182" y="1479" on="1"/>
        <pt x="355" y="1479" on="1"/>
      </contour>
    </TTGlyph>
    <TTGlyph name="Iacute" xMin="182" yMin="0" xMax="651" yMax="2015">
      <component glyphName="acute" x="84" y="377" flags="0x1004"/>
      <component glyphName="I" x="0" y="0" flags="0x1204"/>
    </TTGlyph>
    <TTGlyph name="Ibreve" xMin="18" yMin="0" xMax="520" yMax="1885">
      <component glyphName="breve" x="-110" y="328" flags="0x1004"/>
      <component glyphName="I" x="0" y="0" flags="0x1204"/>
    </TTGlyph>
    <TTGlyph name="Icircumflex" xMin="-25" yMin="0" xMax="562" yMax="2015">
      <component glyphName="circumflex" x="-133" y="376" flags="0x1004"/>
      <component glyphName="I" x="0" y="0" flags="0x1204"/>
    </TTGlyph>
    <TTGlyph name="Idieresis" xMin="-4" yMin="0" xMax="541" yMax="1839">
      <component glyphName="dieresis" x="-122" y="373" flags="0x1004"/>
      <component glyphName="I" x="0" y="0" flags="0x1204"/>
    </TTGlyph>
    <TTGlyph name="Idotaccent" xMin="182" yMin="0" xMax="355" yMax="1805">
      <component glyphName="dotaccent" x="268" y="1505" flags="0x1004"/>
      <component glyphName="I" x="0" y="0" flags="0x1204"/>
    </TTGlyph>
    <TTGlyph name="Igrave" xMin="-111" yMin="0" xMax="355" yMax="2014">
      <component glyphName="grave" x="-196" y="376" flags="0x1004"/>
      <component glyphName="I" x="0" y="0" flags="0x1204"/>
    </TTGlyph>
    <TTGlyph name="Imacron" xMin="-86" yMin="0" xMax="624" yMax="1749">
      <component glyphName="macron" x="-262" y="124" flags="0x1004"/>
      <component glyphName="I" x="0" y="0" flags="0x1204"/>
    </TTGlyph>
    <TTGlyph name="Iogonek" xMin="20" yMin="-410" xMax="370" yMax="1479">
      <component glyphName="ogonek" x="-98" y="9" flags="0x1004"/>
      <component glyphName="I" x="0" y="0" flags="0x1204"/>
    </TTGlyph>
    <TTGlyph name="Itilde" xMin="-95" yMin="0" xMax="632" yMax="1872">
      <component glyphName="tilde" x="-360" y="1513" flags="0x1004"/>
      <component glyphName="I" x="0" y="0" flags="0x1204"/>
    </TTGlyph>
    <TTGlyph name="J" xMin="-40" yMin="-214" xMax="403" yMax="1496">
      <contour>
        <pt x="226" y="181" on="1"/>
        <pt x="226" y="1496" on="1"/>
        <pt x="403" y="1496" on="1"/>
        <pt x="403" y="241" on="1"/>
        <pt x="403" y="168" on="0"/>
        <pt x="397" y="68" on="0"/>
        <pt x="379" y="-35" on="0"/>
        <pt x="344" y="-101" on="0"/>
        <pt x="288" y="-162" on="0"/>
        <pt x="205" y="-195" on="0"/>
        <pt x="91" y="-214" on="0"/>
        <pt x="16" y="-214" on="1"/>
        <pt x="-19" y="-214" on="1"/>
        <pt x="-40" y="-72" on="1"/>
        <pt x="34" y="-72" on="1"/>
        <pt x="87" y="-72" on="0"/>
        <pt x="160" y="-46" on="0"/>
        <pt x="200" y="-7" on="0"/>
        <pt x="221" y="65" on="0"/>
        <pt x="226" y="128" on="0"/>
      </contour>
    </TTGlyph>
    <TTGlyph name="Jcircumflex" xMin="-112" yMin="-214" xMax="475" yMax="2015">
      <component glyphName="circumflex" x="-220" y="376" flags="0x1004"/>
      <component glyphName="J" x="0" y="0" flags="0x1204"/>
    </TTGlyph>
    <TTGlyph name="K" xMin="173" yMin="0" xMax="1260" yMax="1479">
      <contour>
        <pt x="1260" y="0" on="1"/>
        <pt x="1048" y="0" on="1"/>
        <pt x="482" y="706" on="1"/>
        <pt x="347" y="587" on="1"/>
        <pt x="347" y="0" on="1"/>
        <pt x="173" y="0" on="1"/>
        <pt x="173" y="1479" on="1"/>
        <pt x="347" y="1479" on="1"/>
        <pt x="347" y="753" on="1"/>
        <pt x="997" y="1479" on="1"/>
        <pt x="1214" y="1479" on="1"/>
        <pt x="614" y="813" on="1"/>
      </contour>
    </TTGlyph>
    <TTGlyph name="Kcommaaccent" xMin="173" yMin="-620" xMax="1260" yMax="1479">
      <component glyphName="uni0326" x="442" y="52" flags="0x1004"/>
      <component glyphName="K" x="0" y="0" flags="0x1204"/>
    </TTGlyph>
    <TTGlyph name="L" xMin="174" yMin="0" xMax="999" yMax="1479">
      <contour>
        <pt x="174" y="0" on="1"/>
        <pt x="174" y="1479" on="1"/>
        <pt x="348" y="1479" on="1"/>
        <pt x="348" y="154" on="1"/>
        <pt x="999" y="154" on="1"/>
        <pt x="993" y="0" on="1"/>
      </contour>
    </TTGlyph>
    <TTGlyph name="Lacute" xMin="174" yMin="0" xMax="999" yMax="2015">
      <component glyphName="acute" x="402" y="377" flags="0x1004"/>
      <component glyphName="L" x="0" y="0" flags="0x1204"/>
    </TTGlyph>
    <TTGlyph name="Lcaron" xMin="174" yMin="0" xMax="1431" yMax="1505">
      <component glyphName="comma" x="1073" y="1271" flags="0x1004"/>
      <component glyphName="L" x="0" y="0" flags="0x1004"/>
    </TTGlyph>
    <TTGlyph name="Lcommaaccent" xMin="174" yMin="-620" xMax="999" yMax="1479">
      <component glyphName="uni0326" x="312" y="52" flags="0x1004"/>
      <component glyphName="L" x="0" y="0" flags="0x1204"/>
    </TTGlyph>
    <TTGlyph name="Ldot" xMin="174" yMin="0" xMax="999" yMax="1479">
      <component glyphName="periodcentered" x="352" y="92" flags="0x1004"/>
      <component glyphName="L" x="0" y="0" flags="0x1204"/>
    </TTGlyph>
    <TTGlyph name="Lslash" xMin="0" yMin="0" xMax="982" yMax="1496">
      <contour>
        <pt x="0" y="527" on="1"/>
        <pt x="0" y="675" on="1"/>
        <pt x="148" y="756" on="1"/>
        <pt x="148" y="1496" on="1"/>
        <pt x="325" y="1496" on="1"/>
        <pt x="325" y="853" on="1"/>
        <pt x="675" y="1045" on="1"/>
        <pt x="675" y="889" on="1"/>
        <pt x="325" y="701" on="1"/>
        <pt x="325" y="155" on="1"/>
        <pt x="982" y="155" on="1"/>
        <pt x="970" y="0" on="1"/>
        <pt x="148" y="0" on="1"/>
        <pt x="148" y="606" on="1"/>
      </contour>
    </TTGlyph>
    <TTGlyph name="M" xMin="175" yMin="0" xMax="1642" yMax="1479">
      <contour>
        <pt x="822" y="91" on="1"/>
        <pt x="368" y="1147" on="1"/>
        <pt x="330" y="1248" on="1"/>
        <pt x="337" y="886" on="1"/>
        <pt x="337" y="0" on="1"/>
        <pt x="175" y="0" on="1"/>
        <pt x="175" y="1479" on="1"/>
        <pt x="399" y="1479" on="1"/>
        <pt x="914" y="301" on="1"/>
        <pt x="1424" y="1479" on="1"/>
        <pt x="1642" y="1479" on="1"/>
        <pt x="1642" y="0" on="1"/>
        <pt x="1474" y="0" on="1"/>
        <pt x="1474" y="890" on="1"/>
        <pt x="1481" y="1244" on="1"/>
        <pt x="1444" y="1143" on="1"/>
        <pt x="991" y="91" on="1"/>
      </contour>
    </TTGlyph>
    <TTGlyph name="N" xMin="174" yMin="0" xMax="1342" yMax="1479">
      <contour>
        <pt x="1342" y="0" on="1"/>
        <pt x="1146" y="0" on="1"/>
        <pt x="378" y="1164" on="1"/>
        <pt x="328" y="1233" on="1"/>
        <pt x="336" y="1023" on="0"/>
        <pt x="336" y="858" on="1"/>
        <pt x="336" y="0" on="1"/>
        <pt x="174" y="0" on="1"/>
        <pt x="174" y="1479" on="1"/>
        <pt x="367" y="1479" on="1"/>
        <pt x="1137" y="315" on="1"/>
        <pt x="1188" y="246" on="1"/>
        <pt x="1181" y="565" on="0"/>
        <pt x="1181" y="615" on="1"/>
        <pt x="1181" y="1479" on="1"/>
        <pt x="1342" y="1479" on="1"/>
      </contour>
    </TTGlyph>
    <TTGlyph name="Nacute" xMin="174" yMin="0" xMax="1342" yMax="2015">
      <component glyphName="acute" x="573" y="377" flags="0x1004"/>
      <component glyphName="N" x="0" y="0" flags="0x1204"/>
    </TTGlyph>
    <TTGlyph name="Ncaron" xMin="174" yMin="0" xMax="1342" yMax="2015">
      <component glyphName="caron" x="356" y="376" flags="0x1004"/>
      <component glyphName="N" x="0" y="0" flags="0x1204"/>
    </TTGlyph>
    <TTGlyph name="Ncommaaccent" xMin="174" yMin="-620" xMax="1342" yMax="1479">
      <component glyphName="uni0326" x="484" y="52" flags="0x1004"/>
      <component glyphName="N" x="0" y="0" flags="0x1204"/>
    </TTGlyph>
    <TTGlyph name="Ntilde" xMin="174" yMin="0" xMax="1342" yMax="1872">
      <component glyphName="tilde" x="130" y="1513" flags="0x1004"/>
      <component glyphName="N" x="0" y="0" flags="0x1204"/>
    </TTGlyph>
    <TTGlyph name="O" xMin="112" yMin="-22" xMax="1514" yMax="1505">
      <contour>
        <pt x="296" y="739" on="1"/>
        <pt x="296" y="454" on="0"/>
        <pt x="558" y="129" on="0"/>
        <pt x="1070" y="129" on="0"/>
        <pt x="1329" y="453" on="0"/>
        <pt x="1329" y="739" on="1"/>
        <pt x="1329" y="1031" on="0"/>
        <pt x="1068" y="1353" on="0"/>
        <pt x="562" y="1353" on="0"/>
        <pt x="296" y="1031" on="0"/>
      </contour>
      <contour>
        <pt x="1514" y="739" on="1"/>
        <pt x="1514" y="570" on="0"/>
        <pt x="1421" y="290" on="0"/>
        <pt x="1246" y="89" on="0"/>
        <pt x="980" y="-22" on="0"/>
        <pt x="814" y="-22" on="1"/>
        <pt x="590" y="-22" on="0"/>
        <pt x="271" y="169" on="0"/>
        <pt x="112" y="510" on="0"/>
        <pt x="112" y="740" on="1"/>
        <pt x="112" y="1095" on="0"/>
        <pt x="482" y="1505" on="0"/>
        <pt x="815" y="1505" on="1"/>
        <pt x="1143" y="1505" on="0"/>
        <pt x="1514" y="1092" on="0"/>
      </contour>
    </TTGlyph>
    <TTGlyph name="OE" xMin="101" yMin="-23" xMax="1898" yMax="1524">
      <contour>
        <pt x="800" y="1524" on="1"/>
        <pt x="908" y="1524" on="0"/>
        <pt x="1090" y="1464" on="0"/>
        <pt x="1148" y="1413" on="1"/>
        <pt x="1148" y="1495" on="1"/>
        <pt x="1874" y="1495" on="1"/>
        <pt x="1857" y="1341" on="1"/>
        <pt x="1325" y="1341" on="1"/>
        <pt x="1325" y="845" on="1"/>
        <pt x="1821" y="845" on="1"/>
        <pt x="1821" y="692" on="1"/>
        <pt x="1325" y="692" on="1"/>
        <pt x="1325" y="156" on="1"/>
        <pt x="1898" y="156" on="1"/>
        <pt x="1883" y="0" on="1"/>
        <pt x="1148" y="0" on="1"/>
        <pt x="1148" y="82" on="1"/>
        <pt x="1114" y="46" on="0"/>
        <pt x="908" y="-23" on="0"/>
        <pt x="823" y="-23" on="1"/>
        <pt x="590" y="-23" on="0"/>
        <pt x="262" y="179" on="0"/>
        <pt x="101" y="533" on="0"/>
        <pt x="101" y="771" on="1"/>
        <pt x="106" y="987" on="0"/>
        <pt x="286" y="1330" on="0"/>
        <pt x="602" y="1524" on="0"/>
      </contour>
      <contour>
        <pt x="1148" y="1259" on="1"/>
        <pt x="1009" y="1373" on="0"/>
        <pt x="815" y="1373" on="1"/>
        <pt x="577" y="1373" on="0"/>
        <pt x="297" y="1040" on="0"/>
        <pt x="291" y="773" on="1"/>
        <pt x="291" y="663" on="0"/>
        <pt x="326" y="476" on="0"/>
        <pt x="406" y="313" on="0"/>
        <pt x="528" y="197" on="0"/>
        <pt x="710" y="130" on="0"/>
        <pt x="824" y="129" on="1"/>
        <pt x="910" y="129" on="0"/>
        <pt x="1098" y="192" on="0"/>
        <pt x="1148" y="222" on="1"/>
      </contour>
    </TTGlyph>
    <TTGlyph name="Oacute" xMin="112" yMin="-22" xMax="1514" yMax="2015">
      <component glyphName="acute" x="628" y="377" flags="0x1004"/>
      <component glyphName="O" x="0" y="0" flags="0x1204"/>
    </TTGlyph>
    <TTGlyph name="Obreve" xMin="112" yMin="-22" xMax="1514" yMax="1885">
      <component glyphName="breve" x="434" y="328" flags="0x1004"/>
      <component glyphName="O" x="0" y="0" flags="0x1204"/>
    </TTGlyph>
    <TTGlyph name="Ocircumflex" xMin="112" yMin="-22" xMax="1514" yMax="2015">
      <component glyphName="circumflex" x="412" y="376" flags="0x1004"/>
      <component glyphName="O" x="0" y="0" flags="0x1204"/>
    </TTGlyph>
    <TTGlyph name="Odieresis" xMin="112" yMin="-22" xMax="1514" yMax="1839">
      <component glyphName="dieresis" x="422" y="373" flags="0x1004"/>
      <component glyphName="O" x="0" y="0" flags="0x1204"/>
    </TTGlyph>
    <TTGlyph name="Ograve" xMin="112" yMin="-22" xMax="1514" yMax="2014">
      <component glyphName="grave" x="349" y="376" flags="0x1004"/>
      <component glyphName="O" x="0" y="0" flags="0x1204"/>
    </TTGlyph>
    <TTGlyph name="Ohungarumlaut" xMin="112" yMin="-22" xMax="1514" yMax="1962">
      <component glyphName="hungarumlaut" x="518" y="368" flags="0x1004"/>
      <component glyphName="O" x="0" y="0" flags="0x1204"/>
    </TTGlyph>
    <TTGlyph name="Omacron" xMin="112" yMin="-22" xMax="1514" yMax="1749">
      <component glyphName="macron" x="282" y="124" flags="0x1004"/>
      <component glyphName="O" x="0" y="0" flags="0x1204"/>
    </TTGlyph>
    <TTGlyph name="Oslash" xMin="112" yMin="-232" xMax="1514" yMax="1693">
      <contour>
        <pt x="502" y="-232" on="1"/>
        <pt x="377" y="-189" on="1"/>
        <pt x="473" y="50" on="1"/>
        <pt x="297" y="136" on="0"/>
        <pt x="112" y="493" on="0"/>
        <pt x="112" y="740" on="1"/>
        <pt x="112" y="1095" on="0"/>
        <pt x="482" y="1505" on="0"/>
        <pt x="815" y="1505" on="1"/>
        <pt x="940" y="1505" on="0"/>
        <pt x="1047" y="1473" on="1"/>
        <pt x="1136" y="1693" on="1"/>
        <pt x="1267" y="1647" on="1"/>
        <pt x="1175" y="1420" on="1"/>
        <pt x="1339" y="1330" on="0"/>
        <pt x="1514" y="979" on="0"/>
        <pt x="1514" y="739" on="1"/>
        <pt x="1514" y="570" on="0"/>
        <pt x="1421" y="290" on="0"/>
        <pt x="1246" y="89" on="0"/>
        <pt x="980" y="-22" on="0"/>
        <pt x="814" y="-22" on="1"/>
        <pt x="699" y="-22" on="0"/>
        <pt x="598" y="4" on="1"/>
      </contour>
      <contour>
        <pt x="989" y="1329" on="1"/>
        <pt x="911" y="1353" on="0"/>
        <pt x="815" y="1353" on="1"/>
        <pt x="562" y="1353" on="0"/>
        <pt x="296" y="1031" on="0"/>
        <pt x="296" y="739" on="1"/>
        <pt x="296" y="548" on="0"/>
        <pt x="416" y="271" on="0"/>
        <pt x="534" y="199" on="1"/>
      </contour>
      <contour>
        <pt x="1114" y="1270" on="1"/>
        <pt x="657" y="148" on="1"/>
        <pt x="733" y="129" on="0"/>
        <pt x="814" y="129" on="1"/>
        <pt x="1070" y="129" on="0"/>
        <pt x="1329" y="453" on="0"/>
        <pt x="1329" y="739" on="1"/>
        <pt x="1329" y="1121" on="0"/>
      </contour>
    </TTGlyph>
    <TTGlyph name="Otilde" xMin="112" yMin="-22" xMax="1514" yMax="1872">
      <component glyphName="tilde" x="184" y="1513" flags="0x1004"/>
      <component glyphName="O" x="0" y="0" flags="0x1204"/>
    </TTGlyph>
    <TTGlyph name="P" xMin="146" yMin="0" xMax="1130" yMax="1496">
      <contour>
        <pt x="323" y="0" on="1"/>
        <pt x="146" y="0" on="1"/>
        <pt x="146" y="1496" on="1"/>
        <pt x="628" y="1496" on="1"/>
        <pt x="738" y="1496" on="0"/>
        <pt x="916" y="1450" on="0"/>
        <pt x="1054" y="1356" on="0"/>
        <pt x="1130" y="1198" on="0"/>
        <pt x="1130" y="1093" on="1"/>
        <pt x="1130" y="1006" on="0"/>
        <pt x="1098" y="869" on="0"/>
        <pt x="1020" y="749" on="0"/>
        <pt x="894" y="670" on="0"/>
        <pt x="697" y="625" on="0"/>
        <pt x="567" y="625" on="1"/>
        <pt x="464" y="625" on="0"/>
        <pt x="323" y="638" on="1"/>
      </contour>
      <contour>
        <pt x="584" y="778" on="1"/>
        <pt x="682" y="778" on="0"/>
        <pt x="822" y="816" on="0"/>
        <pt x="897" y="872" on="0"/>
        <pt x="940" y="962" on="0"/>
        <pt x="950" y="1037" on="0"/>
        <pt x="950" y="1090" on="1"/>
        <pt x="950" y="1217" on="0"/>
        <pt x="779" y="1337" on="0"/>
        <pt x="632" y="1337" on="1"/>
        <pt x="323" y="1337" on="1"/>
        <pt x="323" y="780" on="1"/>
        <pt x="516" y="778" on="0"/>
      </contour>
    </TTGlyph>
    <TTGlyph name="Q" xMin="112" yMin="-470" xMax="1514" yMax="1505">
      <contour>
        <pt x="1267" y="-470" on="1"/>
        <pt x="1219" y="-422" on="0"/>
        <pt x="997" y="-127" on="0"/>
        <pt x="942" y="-13" on="1"/>
        <pt x="880" y="-22" on="0"/>
        <pt x="814" y="-22" on="1"/>
        <pt x="590" y="-22" on="0"/>
        <pt x="271" y="169" on="0"/>
        <pt x="112" y="510" on="0"/>
        <pt x="112" y="740" on="1"/>
        <pt x="112" y="1095" on="0"/>
        <pt x="482" y="1505" on="0"/>
        <pt x="815" y="1505" on="1"/>
        <pt x="1143" y="1505" on="0"/>
        <pt x="1514" y="1092" on="0"/>
        <pt x="1514" y="739" on="1"/>
        <pt x="1514" y="482" on="0"/>
        <pt x="1304" y="111" on="0"/>
        <pt x="1108" y="31" on="1"/>
        <pt x="1124" y="3" on="0"/>
        <pt x="1180" y="-88" on="0"/>
        <pt x="1327" y="-293" on="0"/>
        <pt x="1385" y="-350" on="1"/>
      </contour>
      <contour>
        <pt x="558" y="129" on="0"/>
        <pt x="1070" y="129" on="0"/>
        <pt x="1329" y="453" on="0"/>
        <pt x="1329" y="739" on="1"/>
        <pt x="1329" y="1031" on="0"/>
        <pt x="1068" y="1353" on="0"/>
        <pt x="562" y="1353" on="0"/>
        <pt x="296" y="1031" on="0"/>
        <pt x="296" y="739" on="1"/>
        <pt x="296" y="454" on="0"/>
      </contour>
    </TTGlyph>
    <TTGlyph name="R" xMin="147" yMin="0" xMax="1272" yMax="1496">
      <contour>
        <pt x="324" y="1341" on="1"/>
        <pt x="324" y="841" on="1"/>
        <pt x="365" y="841" on="0"/>
        <pt x="622" y="837" on="0"/>
        <pt x="692" y="837" on="1"/>
        <pt x="883" y="837" on="0"/>
        <pt x="1033" y="964" on="0"/>
        <pt x="1033" y="1102" on="1"/>
        <pt x="1033" y="1223" on="0"/>
        <pt x="889" y="1341" on="0"/>
        <pt x="720" y="1341" on="1"/>
      </contour>
      <contour>
        <pt x="1272" y="0" on="1"/>
        <pt x="1072" y="0" on="1"/>
        <pt x="868" y="464" on="1"/>
        <pt x="785" y="651" on="0"/>
        <pt x="762" y="689" on="1"/>
        <pt x="689" y="684" on="0"/>
        <pt x="589" y="684" on="1"/>
        <pt x="324" y="692" on="1"/>
        <pt x="324" y="0" on="1"/>
        <pt x="147" y="0" on="1"/>
        <pt x="147" y="1496" on="1"/>
        <pt x="620" y="1496" on="1"/>
        <pt x="702" y="1496" on="0"/>
        <pt x="828" y="1488" on="0"/>
        <pt x="953" y="1467" on="0"/>
        <pt x="1045" y="1430" on="0"/>
        <pt x="1125" y="1371" on="0"/>
        <pt x="1174" y="1289" on="0"/>
        <pt x="1202" y="1176" on="0"/>
        <pt x="1202" y="1105" on="1"/>
        <pt x="1202" y="965" on="0"/>
        <pt x="1055" y="763" on="0"/>
        <pt x="920" y="724" on="1"/>
        <pt x="920" y="722" on="0"/>
        <pt x="960" y="654" on="0"/>
        <pt x="1015" y="555" on="0"/>
        <pt x="1030" y="522" on="1"/>
      </contour>
    </TTGlyph>
    <TTGlyph name="Racute" xMin="147" yMin="0" xMax="1272" yMax="2015">
      <component glyphName="acute" x="524" y="377" flags="0x1004"/>
      <component glyphName="R" x="0" y="0" flags="0x1204"/>
    </TTGlyph>
    <TTGlyph name="Rcaron" xMin="147" yMin="0" xMax="1272" yMax="2015">
      <component glyphName="caron" x="308" y="376" flags="0x1004"/>
      <component glyphName="R" x="0" y="0" flags="0x1204"/>
    </TTGlyph>
    <TTGlyph name="Rcommaaccent" xMin="147" yMin="-620" xMax="1272" yMax="1496">
      <component glyphName="uni0326" x="436" y="52" flags="0x1004"/>
      <component glyphName="R" x="0" y="0" flags="0x1204"/>
    </TTGlyph>
    <TTGlyph name="S" xMin="94" yMin="-23" xMax="1145" yMax="1525">
      <contour>
        <pt x="146" y="244" on="1"/>
        <pt x="377" y="130" on="0"/>
        <pt x="641" y="130" on="1"/>
        <pt x="966" y="130" on="0"/>
        <pt x="966" y="426" on="1"/>
        <pt x="966" y="522" on="0"/>
        <pt x="863" y="641" on="0"/>
        <pt x="727" y="675" on="1"/>
        <pt x="433" y="749" on="1"/>
        <pt x="96" y="834" on="0"/>
        <pt x="96" y="1109" on="1"/>
        <pt x="96" y="1320" on="0"/>
        <pt x="386" y="1525" on="0"/>
        <pt x="642" y="1525" on="1"/>
        <pt x="776" y="1525" on="0"/>
        <pt x="1010" y="1467" on="0"/>
        <pt x="1089" y="1418" on="1"/>
        <pt x="1039" y="1277" on="1"/>
        <pt x="972" y="1314" on="0"/>
        <pt x="751" y="1372" on="0"/>
        <pt x="638" y="1372" on="1"/>
        <pt x="276" y="1372" on="0"/>
        <pt x="276" y="1121" on="1"/>
        <pt x="276" y="1036" on="0"/>
        <pt x="387" y="933" on="0"/>
        <pt x="498" y="906" on="1"/>
        <pt x="779" y="838" on="1"/>
        <pt x="959" y="795" on="0"/>
        <pt x="1145" y="606" on="0"/>
        <pt x="1145" y="432" on="1"/>
        <pt x="1145" y="206" on="0"/>
        <pt x="868" y="-23" on="0"/>
        <pt x="630" y="-23" on="1"/>
        <pt x="452" y="-23" on="0"/>
        <pt x="175" y="50" on="0"/>
        <pt x="94" y="100" on="1"/>
      </contour>
    </TTGlyph>
    <TTGlyph name="Sacute" xMin="94" yMin="-23" xMax="1145" yMax="2035">
      <component glyphName="acute" x="434" y="397" flags="0x1004"/>
      <component glyphName="S" x="0" y="0" flags="0x1204"/>
    </TTGlyph>
    <TTGlyph name="Scaron" xMin="94" yMin="-23" xMax="1145" yMax="2035">
      <component glyphName="caron" x="218" y="396" flags="0x1004"/>
      <component glyphName="S" x="0" y="0" flags="0x1204"/>
    </TTGlyph>
    <TTGlyph name="Scedilla" xMin="94" yMin="-435" xMax="1145" yMax="1525">
      <component glyphName="cedilla" x="350" y="-25" flags="0x1004"/>
      <component glyphName="S" x="0" y="0" flags="0x1204"/>
    </TTGlyph>
    <TTGlyph name="Scommaaccent" xMin="94" yMin="-643" xMax="1145" yMax="1525">
      <component glyphName="uni0326" x="346" y="29" flags="0x1004"/>
      <component glyphName="S" x="0" y="0" flags="0x1204"/>
    </TTGlyph>
    <TTGlyph name="T" xMin="7" yMin="0" xMax="1091" yMax="1479">
      <contour>
        <pt x="636" y="0" on="1"/>
        <pt x="462" y="0" on="1"/>
        <pt x="462" y="1326" on="1"/>
        <pt x="7" y="1326" on="1"/>
        <pt x="7" y="1479" on="1"/>
        <pt x="1091" y="1479" on="1"/>
        <pt x="1091" y="1326" on="1"/>
        <pt x="636" y="1326" on="1"/>
      </contour>
    </TTGlyph>
    <TTGlyph name="Tcaron" xMin="7" yMin="0" xMax="1091" yMax="2015">
      <component glyphName="caron" x="148" y="376" flags="0x1004"/>
      <component glyphName="T" x="0" y="0" flags="0x1204"/>
    </TTGlyph>
    <TTGlyph name="Tcommaaccent" xMin="7" yMin="-412" xMax="1091" yMax="1479">
      <component glyphName="cedilla" x="280" y="-2" flags="0x1004"/>
      <component glyphName="T" x="0" y="0" flags="0x1204"/>
    </TTGlyph>
    <TTGlyph name="Thorn" xMin="147" yMin="0" xMax="1209" yMax="1496">
      <contour>
        <pt x="324" y="493" on="1"/>
        <pt x="708" y="493" on="1"/>
        <pt x="1040" y="493" on="0"/>
        <pt x="1040" y="782" on="1"/>
        <pt x="1040" y="932" on="0"/>
        <pt x="869" y="1068" on="0"/>
        <pt x="666" y="1068" on="1"/>
        <pt x="324" y="1068" on="1"/>
      </contour>
      <contour>
        <pt x="147" y="0" on="1"/>
        <pt x="147" y="1496" on="1"/>
        <pt x="324" y="1496" on="1"/>
        <pt x="324" y="1217" on="1"/>
        <pt x="648" y="1217" on="1"/>
        <pt x="929" y="1217" on="0"/>
        <pt x="1209" y="1020" on="0"/>
        <pt x="1209" y="791" on="1"/>
        <pt x="1209" y="581" on="0"/>
        <pt x="969" y="342" on="0"/>
        <pt x="719" y="342" on="1"/>
        <pt x="324" y="349" on="1"/>
        <pt x="324" y="0" on="1"/>
      </contour>
    </TTGlyph>
    <TTGlyph name="U" xMin="156" yMin="-22" xMax="1277" yMax="1479">
      <contour>
        <pt x="1277" y="1479" on="1"/>
        <pt x="1277" y="519" on="1"/>
        <pt x="1277" y="264" on="0"/>
        <pt x="998" y="-22" on="0"/>
        <pt x="428" y="-22" on="0"/>
        <pt x="156" y="264" on="0"/>
        <pt x="156" y="521" on="1"/>
        <pt x="156" y="1479" on="1"/>
        <pt x="330" y="1479" on="1"/>
        <pt x="330" y="518" on="1"/>
        <pt x="330" y="317" on="0"/>
        <pt x="520" y="127" on="0"/>
        <pt x="719" y="127" on="1"/>
        <pt x="913" y="127" on="0"/>
        <pt x="1104" y="319" on="0"/>
        <pt x="1104" y="519" on="1"/>
        <pt x="1104" y="1479" on="1"/>
      </contour>
    </TTGlyph>
    <TTGlyph name="Uacute" xMin="156" yMin="-22" xMax="1277" yMax="2015">
      <component glyphName="acute" x="532" y="377" flags="0x1004"/>
      <component glyphName="U" x="0" y="0" flags="0x1204"/>
    </TTGlyph>
    <TTGlyph name="Ubreve" xMin="156" yMin="-22" xMax="1277" yMax="1885">
      <component glyphName="breve" x="338" y="328" flags="0x1004"/>
      <component glyphName="U" x="0" y="0" flags="0x1204"/>
    </TTGlyph>
    <TTGlyph name="Ucircumflex" xMin="156" yMin="-22" xMax="1277" yMax="2015">
      <component glyphName="circumflex" x="315" y="376" flags="0x1004"/>
      <component glyphName="U" x="0" y="0" flags="0x1204"/>
    </TTGlyph>
    <TTGlyph name="Udieresis" xMin="156" yMin="-22" xMax="1277" yMax="1839">
      <component glyphName="dieresis" x="326" y="373" flags="0x1004"/>
      <component glyphName="U" x="0" y="0" flags="0x1204"/>
    </TTGlyph>
    <TTGlyph name="Ugrave" xMin="156" yMin="-22" xMax="1277" yMax="2014">
      <component glyphName="grave" x="252" y="376" flags="0x1004"/>
      <component glyphName="U" x="0" y="0" flags="0x1204"/>
    </TTGlyph>
    <TTGlyph name="Uhungarumlaut" xMin="156" yMin="-22" xMax="1277" yMax="1962">
      <component glyphName="hungarumlaut" x="421" y="368" flags="0x1004"/>
      <component glyphName="U" x="0" y="0" flags="0x1204"/>
    </TTGlyph>
    <TTGlyph name="Umacron" xMin="156" yMin="-22" xMax="1277" yMax="1749">
      <component glyphName="macron" x="186" y="124" flags="0x1004"/>
      <component glyphName="U" x="0" y="0" flags="0x1204"/>
    </TTGlyph>
    <TTGlyph name="Uogonek" xMin="156" yMin="-432" xMax="1277" yMax="1479">
      <component glyphName="ogonek" x="350" y="-13" flags="0x1004"/>
      <component glyphName="U" x="0" y="0" flags="0x1204"/>
    </TTGlyph>
    <TTGlyph name="Uring" xMin="156" yMin="-22" xMax="1277" yMax="2131">
      <component glyphName="ring" x="500" y="1462" flags="0x1004"/>
      <component glyphName="U" x="0" y="0" flags="0x1204"/>
    </TTGlyph>
    <TTGlyph name="Utilde" xMin="156" yMin="-22" xMax="1277" yMax="1872">
      <component glyphName="tilde" x="88" y="1513" flags="0x1004"/>
      <component glyphName="U" x="0" y="0" flags="0x1204"/>
    </TTGlyph>
    <TTGlyph name="V" xMin="-5" yMin="0" xMax="1247" yMax="1479">
      <contour>
        <pt x="1062" y="1479" on="1"/>
        <pt x="1247" y="1479" on="1"/>
        <pt x="710" y="0" on="1"/>
        <pt x="530" y="0" on="1"/>
        <pt x="-5" y="1479" on="1"/>
        <pt x="180" y="1479" on="1"/>
        <pt x="509" y="541" on="1"/>
        <pt x="573" y="358" on="0"/>
        <pt x="620" y="196" on="1"/>
        <pt x="635" y="271" on="0"/>
        <pt x="732" y="544" on="1"/>
        <pt x="888" y="991" on="0"/>
      </contour>
    </TTGlyph>
    <TTGlyph name="W" xMin="0" yMin="0" xMax="2013" yMax="1479">
      <contour>
        <pt x="446" y="0" on="1"/>
        <pt x="0" y="1479" on="1"/>
        <pt x="181" y="1479" on="1"/>
        <pt x="547" y="206" on="1"/>
        <pt x="913" y="1452" on="1"/>
        <pt x="1108" y="1452" on="1"/>
        <pt x="1463" y="205" on="1"/>
        <pt x="1832" y="1479" on="1"/>
        <pt x="2013" y="1479" on="1"/>
        <pt x="1561" y="0" on="1"/>
        <pt x="1372" y="0" on="1"/>
        <pt x="1012" y="1243" on="1"/>
        <pt x="634" y="0" on="1"/>
      </contour>
    </TTGlyph>
    <TTGlyph name="Wacute" xMin="0" yMin="0" xMax="2013" yMax="2015">
      <component glyphName="acute" x="822" y="377" flags="0x1004"/>
      <component glyphName="W" x="0" y="0" flags="0x1204"/>
    </TTGlyph>
    <TTGlyph name="Wcircumflex" xMin="0" yMin="0" xMax="2013" yMax="2015">
      <component glyphName="circumflex" x="605" y="376" flags="0x1004"/>
      <component glyphName="W" x="0" y="0" flags="0x1204"/>
    </TTGlyph>
    <TTGlyph name="Wdieresis" xMin="0" yMin="0" xMax="2013" yMax="1839">
      <component glyphName="dieresis" x="616" y="373" flags="0x1004"/>
      <component glyphName="W" x="0" y="0" flags="0x1204"/>
    </TTGlyph>
    <TTGlyph name="Wgrave" xMin="0" yMin="0" xMax="2013" yMax="2014">
      <component glyphName="grave" x="542" y="376" flags="0x1004"/>
      <component glyphName="W" x="0" y="0" flags="0x1204"/>
    </TTGlyph>
    <TTGlyph name="X" xMin="9" yMin="0" xMax="1231" yMax="1479">
      <contour>
        <pt x="1231" y="0" on="1"/>
        <pt x="1032" y="0" on="1"/>
        <pt x="620" y="661" on="1"/>
        <pt x="197" y="0" on="1"/>
        <pt x="9" y="0" on="1"/>
        <pt x="515" y="772" on="1"/>
        <pt x="42" y="1479" on="1"/>
        <pt x="243" y="1479" on="1"/>
        <pt x="626" y="887" on="1"/>
        <pt x="1024" y="1479" on="1"/>
        <pt x="1209" y="1479" on="1"/>
        <pt x="733" y="775" on="1"/>
      </contour>
    </TTGlyph>
    <TTGlyph name="Y" xMin="-1" yMin="0" xMax="1195" yMax="1479">
      <contour>
        <pt x="591" y="754" on="1"/>
        <pt x="1007" y="1479" on="1"/>
        <pt x="1195" y="1479" on="1"/>
        <pt x="673" y="590" on="1"/>
        <pt x="673" y="0" on="1"/>
        <pt x="498" y="0" on="1"/>
        <pt x="498" y="586" on="1"/>
        <pt x="-1" y="1479" on="1"/>
        <pt x="186" y="1479" on="1"/>
      </contour>
    </TTGlyph>
    <TTGlyph name="Yacute" xMin="-1" yMin="0" xMax="1195" yMax="2015">
      <component glyphName="acute" x="412" y="377" flags="0x1004"/>
      <component glyphName="Y" x="0" y="0" flags="0x1204"/>
    </TTGlyph>
    <TTGlyph name="Ycircumflex" xMin="-1" yMin="0" xMax="1195" yMax="2015">
      <component glyphName="circumflex" x="196" y="376" flags="0x1004"/>
      <component glyphName="Y" x="0" y="0" flags="0x1204"/>
    </TTGlyph>
    <TTGlyph name="Ydieresis" xMin="-1" yMin="0" xMax="1195" yMax="1839">
      <component glyphName="dieresis" x="206" y="373" flags="0x1004"/>
      <component glyphName="Y" x="0" y="0" flags="0x1204"/>
    </TTGlyph>
    <TTGlyph name="Ygrave" xMin="-1" yMin="0" xMax="1195" yMax="2014">
      <component glyphName="grave" x="133" y="376" flags="0x1004"/>
      <component glyphName="Y" x="0" y="0" flags="0x1204"/>
    </TTGlyph>
    <TTGlyph name="Z" xMin="86" yMin="0" xMax="1118" yMax="1479">
      <contour>
        <pt x="86" y="0" on="1"/>
        <pt x="86" y="136" on="1"/>
        <pt x="890" y="1325" on="1"/>
        <pt x="115" y="1325" on="1"/>
        <pt x="115" y="1479" on="1"/>
        <pt x="1111" y="1479" on="1"/>
        <pt x="1111" y="1350" on="1"/>
        <pt x="302" y="154" on="1"/>
        <pt x="1118" y="154" on="1"/>
        <pt x="1112" y="0" on="1"/>
      </contour>
    </TTGlyph>
    <TTGlyph name="Zacute" xMin="86" yMin="0" xMax="1118" yMax="2015">
      <component glyphName="acute" x="417" y="377" flags="0x1004"/>
      <component glyphName="Z" x="0" y="0" flags="0x1204"/>
    </TTGlyph>
    <TTGlyph name="Zcaron" xMin="86" yMin="0" xMax="1118" yMax="2015">
      <component glyphName="caron" x="200" y="376" flags="0x1004"/>
      <component glyphName="Z" x="0" y="0" flags="0x1204"/>
    </TTGlyph>
    <TTGlyph name="Zdotaccent" xMin="86" yMin="0" xMax="1118" yMax="1825">
      <component glyphName="uni0307" x="396" y="329" flags="0x1004"/>
      <component glyphName="Z" x="0" y="0" flags="0x1204"/>
    </TTGlyph>
    <TTGlyph name="a" xMin="94" yMin="-23" xMax="953" yMax="1120">
      <contour>
        <pt x="460" y="112" on="1"/>
        <pt x="579" y="112" on="0"/>
        <pt x="760" y="243" on="0"/>
        <pt x="786" y="354" on="1"/>
        <pt x="786" y="539" on="1"/>
        <pt x="781" y="539" on="0"/>
        <pt x="670" y="529" on="0"/>
        <pt x="653" y="528" on="1"/>
        <pt x="436" y="509" on="0"/>
        <pt x="265" y="405" on="0"/>
        <pt x="265" y="290" on="1"/>
        <pt x="265" y="202" on="0"/>
        <pt x="369" y="112" on="0"/>
      </contour>
      <contour>
        <pt x="823" y="0" on="1"/>
        <pt x="808" y="64" on="0"/>
        <pt x="794" y="138" on="1"/>
        <pt x="703" y="47" on="0"/>
        <pt x="543" y="-23" on="0"/>
        <pt x="435" y="-23" on="1"/>
        <pt x="281" y="-23" on="0"/>
        <pt x="94" y="138" on="0"/>
        <pt x="94" y="289" on="1"/>
        <pt x="94" y="457" on="0"/>
        <pt x="349" y="619" on="0"/>
        <pt x="589" y="639" on="1"/>
        <pt x="622" y="642" on="0"/>
        <pt x="755" y="653" on="0"/>
        <pt x="788" y="656" on="1"/>
        <pt x="788" y="753" on="1"/>
        <pt x="788" y="869" on="0"/>
        <pt x="680" y="981" on="0"/>
        <pt x="564" y="981" on="1"/>
        <pt x="402" y="981" on="0"/>
        <pt x="237" y="901" on="1"/>
        <pt x="232" y="913" on="0"/>
        <pt x="190" y="1028" on="0"/>
        <pt x="189" y="1030" on="1"/>
        <pt x="262" y="1071" on="0"/>
        <pt x="463" y="1120" on="0"/>
        <pt x="567" y="1120" on="1"/>
        <pt x="772" y="1120" on="0"/>
        <pt x="953" y="941" on="0"/>
        <pt x="953" y="726" on="1"/>
        <pt x="953" y="0" on="1"/>
      </contour>
    </TTGlyph>
    <TTGlyph name="aacute" xMin="94" yMin="-23" xMax="953" yMax="1630">
      <component glyphName="acute" x="338" y="-8" flags="0x1004"/>
      <component glyphName="a" x="0" y="0" flags="0x1204"/>
    </TTGlyph>
    <TTGlyph name="abreve" xMin="94" yMin="-23" xMax="953" yMax="1500">
      <component glyphName="breve" x="144" y="-57" flags="0x1004"/>
      <component glyphName="a" x="0" y="0" flags="0x1204"/>
    </TTGlyph>
    <TTGlyph name="acircumflex" xMin="94" yMin="-23" xMax="953" yMax="1630">
      <component glyphName="circumflex" x="122" y="-9" flags="0x1004"/>
      <component glyphName="a" x="0" y="0" flags="0x1204"/>
    </TTGlyph>
    <TTGlyph name="acute" xMin="128" yMin="1250" xMax="567" yMax="1638">
      <contour>
        <pt x="567" y="1638" on="1"/>
        <pt x="242" y="1250" on="1"/>
        <pt x="128" y="1250" on="1"/>
        <pt x="314" y="1638" on="1"/>
      </contour>
    </TTGlyph>
    <TTGlyph name="adieresis" xMin="94" yMin="-23" xMax="953" yMax="1454">
      <component glyphName="dieresis" x="133" y="-12" flags="0x1004"/>
      <component glyphName="a" x="0" y="0" flags="0x1204"/>
    </TTGlyph>
    <TTGlyph name="ae" xMin="80" yMin="-26" xMax="1569" yMax="1124">
      <contour>
        <pt x="888" y="615" on="1"/>
        <pt x="1404" y="644" on="1"/>
        <pt x="1404" y="654" on="1"/>
        <pt x="1402" y="825" on="0"/>
        <pt x="1299" y="984" on="0"/>
        <pt x="1189" y="984" on="1"/>
        <pt x="1046" y="984" on="0"/>
        <pt x="897" y="781" on="0"/>
      </contour>
      <contour>
        <pt x="416" y="113" on="1"/>
        <pt x="448" y="113" on="0"/>
        <pt x="519" y="124" on="0"/>
        <pt x="611" y="149" on="0"/>
        <pt x="662" y="165" on="0"/>
        <pt x="775" y="204" on="0"/>
        <pt x="787" y="208" on="1"/>
        <pt x="720" y="330" on="0"/>
        <pt x="711" y="499" on="1"/>
        <pt x="667" y="497" on="0"/>
        <pt x="647" y="495" on="1"/>
        <pt x="489" y="483" on="0"/>
        <pt x="313" y="431" on="0"/>
        <pt x="248" y="354" on="0"/>
        <pt x="248" y="291" on="1"/>
        <pt x="248" y="113" on="0"/>
      </contour>
      <contour>
        <pt x="404" y="-26" on="1"/>
        <pt x="261" y="-26" on="0"/>
        <pt x="80" y="131" on="0"/>
        <pt x="80" y="300" on="1"/>
        <pt x="80" y="355" on="0"/>
        <pt x="113" y="444" on="0"/>
        <pt x="166" y="505" on="0"/>
        <pt x="255" y="552" on="0"/>
        <pt x="342" y="580" on="0"/>
        <pt x="471" y="600" on="0"/>
        <pt x="576" y="609" on="0"/>
        <pt x="651" y="613" on="1"/>
        <pt x="714" y="616" on="1"/>
        <pt x="714" y="781" on="1"/>
        <pt x="714" y="883" on="0"/>
        <pt x="628" y="976" on="0"/>
        <pt x="524" y="976" on="1"/>
        <pt x="426" y="976" on="0"/>
        <pt x="234" y="929" on="0"/>
        <pt x="168" y="894" on="1"/>
        <pt x="132" y="1032" on="1"/>
        <pt x="197" y="1069" on="0"/>
        <pt x="414" y="1124" on="0"/>
        <pt x="520" y="1124" on="1"/>
        <pt x="644" y="1124" on="0"/>
        <pt x="815" y="1026" on="0"/>
        <pt x="837" y="932" on="1"/>
        <pt x="890" y="1027" on="0"/>
        <pt x="1079" y="1124" on="0"/>
        <pt x="1192" y="1124" on="1"/>
        <pt x="1291" y="1124" on="0"/>
        <pt x="1439" y="1051" on="0"/>
        <pt x="1525" y="925" on="0"/>
        <pt x="1566" y="772" on="0"/>
        <pt x="1566" y="684" on="1"/>
        <pt x="1566" y="606" on="0"/>
        <pt x="1493" y="540" on="0"/>
        <pt x="1379" y="534" on="1"/>
        <pt x="882" y="509" on="1"/>
        <pt x="895" y="322" on="0"/>
        <pt x="1042" y="119" on="0"/>
        <pt x="1194" y="119" on="1"/>
        <pt x="1282" y="119" on="0"/>
        <pt x="1454" y="185" on="0"/>
        <pt x="1517" y="229" on="1"/>
        <pt x="1569" y="108" on="1"/>
        <pt x="1415" y="-25" on="0"/>
        <pt x="1183" y="-25" on="1"/>
        <pt x="981" y="-25" on="0"/>
        <pt x="856" y="112" on="1"/>
        <pt x="761" y="53" on="0"/>
        <pt x="515" y="-26" on="0"/>
      </contour>
    </TTGlyph>
    <TTGlyph name="agrave" xMin="94" yMin="-23" xMax="953" yMax="1629">
      <component glyphName="grave" x="60" y="-9" flags="0x1004"/>
      <component glyphName="a" x="0" y="0" flags="0x1204"/>
    </TTGlyph>
    <TTGlyph name="amacron" xMin="94" yMin="-23" xMax="953" yMax="1364">
      <component glyphName="macron" x="-8" y="-261" flags="0x1004"/>
      <component glyphName="a" x="0" y="0" flags="0x1204"/>
    </TTGlyph>
    <TTGlyph name="ampersand" xMin="104" yMin="-23" xMax="1393" yMax="1489">
      <contour>
        <pt x="441" y="839" on="1"/>
        <pt x="348" y="940" on="0"/>
        <pt x="268" y="1076" on="0"/>
        <pt x="268" y="1165" on="1"/>
        <pt x="268" y="1314" on="0"/>
        <pt x="479" y="1489" on="0"/>
        <pt x="657" y="1489" on="1"/>
        <pt x="762" y="1489" on="0"/>
        <pt x="935" y="1424" on="0"/>
        <pt x="1046" y="1281" on="0"/>
        <pt x="1046" y="1182" on="1"/>
        <pt x="1046" y="1118" on="0"/>
        <pt x="995" y="1005" on="0"/>
        <pt x="898" y="913" on="0"/>
        <pt x="783" y="839" on="0"/>
        <pt x="707" y="804" on="1"/>
        <pt x="1108" y="375" on="1"/>
        <pt x="1188" y="459" on="0"/>
        <pt x="1250" y="599" on="1"/>
        <pt x="1371" y="507" on="1"/>
        <pt x="1309" y="371" on="0"/>
        <pt x="1212" y="257" on="1"/>
        <pt x="1393" y="41" on="1"/>
        <pt x="1319" y="13" on="0"/>
        <pt x="1236" y="-11" on="1"/>
        <pt x="1100" y="143" on="1"/>
        <pt x="894" y="-23" on="0"/>
        <pt x="620" y="-23" on="1"/>
        <pt x="367" y="-23" on="0"/>
        <pt x="104" y="198" on="0"/>
        <pt x="104" y="395" on="1"/>
        <pt x="104" y="548" on="0"/>
        <pt x="277" y="756" on="0"/>
      </contour>
      <contour>
        <pt x="544" y="726" on="1"/>
        <pt x="418" y="662" on="0"/>
        <pt x="281" y="510" on="0"/>
        <pt x="281" y="406" on="1"/>
        <pt x="281" y="277" on="0"/>
        <pt x="465" y="132" on="0"/>
        <pt x="629" y="132" on="1"/>
        <pt x="825" y="132" on="0"/>
        <pt x="985" y="259" on="1"/>
        <pt x="911" y="339" on="0"/>
        <pt x="618" y="647" on="0"/>
      </contour>
      <contour>
        <pt x="660" y="1345" on="1"/>
        <pt x="567" y="1345" on="0"/>
        <pt x="455" y="1250" on="0"/>
        <pt x="455" y="1165" on="1"/>
        <pt x="455" y="1097" on="0"/>
        <pt x="528" y="984" on="0"/>
        <pt x="605" y="910" on="1"/>
        <pt x="666" y="940" on="0"/>
        <pt x="741" y="984" on="0"/>
        <pt x="821" y="1049" on="0"/>
        <pt x="858" y="1125" on="0"/>
        <pt x="858" y="1171" on="1"/>
        <pt x="858" y="1254" on="0"/>
        <pt x="744" y="1345" on="0"/>
      </contour>
    </TTGlyph>
    <TTGlyph name="aogonek" xMin="94" yMin="-419" xMax="990" yMax="1120">
      <component glyphName="ogonek" x="522" y="0" flags="0x1004"/>
      <component glyphName="a" x="0" y="0" flags="0x1004"/>
    </TTGlyph>
    <TTGlyph name="approxequal" xMin="136" yMin="280" xMax="1178" yMax="988">
      <contour>
        <pt x="239" y="280" on="1"/>
        <pt x="138" y="312" on="1"/>
        <pt x="163" y="444" on="0"/>
        <pt x="311" y="589" on="0"/>
        <pt x="428" y="589" on="1"/>
        <pt x="490" y="589" on="0"/>
        <pt x="612" y="542" on="0"/>
        <pt x="687" y="500" on="1"/>
        <pt x="696" y="495" on="0"/>
        <pt x="743" y="468" on="0"/>
        <pt x="764" y="457" on="0"/>
        <pt x="803" y="436" on="0"/>
        <pt x="827" y="427" on="0"/>
        <pt x="859" y="416" on="0"/>
        <pt x="885" y="411" on="0"/>
        <pt x="898" y="411" on="1"/>
        <pt x="962" y="411" on="0"/>
        <pt x="1049" y="501" on="0"/>
        <pt x="1080" y="589" on="1"/>
        <pt x="1178" y="558" on="1"/>
        <pt x="1152" y="426" on="0"/>
        <pt x="1018" y="282" on="0"/>
        <pt x="895" y="282" on="1"/>
        <pt x="786" y="282" on="0"/>
        <pt x="615" y="385" on="1"/>
        <pt x="498" y="459" on="0"/>
        <pt x="427" y="459" on="1"/>
        <pt x="292" y="459" on="0"/>
      </contour>
      <contour>
        <pt x="239" y="684" on="1"/>
        <pt x="136" y="712" on="1"/>
        <pt x="160" y="842" on="0"/>
        <pt x="310" y="988" on="0"/>
        <pt x="427" y="988" on="1"/>
        <pt x="488" y="988" on="0"/>
        <pt x="609" y="941" on="0"/>
        <pt x="689" y="893" on="1"/>
        <pt x="762" y="849" on="0"/>
        <pt x="855" y="810" on="0"/>
        <pt x="896" y="810" on="1"/>
        <pt x="960" y="810" on="0"/>
        <pt x="1047" y="899" on="0"/>
        <pt x="1077" y="988" on="1"/>
        <pt x="1176" y="959" on="1"/>
        <pt x="1123" y="684" on="0"/>
        <pt x="892" y="684" on="1"/>
        <pt x="829" y="684" on="0"/>
        <pt x="700" y="733" on="0"/>
        <pt x="613" y="787" on="1"/>
        <pt x="498" y="860" on="0"/>
        <pt x="424" y="860" on="1"/>
        <pt x="286" y="860" on="0"/>
      </contour>
    </TTGlyph>
    <TTGlyph name="aring" xMin="94" yMin="-23" xMax="953" yMax="1746">
      <component glyphName="ring" x="307" y="1077" flags="0x1004"/>
      <component glyphName="a" x="0" y="0" flags="0x1204"/>
    </TTGlyph>
    <TTGlyph name="asciicircum" xMin="69" yMin="589" xMax="1086" yMax="1516">
      <contour>
        <pt x="69" y="589" on="1"/>
        <pt x="514" y="1516" on="1"/>
        <pt x="616" y="1516" on="1"/>
        <pt x="1086" y="589" on="1"/>
        <pt x="943" y="589" on="1"/>
        <pt x="565" y="1335" on="1"/>
        <pt x="214" y="589" on="1"/>
      </contour>
    </TTGlyph>
    <TTGlyph name="asciitilde" xMin="120" yMin="503" xMax="1137" yMax="815">
      <contour>
        <pt x="387" y="663" on="1"/>
        <pt x="323" y="663" on="0"/>
        <pt x="209" y="573" on="0"/>
        <pt x="172" y="503" on="1"/>
        <pt x="120" y="608" on="1"/>
        <pt x="158" y="697" on="0"/>
        <pt x="295" y="806" on="0"/>
        <pt x="391" y="806" on="1"/>
        <pt x="449" y="806" on="0"/>
        <pt x="557" y="775" on="0"/>
        <pt x="638" y="739" on="1"/>
        <pt x="647" y="735" on="0"/>
        <pt x="698" y="713" on="0"/>
        <pt x="717" y="704" on="0"/>
        <pt x="759" y="687" on="0"/>
        <pt x="780" y="679" on="0"/>
        <pt x="814" y="668" on="0"/>
        <pt x="836" y="663" on="0"/>
        <pt x="862" y="659" on="0"/>
        <pt x="873" y="659" on="1"/>
        <pt x="932" y="659" on="0"/>
        <pt x="1044" y="747" on="0"/>
        <pt x="1081" y="815" on="1"/>
        <pt x="1137" y="719" on="1"/>
        <pt x="1098" y="624" on="0"/>
        <pt x="962" y="517" on="0"/>
        <pt x="868" y="517" on="1"/>
        <pt x="779" y="517" on="0"/>
        <pt x="633" y="583" on="1"/>
        <pt x="568" y="613" on="0"/>
        <pt x="506" y="639" on="0"/>
        <pt x="421" y="663" on="0"/>
      </contour>
    </TTGlyph>
    <TTGlyph name="asterisk" xMin="87" yMin="581" xMax="1016" yMax="1522">
      <contour>
        <pt x="643" y="1522" on="1"/>
        <pt x="607" y="1111" on="1"/>
        <pt x="966" y="1262" on="1"/>
        <pt x="1016" y="1091" on="1"/>
        <pt x="649" y="1008" on="1"/>
        <pt x="660" y="993" on="0"/>
        <pt x="853" y="739" on="0"/>
        <pt x="901" y="675" on="1"/>
        <pt x="875" y="659" on="0"/>
        <pt x="773" y="597" on="0"/>
        <pt x="747" y="581" on="1"/>
        <pt x="547" y="943" on="1"/>
        <pt x="358" y="581" on="1"/>
        <pt x="202" y="675" on="1"/>
        <pt x="450" y="1008" on="1"/>
        <pt x="87" y="1091" on="1"/>
        <pt x="137" y="1262" on="1"/>
        <pt x="494" y="1111" on="1"/>
        <pt x="457" y="1522" on="1"/>
      </contour>
    </TTGlyph>
    <TTGlyph name="at" xMin="111" yMin="-131" xMax="1703" yMax="1492">
      <contour>
        <pt x="1703" y="784" on="1"/>
        <pt x="1703" y="667" on="0"/>
        <pt x="1632" y="465" on="0"/>
        <pt x="1515" y="333" on="0"/>
        <pt x="1367" y="259" on="0"/>
        <pt x="1290" y="259" on="1"/>
        <pt x="1209" y="259" on="0"/>
        <pt x="1101" y="349" on="0"/>
        <pt x="1090" y="430" on="1"/>
        <pt x="1045" y="366" on="0"/>
        <pt x="909" y="268" on="0"/>
        <pt x="822" y="268" on="1"/>
        <pt x="692" y="268" on="0"/>
        <pt x="538" y="455" on="0"/>
        <pt x="538" y="616" on="1"/>
        <pt x="538" y="823" on="0"/>
        <pt x="761" y="1099" on="0"/>
        <pt x="956" y="1099" on="1"/>
        <pt x="1099" y="1099" on="0"/>
        <pt x="1260" y="1044" on="1"/>
        <pt x="1253" y="994" on="0"/>
        <pt x="1224" y="805" on="0"/>
        <pt x="1209" y="697" on="0"/>
        <pt x="1195" y="565" on="0"/>
        <pt x="1195" y="523" on="1"/>
        <pt x="1195" y="381" on="0"/>
        <pt x="1306" y="381" on="1"/>
        <pt x="1407" y="381" on="0"/>
        <pt x="1572" y="622" on="0"/>
        <pt x="1572" y="791" on="1"/>
        <pt x="1572" y="1056" on="0"/>
        <pt x="1221" y="1368" on="0"/>
        <pt x="942" y="1368" on="1"/>
        <pt x="741" y="1368" on="0"/>
        <pt x="422" y="1182" on="0"/>
        <pt x="245" y="854" on="0"/>
        <pt x="245" y="649" on="1"/>
        <pt x="245" y="343" on="0"/>
        <pt x="594" y="-5" on="0"/>
        <pt x="886" y="-5" on="1"/>
        <pt x="1135" y="-5" on="0"/>
        <pt x="1332" y="108" on="1"/>
        <pt x="1367" y="-3" on="1"/>
        <pt x="1177" y="-131" on="0"/>
        <pt x="885" y="-131" on="1"/>
        <pt x="535" y="-131" on="0"/>
        <pt x="111" y="287" on="0"/>
        <pt x="111" y="645" on="1"/>
        <pt x="111" y="823" on="0"/>
        <pt x="236" y="1137" on="0"/>
        <pt x="455" y="1362" on="0"/>
        <pt x="769" y="1492" on="0"/>
        <pt x="951" y="1492" on="1"/>
        <pt x="1165" y="1492" on="0"/>
        <pt x="1505" y="1320" on="0"/>
        <pt x="1703" y="996" on="0"/>
      </contour>
      <contour>
        <pt x="680" y="609" on="1"/>
        <pt x="680" y="510" on="0"/>
        <pt x="761" y="396" on="0"/>
        <pt x="841" y="396" on="1"/>
        <pt x="947" y="396" on="0"/>
        <pt x="1057" y="571" on="0"/>
        <pt x="1077" y="730" on="1"/>
        <pt x="1086" y="801" on="0"/>
        <pt x="1103" y="958" on="1"/>
        <pt x="1046" y="978" on="0"/>
        <pt x="957" y="978" on="1"/>
        <pt x="865" y="978" on="0"/>
        <pt x="738" y="876" on="0"/>
        <pt x="680" y="713" on="0"/>
      </contour>
    </TTGlyph>
    <TTGlyph name="atilde" xMin="94" yMin="-23" xMax="953" yMax="1487">
      <component glyphName="tilde" x="-105" y="1128" flags="0x1004"/>
      <component glyphName="a" x="0" y="0" flags="0x1204"/>
    </TTGlyph>
    <TTGlyph name="b" xMin="148" yMin="-23" xMax="1123" yMax="1533">
      <contour>
        <pt x="642" y="981" on="1"/>
        <pt x="483" y="981" on="0"/>
        <pt x="314" y="762" on="0"/>
        <pt x="314" y="550" on="1"/>
        <pt x="314" y="116" on="0"/>
        <pt x="641" y="116" on="1"/>
        <pt x="722" y="116" on="0"/>
        <pt x="845" y="183" on="0"/>
        <pt x="916" y="304" on="0"/>
        <pt x="951" y="456" on="0"/>
        <pt x="951" y="549" on="1"/>
        <pt x="951" y="675" on="0"/>
        <pt x="892" y="863" on="0"/>
        <pt x="750" y="981" on="0"/>
      </contour>
      <contour>
        <pt x="659" y="1120" on="1"/>
        <pt x="805" y="1120" on="0"/>
        <pt x="1017" y="972" on="0"/>
        <pt x="1123" y="718" on="0"/>
        <pt x="1123" y="554" on="1"/>
        <pt x="1123" y="384" on="0"/>
        <pt x="1018" y="126" on="0"/>
        <pt x="805" y="-23" on="0"/>
        <pt x="657" y="-23" on="1"/>
        <pt x="548" y="-23" on="0"/>
        <pt x="368" y="71" on="0"/>
        <pt x="308" y="152" on="1"/>
        <pt x="291" y="0" on="1"/>
        <pt x="148" y="0" on="1"/>
        <pt x="148" y="1523" on="1"/>
        <pt x="315" y="1533" on="1"/>
        <pt x="315" y="1170" on="1"/>
        <pt x="315" y="1036" on="0"/>
        <pt x="311" y="940" on="1"/>
        <pt x="369" y="1023" on="0"/>
        <pt x="554" y="1120" on="0"/>
      </contour>
    </TTGlyph>
    <TTGlyph name="backslash" xMin="52" yMin="-60" xMax="807" yMax="1464">
      <contour>
        <pt x="208" y="1464" on="1"/>
        <pt x="807" y="-60" on="1"/>
        <pt x="651" y="-60" on="1"/>
        <pt x="52" y="1464" on="1"/>
      </contour>
    </TTGlyph>
    <TTGlyph name="bar" xMin="327" yMin="-400" xMax="472" yMax="1579">
      <contour>
        <pt x="327" y="1579" on="1"/>
        <pt x="472" y="1579" on="1"/>
        <pt x="472" y="-400" on="1"/>
        <pt x="327" y="-400" on="1"/>
      </contour>
    </TTGlyph>
    <TTGlyph name="braceleft" xMin="75" yMin="-281" xMax="641" yMax="1539">
      <contour>
        <pt x="454" y="84" on="1"/>
        <pt x="454" y="-44" on="0"/>
        <pt x="532" y="-142" on="0"/>
        <pt x="641" y="-143" on="1"/>
        <pt x="641" y="-281" on="1"/>
        <pt x="454" y="-280" on="0"/>
        <pt x="289" y="-114" on="0"/>
        <pt x="289" y="62" on="1"/>
        <pt x="289" y="269" on="1"/>
        <pt x="289" y="340" on="0"/>
        <pt x="274" y="434" on="0"/>
        <pt x="230" y="517" on="0"/>
        <pt x="143" y="556" on="0"/>
        <pt x="75" y="556" on="1"/>
        <pt x="75" y="701" on="1"/>
        <pt x="107" y="701" on="0"/>
        <pt x="158" y="707" on="0"/>
        <pt x="199" y="722" on="0"/>
        <pt x="230" y="736" on="0"/>
        <pt x="253" y="764" on="0"/>
        <pt x="269" y="786" on="0"/>
        <pt x="280" y="828" on="0"/>
        <pt x="286" y="859" on="0"/>
        <pt x="288" y="914" on="0"/>
        <pt x="289" y="953" on="0"/>
        <pt x="289" y="987" on="1"/>
        <pt x="289" y="1230" on="1"/>
        <pt x="289" y="1385" on="0"/>
        <pt x="468" y="1539" on="0"/>
        <pt x="641" y="1539" on="1"/>
        <pt x="641" y="1401" on="1"/>
        <pt x="532" y="1400" on="0"/>
        <pt x="454" y="1300" on="0"/>
        <pt x="454" y="1173" on="1"/>
        <pt x="454" y="908" on="1"/>
        <pt x="454" y="817" on="0"/>
        <pt x="365" y="684" on="0"/>
        <pt x="269" y="626" on="1"/>
        <pt x="364" y="596" on="0"/>
        <pt x="454" y="446" on="0"/>
        <pt x="454" y="349" on="1"/>
      </contour>
    </TTGlyph>
    <TTGlyph name="braceright" xMin="95" yMin="-281" xMax="662" yMax="1539">
      <contour>
        <pt x="466" y="632" on="1"/>
        <pt x="371" y="662" on="0"/>
        <pt x="282" y="811" on="0"/>
        <pt x="282" y="908" on="1"/>
        <pt x="282" y="1173" on="1"/>
        <pt x="282" y="1299" on="0"/>
        <pt x="203" y="1400" on="0"/>
        <pt x="95" y="1401" on="1"/>
        <pt x="95" y="1539" on="1"/>
        <pt x="279" y="1539" on="0"/>
        <pt x="447" y="1371" on="0"/>
        <pt x="447" y="1195" on="1"/>
        <pt x="447" y="987" on="1"/>
        <pt x="447" y="929" on="0"/>
        <pt x="455" y="852" on="0"/>
        <pt x="480" y="775" on="0"/>
        <pt x="526" y="730" on="0"/>
        <pt x="605" y="702" on="0"/>
        <pt x="662" y="701" on="1"/>
        <pt x="662" y="556" on="1"/>
        <pt x="607" y="556" on="0"/>
        <pt x="529" y="528" on="0"/>
        <pt x="482" y="482" on="0"/>
        <pt x="456" y="405" on="0"/>
        <pt x="447" y="325" on="0"/>
        <pt x="447" y="269" on="1"/>
        <pt x="447" y="27" on="1"/>
        <pt x="447" y="-279" on="0"/>
        <pt x="95" y="-281" on="1"/>
        <pt x="95" y="-143" on="1"/>
        <pt x="203" y="-142" on="0"/>
        <pt x="282" y="-44" on="0"/>
        <pt x="282" y="84" on="1"/>
        <pt x="282" y="349" on="1"/>
        <pt x="282" y="444" on="0"/>
        <pt x="360" y="561" on="0"/>
      </contour>
    </TTGlyph>
    <TTGlyph name="bracketleft" xMin="143" yMin="-293" xMax="596" yMax="1483">
      <contour>
        <pt x="596" y="-293" on="1"/>
        <pt x="143" y="-293" on="1"/>
        <pt x="143" y="1483" on="1"/>
        <pt x="596" y="1483" on="1"/>
        <pt x="596" y="1351" on="1"/>
        <pt x="316" y="1351" on="1"/>
        <pt x="316" y="-161" on="1"/>
        <pt x="596" y="-161" on="1"/>
      </contour>
    </TTGlyph>
    <TTGlyph name="bracketright" xMin="80" yMin="-293" xMax="533" yMax="1483">
      <contour>
        <pt x="80" y="-161" on="1"/>
        <pt x="360" y="-161" on="1"/>
        <pt x="360" y="1351" on="1"/>
        <pt x="80" y="1351" on="1"/>
        <pt x="80" y="1483" on="1"/>
        <pt x="533" y="1483" on="1"/>
        <pt x="533" y="-293" on="1"/>
        <pt x="80" y="-293" on="1"/>
      </contour>
    </TTGlyph>
    <TTGlyph name="breve" xMin="128" yMin="1299" xMax="630" yMax="1557">
      <contour>
        <pt x="377" y="1299" on="1"/>
        <pt x="277" y="1299" on="0"/>
        <pt x="128" y="1435" on="0"/>
        <pt x="128" y="1557" on="1"/>
        <pt x="244" y="1557" on="1"/>
        <pt x="244" y="1488" on="0"/>
        <pt x="319" y="1416" on="0"/>
        <pt x="435" y="1416" on="0"/>
        <pt x="513" y="1488" on="0"/>
        <pt x="513" y="1557" on="1"/>
        <pt x="630" y="1557" on="1"/>
        <pt x="630" y="1436" on="0"/>
        <pt x="478" y="1299" on="0"/>
      </contour>
    </TTGlyph>
    <TTGlyph name="brokenbar" xMin="322" yMin="-399" xMax="468" yMax="1579">
      <contour>
        <pt x="322" y="310" on="1"/>
        <pt x="468" y="310" on="1"/>
        <pt x="468" y="-399" on="1"/>
        <pt x="322" y="-399" on="1"/>
      </contour>
      <contour>
        <pt x="322" y="1579" on="1"/>
        <pt x="468" y="1579" on="1"/>
        <pt x="468" y="872" on="1"/>
        <pt x="322" y="872" on="1"/>
      </contour>
    </TTGlyph>
    <TTGlyph name="bullet" xMin="137" yMin="415" xMax="731" yMax="1086">
      <contour>
        <pt x="731" y="753" on="1"/>
        <pt x="731" y="615" on="0"/>
        <pt x="553" y="415" on="0"/>
        <pt x="432" y="415" on="1"/>
        <pt x="309" y="415" on="0"/>
        <pt x="137" y="611" on="0"/>
        <pt x="137" y="747" on="1"/>
        <pt x="137" y="884" on="0"/>
        <pt x="317" y="1086" on="0"/>
        <pt x="436" y="1086" on="1"/>
        <pt x="557" y="1086" on="0"/>
        <pt x="731" y="889" on="0"/>
      </contour>
    </TTGlyph>
    <TTGlyph name="c" xMin="92" yMin="-23" xMax="901" yMax="1120">
      <contour>
        <pt x="607" y="-23" on="1"/>
        <pt x="365" y="-23" on="0"/>
        <pt x="92" y="291" on="0"/>
        <pt x="92" y="545" on="1"/>
        <pt x="93" y="801" on="0"/>
        <pt x="370" y="1120" on="0"/>
        <pt x="611" y="1120" on="1"/>
        <pt x="696" y="1120" on="0"/>
        <pt x="855" y="1078" on="0"/>
        <pt x="901" y="1044" on="1"/>
        <pt x="855" y="914" on="1"/>
        <pt x="738" y="977" on="0"/>
        <pt x="608" y="977" on="1"/>
        <pt x="449" y="977" on="0"/>
        <pt x="264" y="745" on="0"/>
        <pt x="264" y="544" on="1"/>
        <pt x="264" y="348" on="0"/>
        <pt x="447" y="119" on="0"/>
        <pt x="609" y="119" on="1"/>
        <pt x="738" y="119" on="0"/>
        <pt x="873" y="189" on="1"/>
        <pt x="894" y="56" on="1"/>
        <pt x="785" y="-23" on="0"/>
      </contour>
    </TTGlyph>
    <TTGlyph name="cacute" xMin="92" yMin="-23" xMax="901" yMax="1630">
      <component glyphName="acute" x="312" y="-8" flags="0x1004"/>
      <component glyphName="c" x="0" y="0" flags="0x1204"/>
    </TTGlyph>
    <TTGlyph name="caron" xMin="108" yMin="1251" xMax="695" yMax="1639">
      <contour>
        <pt x="108" y="1639" on="1"/>
        <pt x="239" y="1639" on="1"/>
        <pt x="400" y="1327" on="1"/>
        <pt x="561" y="1639" on="1"/>
        <pt x="695" y="1639" on="1"/>
        <pt x="508" y="1251" on="1"/>
        <pt x="295" y="1251" on="1"/>
      </contour>
    </TTGlyph>
    <TTGlyph name="ccaron" xMin="92" yMin="-23" xMax="901" yMax="1630">
      <component glyphName="caron" x="95" y="-9" flags="0x1004"/>
      <component glyphName="c" x="0" y="0" flags="0x1204"/>
    </TTGlyph>
    <TTGlyph name="ccedilla" xMin="92" yMin="-435" xMax="901" yMax="1120">
      <component glyphName="cedilla" x="228" y="-25" flags="0x1004"/>
      <component glyphName="c" x="0" y="0" flags="0x1204"/>
    </TTGlyph>
    <TTGlyph name="ccircumflex" xMin="92" yMin="-23" xMax="901" yMax="1630">
      <component glyphName="circumflex" x="95" y="-9" flags="0x1004"/>
      <component glyphName="c" x="0" y="0" flags="0x1204"/>
    </TTGlyph>
    <TTGlyph name="cdotaccent" xMin="92" yMin="-23" xMax="901" yMax="1440">
      <component glyphName="uni0307" x="290" y="-56" flags="0x1004"/>
      <component glyphName="c" x="0" y="0" flags="0x1204"/>
    </TTGlyph>
    <TTGlyph name="cedilla" xMin="114" yMin="-410" xMax="312" yMax="16">
      <contour>
        <pt x="268" y="-410" on="1"/>
        <pt x="114" y="-410" on="1"/>
        <pt x="226" y="16" on="1"/>
        <pt x="312" y="16" on="1"/>
      </contour>
    </TTGlyph>
    <TTGlyph name="cent" xMin="70" yMin="1" xMax="897" yMax="1496">
      <contour>
        <pt x="547" y="1496" on="1"/>
        <pt x="642" y="1496" on="1"/>
        <pt x="642" y="1314" on="1"/>
        <pt x="809" y="1303" on="0"/>
        <pt x="896" y="1221" on="1"/>
        <pt x="854" y="1102" on="1"/>
        <pt x="759" y="1166" on="0"/>
        <pt x="642" y="1176" on="1"/>
        <pt x="642" y="307" on="1"/>
        <pt x="755" y="318" on="0"/>
        <pt x="855" y="388" on="1"/>
        <pt x="897" y="268" on="1"/>
        <pt x="803" y="182" on="0"/>
        <pt x="642" y="170" on="1"/>
        <pt x="642" y="1" on="1"/>
        <pt x="547" y="1" on="1"/>
        <pt x="547" y="170" on="1"/>
        <pt x="398" y="183" on="0"/>
        <pt x="178" y="347" on="0"/>
        <pt x="70" y="595" on="0"/>
        <pt x="70" y="742" on="1"/>
        <pt x="71" y="850" on="0"/>
        <pt x="137" y="1048" on="0"/>
        <pt x="257" y="1204" on="0"/>
        <pt x="439" y="1305" on="0"/>
        <pt x="547" y="1314" on="1"/>
      </contour>
      <contour>
        <pt x="547" y="310" on="1"/>
        <pt x="547" y="1174" on="1"/>
        <pt x="413" y="1154" on="0"/>
        <pt x="241" y="910" on="0"/>
        <pt x="241" y="737" on="1"/>
        <pt x="241" y="566" on="0"/>
        <pt x="408" y="332" on="0"/>
      </contour>
    </TTGlyph>
    <TTGlyph name="circumflex" xMin="108" yMin="1251" xMax="695" yMax="1639">
      <contour>
        <pt x="108" y="1251" on="1"/>
        <pt x="295" y="1639" on="1"/>
        <pt x="508" y="1639" on="1"/>
        <pt x="695" y="1251" on="1"/>
        <pt x="561" y="1251" on="1"/>
        <pt x="400" y="1523" on="1"/>
        <pt x="239" y="1251" on="1"/>
      </contour>
    </TTGlyph>
    <TTGlyph name="colon" xMin="146" yMin="-25" xMax="352" yMax="1124">
      <contour>
        <pt x="146" y="893" on="1"/>
        <pt x="146" y="1124" on="1"/>
        <pt x="352" y="1124" on="1"/>
        <pt x="352" y="893" on="1"/>
      </contour>
      <contour>
        <pt x="146" y="-25" on="1"/>
        <pt x="146" y="208" on="1"/>
        <pt x="352" y="208" on="1"/>
        <pt x="352" y="-25" on="1"/>
      </contour>
    </TTGlyph>
    <TTGlyph name="comma" xMin="109" yMin="-278" xMax="358" yMax="234">
      <contour>
        <pt x="109" y="-278" on="1"/>
        <pt x="112" y="-249" on="0"/>
        <pt x="141" y="0" on="0"/>
        <pt x="157" y="170" on="0"/>
        <pt x="161" y="234" on="1"/>
        <pt x="358" y="234" on="1"/>
        <pt x="358" y="190" on="1"/>
        <pt x="309" y="-8" on="0"/>
        <pt x="214" y="-278" on="1"/>
      </contour>
    </TTGlyph>
    <TTGlyph name="copyright" xMin="117" yMin="-26" xMax="1701" yMax="1586">
      <contour>
        <pt x="1701" y="781" on="1"/>
        <pt x="1701" y="624" on="0"/>
        <pt x="1614" y="358" on="0"/>
        <pt x="1464" y="169" on="0"/>
        <pt x="1261" y="37" on="0"/>
        <pt x="1028" y="-26" on="0"/>
        <pt x="902" y="-26" on="1"/>
        <pt x="783" y="-26" on="0"/>
        <pt x="557" y="37" on="0"/>
        <pt x="356" y="170" on="0"/>
        <pt x="205" y="357" on="0"/>
        <pt x="117" y="624" on="0"/>
        <pt x="117" y="781" on="1"/>
        <pt x="117" y="937" on="0"/>
        <pt x="204" y="1203" on="0"/>
        <pt x="353" y="1391" on="0"/>
        <pt x="553" y="1523" on="0"/>
        <pt x="778" y="1586" on="0"/>
        <pt x="897" y="1586" on="1"/>
        <pt x="1023" y="1586" on="0"/>
        <pt x="1257" y="1522" on="0"/>
        <pt x="1462" y="1390" on="0"/>
        <pt x="1613" y="1202" on="0"/>
        <pt x="1701" y="937" on="0"/>
      </contour>
      <contour>
        <pt x="902" y="67" on="1"/>
        <pt x="1067" y="67" on="0"/>
        <pt x="1331" y="179" on="0"/>
        <pt x="1499" y="374" on="0"/>
        <pt x="1588" y="630" on="0"/>
        <pt x="1588" y="926" on="0"/>
        <pt x="1498" y="1183" on="0"/>
        <pt x="1328" y="1380" on="0"/>
        <pt x="1062" y="1493" on="0"/>
        <pt x="897" y="1493" on="1"/>
        <pt x="740" y="1493" on="0"/>
        <pt x="485" y="1380" on="0"/>
        <pt x="319" y="1185" on="0"/>
        <pt x="230" y="929" on="0"/>
        <pt x="230" y="783" on="1"/>
        <pt x="230" y="634" on="0"/>
        <pt x="320" y="375" on="0"/>
        <pt x="486" y="180" on="0"/>
        <pt x="744" y="67" on="0"/>
      </contour>
      <contour>
        <pt x="1191" y="459" on="1"/>
        <pt x="1230" y="352" on="1"/>
        <pt x="1175" y="317" on="0"/>
        <pt x="999" y="270" on="0"/>
        <pt x="909" y="270" on="1"/>
        <pt x="703" y="270" on="0"/>
        <pt x="434" y="562" on="0"/>
        <pt x="434" y="785" on="1"/>
        <pt x="434" y="1010" on="0"/>
        <pt x="702" y="1301" on="0"/>
        <pt x="919" y="1301" on="1"/>
        <pt x="1098" y="1301" on="0"/>
        <pt x="1227" y="1211" on="1"/>
        <pt x="1167" y="1114" on="1"/>
        <pt x="1122" y="1146" on="0"/>
        <pt x="982" y="1182" on="0"/>
        <pt x="910" y="1182" on="1"/>
        <pt x="825" y="1182" on="0"/>
        <pt x="692" y="1118" on="0"/>
        <pt x="611" y="1008" on="0"/>
        <pt x="570" y="869" on="0"/>
        <pt x="570" y="789" on="1"/>
        <pt x="570" y="610" on="0"/>
        <pt x="752" y="387" on="0"/>
        <pt x="929" y="387" on="1"/>
        <pt x="997" y="387" on="0"/>
        <pt x="1148" y="429" on="0"/>
      </contour>
    </TTGlyph>
    <TTGlyph name="currency" xMin="55" yMin="232" xMax="1095" yMax="1232">
      <contour>
        <pt x="267" y="860" on="0"/>
        <pt x="267" y="604" on="0"/>
        <pt x="448" y="423" on="0"/>
        <pt x="576" y="423" on="1"/>
        <pt x="705" y="423" on="0"/>
        <pt x="886" y="604" on="0"/>
        <pt x="886" y="860" on="0"/>
        <pt x="704" y="1042" on="0"/>
        <pt x="448" y="1042" on="0"/>
      </contour>
      <contour>
        <pt x="158" y="732" on="1"/>
        <pt x="158" y="867" on="0"/>
        <pt x="241" y="981" on="1"/>
        <pt x="55" y="1160" on="1"/>
        <pt x="129" y="1232" on="1"/>
        <pt x="313" y="1057" on="1"/>
        <pt x="426" y="1150" on="0"/>
        <pt x="576" y="1150" on="1"/>
        <pt x="724" y="1150" on="0"/>
        <pt x="838" y="1056" on="1"/>
        <pt x="1025" y="1232" on="1"/>
        <pt x="1095" y="1158" on="1"/>
        <pt x="911" y="981" on="1"/>
        <pt x="994" y="864" on="0"/>
        <pt x="994" y="732" on="1"/>
        <pt x="994" y="592" on="0"/>
        <pt x="912" y="482" on="1"/>
        <pt x="1094" y="306" on="1"/>
        <pt x="1025" y="232" on="1"/>
        <pt x="838" y="408" on="1"/>
        <pt x="723" y="315" on="0"/>
        <pt x="576" y="315" on="1"/>
        <pt x="425" y="315" on="0"/>
        <pt x="313" y="408" on="1"/>
        <pt x="129" y="233" on="1"/>
        <pt x="56" y="305" on="1"/>
        <pt x="241" y="482" on="1"/>
        <pt x="158" y="595" on="0"/>
      </contour>
    </TTGlyph>
    <TTGlyph name="d" xMin="92" yMin="-22" xMax="1064" yMax="1533">
      <contour>
        <pt x="571" y="121" on="1"/>
        <pt x="736" y="121" on="0"/>
        <pt x="897" y="333" on="0"/>
        <pt x="897" y="530" on="1"/>
        <pt x="897" y="752" on="0"/>
        <pt x="742" y="977" on="0"/>
        <pt x="569" y="977" on="1"/>
        <pt x="492" y="977" on="0"/>
        <pt x="374" y="911" on="0"/>
        <pt x="302" y="793" on="0"/>
        <pt x="265" y="640" on="0"/>
        <pt x="265" y="549" on="1"/>
        <pt x="265" y="421" on="0"/>
        <pt x="328" y="233" on="0"/>
        <pt x="468" y="121" on="0"/>
      </contour>
      <contour>
        <pt x="900" y="159" on="1"/>
        <pt x="846" y="76" on="0"/>
        <pt x="666" y="-22" on="0"/>
        <pt x="555" y="-22" on="1"/>
        <pt x="338" y="-22" on="0"/>
        <pt x="92" y="287" on="0"/>
        <pt x="92" y="553" on="1"/>
        <pt x="92" y="807" on="0"/>
        <pt x="342" y="1120" on="0"/>
        <pt x="552" y="1120" on="1"/>
        <pt x="661" y="1120" on="0"/>
        <pt x="854" y="1025" on="0"/>
        <pt x="902" y="945" on="1"/>
        <pt x="899" y="1040" on="1"/>
        <pt x="899" y="1523" on="1"/>
        <pt x="1064" y="1533" on="1"/>
        <pt x="1064" y="0" on="1"/>
        <pt x="922" y="0" on="1"/>
      </contour>
    </TTGlyph>
    <TTGlyph name="dagger" xMin="71" yMin="121" xMax="806" yMax="1561">
      <contour>
        <pt x="369" y="121" on="1"/>
        <pt x="369" y="1047" on="1"/>
        <pt x="71" y="1047" on="1"/>
        <pt x="71" y="1149" on="1"/>
        <pt x="369" y="1149" on="1"/>
        <pt x="369" y="1561" on="1"/>
        <pt x="499" y="1561" on="1"/>
        <pt x="499" y="1149" on="1"/>
        <pt x="806" y="1149" on="1"/>
        <pt x="806" y="1047" on="1"/>
        <pt x="499" y="1047" on="1"/>
        <pt x="499" y="121" on="1"/>
      </contour>
    </TTGlyph>
    <TTGlyph name="daggerdbl" xMin="107" yMin="110" xMax="850" yMax="1550">
      <contour>
        <pt x="413" y="110" on="1"/>
        <pt x="413" y="467" on="1"/>
        <pt x="107" y="467" on="1"/>
        <pt x="107" y="604" on="1"/>
        <pt x="413" y="604" on="1"/>
        <pt x="413" y="1059" on="1"/>
        <pt x="112" y="1059" on="1"/>
        <pt x="112" y="1199" on="1"/>
        <pt x="413" y="1199" on="1"/>
        <pt x="413" y="1550" on="1"/>
        <pt x="543" y="1550" on="1"/>
        <pt x="543" y="1199" on="1"/>
        <pt x="850" y="1199" on="1"/>
        <pt x="850" y="1059" on="1"/>
        <pt x="543" y="1059" on="1"/>
        <pt x="543" y="604" on="1"/>
        <pt x="843" y="604" on="1"/>
        <pt x="843" y="467" on="1"/>
        <pt x="543" y="467" on="1"/>
        <pt x="543" y="110" on="1"/>
      </contour>
    </TTGlyph>
    <TTGlyph name="dcaron" xMin="92" yMin="-22" xMax="1496" yMax="1533">
      <component glyphName="comma" x="1138" y="1299" flags="0x1004"/>
      <component glyphName="d" x="0" y="0" flags="0x1004"/>
    </TTGlyph>
    <TTGlyph name="dcroat" xMin="70" yMin="-24" xMax="1166" yMax="1510">
      <contour>
        <pt x="541" y="-24" on="1"/>
        <pt x="323" y="-24" on="0"/>
        <pt x="70" y="299" on="0"/>
        <pt x="70" y="561" on="1"/>
        <pt x="70" y="716" on="0"/>
        <pt x="185" y="973" on="0"/>
        <pt x="399" y="1125" on="0"/>
        <pt x="535" y="1125" on="1"/>
        <pt x="646" y="1125" on="0"/>
        <pt x="839" y="1023" on="0"/>
        <pt x="881" y="937" on="1"/>
        <pt x="881" y="1199" on="1"/>
        <pt x="658" y="1199" on="1"/>
        <pt x="658" y="1341" on="1"/>
        <pt x="881" y="1341" on="1"/>
        <pt x="881" y="1490" on="1"/>
        <pt x="1049" y="1510" on="1"/>
        <pt x="1049" y="1341" on="1"/>
        <pt x="1166" y="1341" on="1"/>
        <pt x="1166" y="1199" on="1"/>
        <pt x="1049" y="1199" on="1"/>
        <pt x="1049" y="0" on="1"/>
        <pt x="900" y="0" on="1"/>
        <pt x="879" y="172" on="1"/>
        <pt x="830" y="84" on="0"/>
        <pt x="651" y="-24" on="0"/>
      </contour>
      <contour>
        <pt x="552" y="124" on="1"/>
        <pt x="713" y="124" on="0"/>
        <pt x="882" y="364" on="0"/>
        <pt x="882" y="551" on="1"/>
        <pt x="882" y="641" on="0"/>
        <pt x="843" y="793" on="0"/>
        <pt x="765" y="911" on="0"/>
        <pt x="635" y="977" on="0"/>
        <pt x="550" y="977" on="1"/>
        <pt x="470" y="977" on="0"/>
        <pt x="347" y="903" on="0"/>
        <pt x="277" y="778" on="0"/>
        <pt x="243" y="634" on="0"/>
        <pt x="243" y="556" on="1"/>
        <pt x="243" y="470" on="0"/>
        <pt x="277" y="321" on="0"/>
        <pt x="347" y="196" on="0"/>
        <pt x="470" y="124" on="0"/>
      </contour>
    </TTGlyph>
    <TTGlyph name="degree" xMin="112" yMin="889" xMax="735" yMax="1519">
      <contour>
        <pt x="235" y="1286" on="0"/>
        <pt x="235" y="1124" on="0"/>
        <pt x="346" y="1010" on="0"/>
        <pt x="502" y="1010" on="0"/>
        <pt x="613" y="1124" on="0"/>
        <pt x="613" y="1286" on="0"/>
        <pt x="502" y="1399" on="0"/>
        <pt x="424" y="1399" on="1"/>
        <pt x="347" y="1399" on="0"/>
      </contour>
      <contour>
        <pt x="112" y="1075" on="0"/>
        <pt x="112" y="1335" on="0"/>
        <pt x="295" y="1519" on="0"/>
        <pt x="551" y="1519" on="0"/>
        <pt x="735" y="1335" on="0"/>
        <pt x="735" y="1205" on="1"/>
        <pt x="735" y="1077" on="0"/>
        <pt x="553" y="889" on="0"/>
        <pt x="423" y="889" on="1"/>
        <pt x="295" y="889" on="0"/>
      </contour>
    </TTGlyph>
    <TTGlyph name="dieresis" xMin="118" yMin="1254" xMax="663" yMax="1466">
      <contour>
        <pt x="663" y="1254" on="1"/>
        <pt x="508" y="1254" on="1"/>
        <pt x="508" y="1466" on="1"/>
        <pt x="663" y="1466" on="1"/>
      </contour>
      <contour>
        <pt x="272" y="1254" on="1"/>
        <pt x="118" y="1254" on="1"/>
        <pt x="118" y="1466" on="1"/>
        <pt x="272" y="1466" on="1"/>
      </contour>
    </TTGlyph>
    <TTGlyph name="divide" xMin="97" yMin="22" xMax="1098" yMax="1166">
      <contour>
        <pt x="1098" y="523" on="1"/>
        <pt x="97" y="523" on="1"/>
        <pt x="97" y="672" on="1"/>
        <pt x="1098" y="672" on="1"/>
      </contour>
      <contour>
        <pt x="716" y="1166" on="1"/>
        <pt x="716" y="939" on="1"/>
        <pt x="491" y="939" on="1"/>
        <pt x="491" y="1166" on="1"/>
      </contour>
      <contour>
        <pt x="682" y="249" on="1"/>
        <pt x="682" y="22" on="1"/>
        <pt x="491" y="22" on="1"/>
        <pt x="491" y="249" on="1"/>
      </contour>
    </TTGlyph>
    <TTGlyph name="dollar" xMin="94" yMin="-195" xMax="1145" yMax="1693">
      <contour>
        <pt x="580" y="1693" on="1"/>
        <pt x="675" y="1693" on="1"/>
        <pt x="675" y="1525" on="1"/>
        <pt x="930" y="1517" on="0"/>
        <pt x="1089" y="1418" on="1"/>
        <pt x="1039" y="1277" on="1"/>
        <pt x="978" y="1311" on="0"/>
        <pt x="779" y="1366" on="0"/>
        <pt x="675" y="1371" on="1"/>
        <pt x="675" y="863" on="1"/>
        <pt x="779" y="838" on="1"/>
        <pt x="959" y="795" on="0"/>
        <pt x="1145" y="606" on="0"/>
        <pt x="1145" y="432" on="1"/>
        <pt x="1145" y="217" on="0"/>
        <pt x="894" y="-11" on="0"/>
        <pt x="675" y="-22" on="1"/>
        <pt x="675" y="-195" on="1"/>
        <pt x="580" y="-195" on="1"/>
        <pt x="580" y="-22" on="1"/>
        <pt x="420" y="-17" on="0"/>
        <pt x="169" y="54" on="0"/>
        <pt x="94" y="100" on="1"/>
        <pt x="146" y="244" on="1"/>
        <pt x="348" y="145" on="0"/>
        <pt x="580" y="132" on="1"/>
        <pt x="580" y="712" on="1"/>
        <pt x="433" y="749" on="1"/>
        <pt x="96" y="834" on="0"/>
        <pt x="96" y="1109" on="1"/>
        <pt x="96" y="1306" on="0"/>
        <pt x="352" y="1511" on="0"/>
        <pt x="580" y="1523" on="1"/>
      </contour>
      <contour>
        <pt x="580" y="886" on="1"/>
        <pt x="580" y="1370" on="1"/>
        <pt x="276" y="1352" on="0"/>
        <pt x="276" y="1121" on="1"/>
        <pt x="276" y="1036" on="0"/>
        <pt x="387" y="933" on="0"/>
        <pt x="498" y="906" on="1"/>
      </contour>
      <contour>
        <pt x="675" y="688" on="1"/>
        <pt x="675" y="131" on="1"/>
        <pt x="966" y="146" on="0"/>
        <pt x="966" y="426" on="1"/>
        <pt x="966" y="522" on="0"/>
        <pt x="863" y="641" on="0"/>
        <pt x="727" y="675" on="1"/>
      </contour>
    </TTGlyph>
    <TTGlyph name="dotaccent" xMin="-84" yMin="102" xMax="84" yMax="300">
      <component glyphName="uni0307" x="-206" y="-1196" flags="0x1004"/>
    </TTGlyph>
    <TTGlyph name="dotlessi" xMin="135" yMin="0" xMax="304" yMax="1098">
      <contour>
        <pt x="304" y="1098" on="1"/>
        <pt x="304" y="0" on="1"/>
        <pt x="135" y="0" on="1"/>
        <pt x="135" y="1098" on="1"/>
      </contour>
    </TTGlyph>
    <TTGlyph name="e" xMin="93" yMin="-23" xMax="1019" yMax="1120">
      <contour>
        <pt x="702" y="982" on="0"/>
        <pt x="446" y="982" on="0"/>
        <pt x="284" y="801" on="0"/>
        <pt x="270" y="644" on="1"/>
        <pt x="849" y="644" on="1"/>
        <pt x="849" y="807" on="0"/>
      </contour>
      <contour>
        <pt x="607" y="-23" on="1"/>
        <pt x="368" y="-23" on="0"/>
        <pt x="93" y="281" on="0"/>
        <pt x="93" y="545" on="1"/>
        <pt x="93" y="800" on="0"/>
        <pt x="359" y="1117" on="0"/>
        <pt x="576" y="1120" on="1"/>
        <pt x="780" y="1120" on="0"/>
        <pt x="1019" y="841" on="0"/>
        <pt x="1019" y="608" on="1"/>
        <pt x="1019" y="596" on="0"/>
        <pt x="1018" y="532" on="0"/>
        <pt x="1018" y="518" on="1"/>
        <pt x="265" y="518" on="1"/>
        <pt x="268" y="331" on="0"/>
        <pt x="455" y="122" on="0"/>
        <pt x="613" y="122" on="1"/>
        <pt x="787" y="122" on="0"/>
        <pt x="962" y="214" on="1"/>
        <pt x="988" y="79" on="1"/>
        <pt x="821" y="-23" on="0"/>
      </contour>
    </TTGlyph>
    <TTGlyph name="eacute" xMin="93" yMin="-23" xMax="1019" yMax="1630">
      <component glyphName="acute" x="371" y="-8" flags="0x1004"/>
      <component glyphName="e" x="0" y="0" flags="0x1204"/>
    </TTGlyph>
    <TTGlyph name="ecaron" xMin="93" yMin="-23" xMax="1019" yMax="1630">
      <component glyphName="caron" x="154" y="-9" flags="0x1004"/>
      <component glyphName="e" x="0" y="0" flags="0x1204"/>
    </TTGlyph>
    <TTGlyph name="ecircumflex" xMin="93" yMin="-23" xMax="1019" yMax="1630">
      <component glyphName="circumflex" x="154" y="-9" flags="0x1004"/>
      <component glyphName="e" x="0" y="0" flags="0x1204"/>
    </TTGlyph>
    <TTGlyph name="edieresis" xMin="93" yMin="-23" xMax="1019" yMax="1454">
      <component glyphName="dieresis" x="166" y="-12" flags="0x1004"/>
      <component glyphName="e" x="0" y="0" flags="0x1204"/>
    </TTGlyph>
    <TTGlyph name="edotaccent" xMin="93" yMin="-23" xMax="1019" yMax="1440">
      <component glyphName="uni0307" x="350" y="-56" flags="0x1004"/>
      <component glyphName="e" x="0" y="0" flags="0x1204"/>
    </TTGlyph>
    <TTGlyph name="egrave" xMin="93" yMin="-23" xMax="1019" yMax="1629">
      <component glyphName="grave" x="92" y="-9" flags="0x1004"/>
      <component glyphName="e" x="0" y="0" flags="0x1204"/>
    </TTGlyph>
    <TTGlyph name="eight" xMin="103" yMin="-23" xMax="1080" yMax="1525">
      <contour>
        <pt x="594" y="-23" on="1"/>
        <pt x="458" y="-23" on="0"/>
        <pt x="239" y="68" on="0"/>
        <pt x="103" y="256" on="0"/>
        <pt x="103" y="385" on="1"/>
        <pt x="103" y="528" on="0"/>
        <pt x="267" y="740" on="0"/>
        <pt x="414" y="788" on="1"/>
        <pt x="134" y="887" on="0"/>
        <pt x="134" y="1148" on="1"/>
        <pt x="134" y="1325" on="0"/>
        <pt x="390" y="1525" on="0"/>
        <pt x="594" y="1525" on="1"/>
        <pt x="797" y="1525" on="0"/>
        <pt x="1049" y="1325" on="0"/>
        <pt x="1049" y="1148" on="1"/>
        <pt x="1049" y="1016" on="0"/>
        <pt x="913" y="836" on="0"/>
        <pt x="791" y="788" on="1"/>
        <pt x="926" y="740" on="0"/>
        <pt x="1080" y="528" on="0"/>
        <pt x="1080" y="385" on="1"/>
        <pt x="1080" y="193" on="0"/>
        <pt x="803" y="-23" on="0"/>
      </contour>
      <contour>
        <pt x="594" y="703" on="1"/>
        <pt x="451" y="670" on="0"/>
        <pt x="279" y="515" on="0"/>
        <pt x="279" y="397" on="1"/>
        <pt x="279" y="274" on="0"/>
        <pt x="457" y="129" on="0"/>
        <pt x="731" y="129" on="0"/>
        <pt x="904" y="274" on="0"/>
        <pt x="904" y="397" on="1"/>
        <pt x="904" y="516" on="0"/>
        <pt x="736" y="671" on="0"/>
      </contour>
      <contour>
        <pt x="594" y="1373" on="1"/>
        <pt x="476" y="1373" on="0"/>
        <pt x="311" y="1255" on="0"/>
        <pt x="311" y="1152" on="1"/>
        <pt x="311" y="916" on="0"/>
        <pt x="594" y="853" on="1"/>
        <pt x="873" y="916" on="0"/>
        <pt x="873" y="1152" on="1"/>
        <pt x="873" y="1255" on="0"/>
        <pt x="711" y="1373" on="0"/>
      </contour>
    </TTGlyph>
    <TTGlyph name="ellipsis" xMin="128" yMin="-12" xMax="1382" yMax="252">
      <contour>
        <pt x="261" y="-12" on="1"/>
        <pt x="199" y="-12" on="0"/>
        <pt x="128" y="67" on="0"/>
        <pt x="128" y="120" on="1"/>
        <pt x="128" y="174" on="0"/>
        <pt x="198" y="252" on="0"/>
        <pt x="324" y="252" on="0"/>
        <pt x="394" y="174" on="0"/>
        <pt x="394" y="66" on="0"/>
        <pt x="324" y="-12" on="0"/>
      </contour>
      <contour>
        <pt x="755" y="-12" on="1"/>
        <pt x="693" y="-12" on="0"/>
        <pt x="622" y="67" on="0"/>
        <pt x="622" y="120" on="1"/>
        <pt x="622" y="174" on="0"/>
        <pt x="692" y="252" on="0"/>
        <pt x="818" y="252" on="0"/>
        <pt x="888" y="174" on="0"/>
        <pt x="888" y="66" on="0"/>
        <pt x="818" y="-12" on="0"/>
      </contour>
      <contour>
        <pt x="1249" y="-12" on="1"/>
        <pt x="1187" y="-12" on="0"/>
        <pt x="1116" y="67" on="0"/>
        <pt x="1116" y="120" on="1"/>
        <pt x="1116" y="174" on="0"/>
        <pt x="1186" y="252" on="0"/>
        <pt x="1312" y="252" on="0"/>
        <pt x="1382" y="174" on="0"/>
        <pt x="1382" y="66" on="0"/>
        <pt x="1312" y="-12" on="0"/>
      </contour>
    </TTGlyph>
    <TTGlyph name="emacron" xMin="93" yMin="-23" xMax="1019" yMax="1364">
      <component glyphName="macron" x="25" y="-261" flags="0x1004"/>
      <component glyphName="e" x="0" y="0" flags="0x1204"/>
    </TTGlyph>
    <TTGlyph name="emdash" xMin="139" yMin="527" xMax="2296" yMax="675">
      <contour>
        <pt x="2296" y="675" on="1"/>
        <pt x="2296" y="527" on="1"/>
        <pt x="139" y="527" on="1"/>
        <pt x="139" y="675" on="1"/>
      </contour>
    </TTGlyph>
    <TTGlyph name="endash" xMin="139" yMin="527" xMax="1186" yMax="675">
      <contour>
        <pt x="1186" y="675" on="1"/>
        <pt x="1186" y="527" on="1"/>
        <pt x="139" y="527" on="1"/>
        <pt x="139" y="675" on="1"/>
      </contour>
    </TTGlyph>
    <TTGlyph name="eogonek" xMin="93" yMin="-433" xMax="1019" yMax="1120">
      <component glyphName="ogonek" x="336" y="-14" flags="0x1004"/>
      <component glyphName="e" x="0" y="0" flags="0x1204"/>
    </TTGlyph>
    <TTGlyph name="equal" xMin="131" yMin="377" xMax="1097" yMax="943">
      <contour>
        <pt x="132" y="377" on="1"/>
        <pt x="132" y="519" on="1"/>
        <pt x="1097" y="519" on="1"/>
        <pt x="1097" y="377" on="1"/>
      </contour>
      <contour>
        <pt x="131" y="799" on="1"/>
        <pt x="131" y="943" on="1"/>
        <pt x="1097" y="943" on="1"/>
        <pt x="1097" y="799" on="1"/>
      </contour>
    </TTGlyph>
    <TTGlyph name="eth" xMin="87" yMin="-25" xMax="1117" yMax="1588">
      <contour>
        <pt x="603" y="833" on="1"/>
        <pt x="449" y="833" on="0"/>
        <pt x="269" y="633" on="0"/>
        <pt x="269" y="485" on="1"/>
        <pt x="269" y="386" on="0"/>
        <pt x="342" y="222" on="0"/>
        <pt x="500" y="114" on="0"/>
        <pt x="609" y="114" on="1"/>
        <pt x="766" y="114" on="0"/>
        <pt x="945" y="316" on="0"/>
        <pt x="945" y="472" on="1"/>
        <pt x="945" y="541" on="0"/>
        <pt x="900" y="669" on="0"/>
        <pt x="816" y="771" on="0"/>
        <pt x="683" y="833" on="0"/>
      </contour>
      <contour>
        <pt x="569" y="972" on="1"/>
        <pt x="715" y="972" on="0"/>
        <pt x="844" y="877" on="1"/>
        <pt x="761" y="1035" on="0"/>
        <pt x="541" y="1257" on="1"/>
        <pt x="269" y="1145" on="1"/>
        <pt x="226" y="1277" on="1"/>
        <pt x="446" y="1364" on="1"/>
        <pt x="210" y="1588" on="1"/>
        <pt x="433" y="1588" on="1"/>
        <pt x="579" y="1429" on="1"/>
        <pt x="868" y="1542" on="1"/>
        <pt x="914" y="1413" on="1"/>
        <pt x="672" y="1320" on="1"/>
        <pt x="920" y="1050" on="0"/>
        <pt x="1015" y="884" on="1"/>
        <pt x="1117" y="692" on="0"/>
        <pt x="1117" y="492" on="1"/>
        <pt x="1117" y="381" on="0"/>
        <pt x="1051" y="194" on="0"/>
        <pt x="925" y="54" on="0"/>
        <pt x="728" y="-25" on="0"/>
        <pt x="603" y="-25" on="1"/>
        <pt x="482" y="-25" on="0"/>
        <pt x="284" y="57" on="0"/>
        <pt x="156" y="198" on="0"/>
        <pt x="87" y="382" on="0"/>
        <pt x="87" y="486" on="1"/>
        <pt x="87" y="705" on="0"/>
        <pt x="352" y="972" on="0"/>
      </contour>
    </TTGlyph>
    <TTGlyph name="exclam" xMin="160" yMin="-12" xMax="426" yMax="1496">
      <contour>
        <pt x="160" y="67" on="0"/>
        <pt x="160" y="173" on="0"/>
        <pt x="231" y="252" on="0"/>
        <pt x="293" y="252" on="1"/>
        <pt x="356" y="252" on="0"/>
        <pt x="426" y="174" on="0"/>
        <pt x="426" y="66" on="0"/>
        <pt x="356" y="-12" on="0"/>
        <pt x="293" y="-12" on="1"/>
        <pt x="231" y="-12" on="0"/>
      </contour>
      <contour>
        <pt x="391" y="1496" on="1"/>
        <pt x="391" y="1354" on="1"/>
        <pt x="335" y="435" on="1"/>
        <pt x="256" y="435" on="1"/>
        <pt x="194" y="1354" on="1"/>
        <pt x="194" y="1496" on="1"/>
      </contour>
    </TTGlyph>
    <TTGlyph name="exclamdown" xMin="160" yMin="-281" xMax="426" yMax="1227">
      <component glyphName="exclam" x="586" y="1215" scale="-1.0" flags="0x1004"/>
    </TTGlyph>
    <TTGlyph name="f" xMin="34" yMin="0" xMax="706" yMax="1549">
      <contour>
        <pt x="560" y="1416" on="1"/>
        <pt x="456" y="1416" on="0"/>
        <pt x="379" y="1296" on="0"/>
        <pt x="379" y="1148" on="1"/>
        <pt x="379" y="1097" on="1"/>
        <pt x="643" y="1097" on="1"/>
        <pt x="643" y="973" on="1"/>
        <pt x="379" y="973" on="1"/>
        <pt x="379" y="0" on="1"/>
        <pt x="212" y="0" on="1"/>
        <pt x="212" y="973" on="1"/>
        <pt x="34" y="973" on="1"/>
        <pt x="48" y="1083" on="1"/>
        <pt x="212" y="1097" on="1"/>
        <pt x="212" y="1146" on="1"/>
        <pt x="214" y="1358" on="0"/>
        <pt x="369" y="1549" on="0"/>
        <pt x="542" y="1549" on="1"/>
        <pt x="609" y="1549" on="0"/>
        <pt x="706" y="1534" on="1"/>
        <pt x="695" y="1403" on="1"/>
        <pt x="606" y="1416" on="0"/>
      </contour>
    </TTGlyph>
    <TTGlyph name="five" xMin="121" yMin="-23" xMax="1064" yMax="1496">
      <contour>
        <pt x="1004" y="1496" on="1"/>
        <pt x="990" y="1332" on="1"/>
        <pt x="379" y="1332" on="1"/>
        <pt x="369" y="1041" on="0"/>
        <pt x="364" y="861" on="1"/>
        <pt x="477" y="933" on="0"/>
        <pt x="609" y="933" on="1"/>
        <pt x="720" y="933" on="0"/>
        <pt x="895" y="862" on="0"/>
        <pt x="1006" y="738" on="0"/>
        <pt x="1064" y="573" on="0"/>
        <pt x="1064" y="477" on="1"/>
        <pt x="1064" y="250" on="0"/>
        <pt x="773" y="-23" on="0"/>
        <pt x="523" y="-23" on="1"/>
        <pt x="272" y="-23" on="0"/>
        <pt x="121" y="114" on="1"/>
        <pt x="186" y="255" on="1"/>
        <pt x="334" y="139" on="0"/>
        <pt x="529" y="139" on="1"/>
        <pt x="693" y="139" on="0"/>
        <pt x="883" y="325" on="0"/>
        <pt x="883" y="475" on="1"/>
        <pt x="883" y="609" on="0"/>
        <pt x="723" y="776" on="0"/>
        <pt x="427" y="776" on="0"/>
        <pt x="337" y="677" on="1"/>
        <pt x="198" y="696" on="1"/>
        <pt x="237" y="1496" on="1"/>
      </contour>
    </TTGlyph>
    <TTGlyph name="florin" xMin="28" yMin="-358" xMax="911" yMax="1547">
      <contour>
        <pt x="257" y="895" on="1"/>
        <pt x="265" y="1015" on="1"/>
        <pt x="438" y="1015" on="1"/>
        <pt x="460" y="1178" on="1"/>
        <pt x="512" y="1547" on="0"/>
        <pt x="783" y="1547" on="1"/>
        <pt x="832" y="1547" on="0"/>
        <pt x="911" y="1525" on="1"/>
        <pt x="903" y="1369" on="1"/>
        <pt x="849" y="1393" on="0"/>
        <pt x="807" y="1393" on="1"/>
        <pt x="733" y="1393" on="0"/>
        <pt x="667" y="1313" on="0"/>
        <pt x="654" y="1227" on="1"/>
        <pt x="615" y="1015" on="1"/>
        <pt x="801" y="1015" on="1"/>
        <pt x="793" y="895" on="1"/>
        <pt x="596" y="895" on="1"/>
        <pt x="460" y="130" on="1"/>
        <pt x="446" y="57" on="0"/>
        <pt x="421" y="-49" on="0"/>
        <pt x="382" y="-170" on="0"/>
        <pt x="332" y="-252" on="0"/>
        <pt x="265" y="-323" on="0"/>
        <pt x="174" y="-358" on="0"/>
        <pt x="119" y="-358" on="1"/>
        <pt x="90" y="-358" on="0"/>
        <pt x="28" y="-339" on="1"/>
        <pt x="39" y="-192" on="1"/>
        <pt x="83" y="-210" on="0"/>
        <pt x="108" y="-210" on="1"/>
        <pt x="148" y="-210" on="0"/>
        <pt x="209" y="-147" on="0"/>
        <pt x="242" y="-59" on="0"/>
        <pt x="255" y="6" on="1"/>
        <pt x="292" y="166" on="0"/>
        <pt x="402" y="824" on="0"/>
        <pt x="415" y="895" on="1"/>
      </contour>
    </TTGlyph>
    <TTGlyph name="four" xMin="108" yMin="0" xMax="1136" yMax="1496">
      <contour>
        <pt x="1122" y="371" on="1"/>
        <pt x="952" y="371" on="1"/>
        <pt x="952" y="0" on="1"/>
        <pt x="784" y="0" on="1"/>
        <pt x="784" y="371" on="1"/>
        <pt x="108" y="371" on="1"/>
        <pt x="108" y="524" on="1"/>
        <pt x="765" y="1496" on="1"/>
        <pt x="952" y="1496" on="1"/>
        <pt x="952" y="516" on="1"/>
        <pt x="1136" y="516" on="1"/>
      </contour>
      <contour>
        <pt x="784" y="1269" on="1"/>
        <pt x="284" y="516" on="1"/>
        <pt x="784" y="516" on="1"/>
      </contour>
    </TTGlyph>
    <TTGlyph name="fraction" xMin="60" yMin="0" xMax="1066" yMax="1547">
      <contour>
        <pt x="936" y="1547" on="1"/>
        <pt x="1066" y="1547" on="1"/>
        <pt x="191" y="0" on="1"/>
        <pt x="60" y="0" on="1"/>
      </contour>
    </TTGlyph>
    <TTGlyph name="g" xMin="70" yMin="-502" xMax="1052" yMax="1120">
      <contour>
        <pt x="569" y="143" on="1"/>
        <pt x="654" y="143" on="0"/>
        <pt x="782" y="203" on="0"/>
        <pt x="854" y="309" on="0"/>
        <pt x="889" y="439" on="0"/>
        <pt x="889" y="516" on="1"/>
        <pt x="889" y="597" on="1"/>
        <pt x="889" y="677" on="0"/>
        <pt x="853" y="812" on="0"/>
        <pt x="778" y="919" on="0"/>
        <pt x="653" y="979" on="0"/>
        <pt x="570" y="979" on="1"/>
        <pt x="501" y="979" on="0"/>
        <pt x="388" y="927" on="0"/>
        <pt x="315" y="842" on="0"/>
        <pt x="264" y="729" on="0"/>
        <pt x="242" y="613" on="0"/>
        <pt x="242" y="554" on="1"/>
        <pt x="242" y="496" on="0"/>
        <pt x="266" y="382" on="0"/>
        <pt x="318" y="274" on="0"/>
        <pt x="392" y="193" on="0"/>
        <pt x="503" y="143" on="0"/>
      </contour>
      <contour>
        <pt x="312" y="-502" on="1"/>
        <pt x="297" y="-351" on="1"/>
        <pt x="501" y="-351" on="1"/>
        <pt x="586" y="-351" on="0"/>
        <pt x="712" y="-327" on="0"/>
        <pt x="796" y="-272" on="0"/>
        <pt x="848" y="-205" on="0"/>
        <pt x="875" y="-98" on="0"/>
        <pt x="884" y="7" on="0"/>
        <pt x="884" y="83" on="1"/>
        <pt x="884" y="180" on="1"/>
        <pt x="824" y="94" on="0"/>
        <pt x="666" y="1" on="0"/>
        <pt x="544" y="1" on="1"/>
        <pt x="450" y="1" on="0"/>
        <pt x="291" y="66" on="0"/>
        <pt x="182" y="174" on="0"/>
        <pt x="105" y="316" on="0"/>
        <pt x="70" y="468" on="0"/>
        <pt x="70" y="545" on="1"/>
        <pt x="70" y="665" on="0"/>
        <pt x="129" y="869" on="0"/>
        <pt x="245" y="1029" on="0"/>
        <pt x="434" y="1120" on="0"/>
        <pt x="556" y="1120" on="1"/>
        <pt x="664" y="1120" on="0"/>
        <pt x="825" y="1037" on="0"/>
        <pt x="889" y="951" on="1"/>
        <pt x="889" y="1097" on="1"/>
        <pt x="1052" y="1097" on="1"/>
        <pt x="1052" y="79" on="1"/>
        <pt x="1052" y="9" on="0"/>
        <pt x="1045" y="-96" on="0"/>
        <pt x="1018" y="-224" on="0"/>
        <pt x="972" y="-316" on="0"/>
        <pt x="889" y="-409" on="0"/>
        <pt x="774" y="-466" on="0"/>
        <pt x="604" y="-502" on="0"/>
        <pt x="497" y="-502" on="1"/>
      </contour>
    </TTGlyph>
    <TTGlyph name="gbreve" xMin="70" yMin="-502" xMax="1052" yMax="1500">
      <component glyphName="breve" x="182" y="-57" flags="0x1004"/>
      <component glyphName="g" x="0" y="0" flags="0x1204"/>
    </TTGlyph>
    <TTGlyph name="gcircumflex" xMin="70" yMin="-502" xMax="1052" yMax="1630">
      <component glyphName="circumflex" x="160" y="-9" flags="0x1004"/>
      <component glyphName="g" x="0" y="0" flags="0x1204"/>
    </TTGlyph>
    <TTGlyph name="gcommaaccent" xMin="70" yMin="-502" xMax="1052" yMax="1749">
      <contour>
        <pt x="569" y="143" on="1"/>
        <pt x="654" y="143" on="0"/>
        <pt x="782" y="203" on="0"/>
        <pt x="854" y="309" on="0"/>
        <pt x="889" y="439" on="0"/>
        <pt x="889" y="516" on="1"/>
        <pt x="889" y="597" on="1"/>
        <pt x="889" y="677" on="0"/>
        <pt x="853" y="812" on="0"/>
        <pt x="778" y="919" on="0"/>
        <pt x="653" y="979" on="0"/>
        <pt x="570" y="979" on="1"/>
        <pt x="501" y="979" on="0"/>
        <pt x="388" y="927" on="0"/>
        <pt x="315" y="842" on="0"/>
        <pt x="264" y="729" on="0"/>
        <pt x="242" y="613" on="0"/>
        <pt x="242" y="554" on="1"/>
        <pt x="242" y="496" on="0"/>
        <pt x="266" y="382" on="0"/>
        <pt x="318" y="274" on="0"/>
        <pt x="392" y="193" on="0"/>
        <pt x="503" y="143" on="0"/>
      </contour>
      <contour>
        <pt x="312" y="-502" on="1"/>
        <pt x="297" y="-351" on="1"/>
        <pt x="501" y="-351" on="1"/>
        <pt x="586" y="-351" on="0"/>
        <pt x="712" y="-327" on="0"/>
        <pt x="796" y="-272" on="0"/>
        <pt x="848" y="-205" on="0"/>
        <pt x="875" y="-98" on="0"/>
        <pt x="884" y="7" on="0"/>
        <pt x="884" y="83" on="1"/>
        <pt x="884" y="180" on="1"/>
        <pt x="824" y="94" on="0"/>
        <pt x="666" y="1" on="0"/>
        <pt x="544" y="1" on="1"/>
        <pt x="450" y="1" on="0"/>
        <pt x="291" y="66" on="0"/>
        <pt x="182" y="174" on="0"/>
        <pt x="105" y="316" on="0"/>
        <pt x="70" y="468" on="0"/>
        <pt x="70" y="545" on="1"/>
        <pt x="70" y="665" on="0"/>
        <pt x="129" y="869" on="0"/>
        <pt x="245" y="1029" on="0"/>
        <pt x="434" y="1120" on="0"/>
        <pt x="556" y="1120" on="1"/>
        <pt x="664" y="1120" on="0"/>
        <pt x="825" y="1037" on="0"/>
        <pt x="889" y="951" on="1"/>
        <pt x="889" y="1097" on="1"/>
        <pt x="1052" y="1097" on="1"/>
        <pt x="1052" y="79" on="1"/>
        <pt x="1052" y="9" on="0"/>
        <pt x="1045" y="-96" on="0"/>
        <pt x="1018" y="-224" on="0"/>
        <pt x="972" y="-316" on="0"/>
        <pt x="889" y="-409" on="0"/>
        <pt x="774" y="-466" on="0"/>
        <pt x="604" y="-502" on="0"/>
        <pt x="497" y="-502" on="1"/>
      </contour>
      <contour>
        <pt x="793" y="1749" on="1"/>
        <pt x="683" y="1250" on="1"/>
        <pt x="488" y="1250" on="1"/>
        <pt x="653" y="1749" on="1"/>
      </contour>
    </TTGlyph>
    <TTGlyph name="gdotaccent" xMin="70" yMin="-502" xMax="1052" yMax="1440">
      <component glyphName="uni0307" x="355" y="-56" flags="0x1004"/>
      <component glyphName="g" x="0" y="0" flags="0x1204"/>
    </TTGlyph>
    <TTGlyph name="germandbls" xMin="118" yMin="0" xMax="1166" yMax="1525">
      <contour>
        <pt x="771" y="148" on="1"/>
        <pt x="868" y="148" on="0"/>
        <pt x="977" y="253" on="0"/>
        <pt x="977" y="343" on="1"/>
        <pt x="977" y="393" on="0"/>
        <pt x="925" y="484" on="0"/>
        <pt x="829" y="560" on="0"/>
        <pt x="741" y="617" on="0"/>
        <pt x="619" y="686" on="0"/>
        <pt x="591" y="705" on="1"/>
        <pt x="509" y="761" on="0"/>
        <pt x="509" y="822" on="1"/>
        <pt x="509" y="880" on="0"/>
        <pt x="574" y="934" on="1"/>
        <pt x="600" y="955" on="0"/>
        <pt x="698" y="1018" on="0"/>
        <pt x="753" y="1058" on="0"/>
        <pt x="799" y="1134" on="0"/>
        <pt x="799" y="1182" on="1"/>
        <pt x="799" y="1269" on="0"/>
        <pt x="665" y="1373" on="0"/>
        <pt x="568" y="1373" on="1"/>
        <pt x="286" y="1373" on="0"/>
        <pt x="286" y="1056" on="1"/>
        <pt x="286" y="0" on="1"/>
        <pt x="118" y="0" on="1"/>
        <pt x="118" y="1046" on="1"/>
        <pt x="118" y="1275" on="0"/>
        <pt x="342" y="1525" on="0"/>
        <pt x="568" y="1525" on="1"/>
        <pt x="758" y="1525" on="0"/>
        <pt x="988" y="1342" on="0"/>
        <pt x="988" y="1182" on="1"/>
        <pt x="988" y="1142" on="0"/>
        <pt x="972" y="1075" on="0"/>
        <pt x="934" y="1018" on="0"/>
        <pt x="899" y="977" on="0"/>
        <pt x="833" y="929" on="0"/>
        <pt x="789" y="901" on="0"/>
        <pt x="705" y="851" on="0"/>
        <pt x="683" y="838" on="1"/>
        <pt x="721" y="811" on="0"/>
        <pt x="845" y="736" on="0"/>
        <pt x="940" y="680" on="0"/>
        <pt x="1048" y="599" on="0"/>
        <pt x="1119" y="520" on="0"/>
        <pt x="1166" y="410" on="0"/>
        <pt x="1166" y="348" on="1"/>
        <pt x="1166" y="255" on="0"/>
        <pt x="1109" y="118" on="0"/>
        <pt x="1004" y="38" on="0"/>
        <pt x="870" y="0" on="0"/>
        <pt x="786" y="0" on="1"/>
        <pt x="443" y="0" on="1"/>
        <pt x="459" y="148" on="1"/>
      </contour>
    </TTGlyph>
    <TTGlyph name="grave" xMin="85" yMin="1251" xMax="520" yMax="1638">
      <contour>
        <pt x="408" y="1251" on="1"/>
        <pt x="85" y="1638" on="1"/>
        <pt x="335" y="1638" on="1"/>
        <pt x="520" y="1251" on="1"/>
      </contour>
    </TTGlyph>
    <TTGlyph name="greater" xMin="115" yMin="152" xMax="1075" yMax="1200">
      <contour>
        <pt x="115" y="311" on="1"/>
        <pt x="889" y="658" on="1"/>
        <pt x="117" y="1044" on="1"/>
        <pt x="117" y="1200" on="1"/>
        <pt x="1075" y="701" on="1"/>
        <pt x="1075" y="604" on="1"/>
        <pt x="115" y="152" on="1"/>
      </contour>
    </TTGlyph>
    <TTGlyph name="greaterequal" xMin="120" yMin="8" xMax="1080" yMax="1314">
      <contour>
        <pt x="1080" y="141" on="1"/>
        <pt x="1080" y="8" on="1"/>
        <pt x="120" y="8" on="1"/>
        <pt x="120" y="141" on="1"/>
      </contour>
      <contour>
        <pt x="150" y="1164" on="1"/>
        <pt x="150" y="1314" on="1"/>
        <pt x="1063" y="806" on="1"/>
        <pt x="1063" y="719" on="1"/>
        <pt x="146" y="234" on="1"/>
        <pt x="146" y="385" on="1"/>
        <pt x="908" y="762" on="1"/>
      </contour>
    </TTGlyph>
    <TTGlyph name="guillemotleft" xMin="100" yMin="149" xMax="901" yMax="970">
      <contour>
        <pt x="390" y="149" on="1"/>
        <pt x="120" y="520" on="1"/>
        <pt x="100" y="567" on="1"/>
        <pt x="393" y="970" on="1"/>
        <pt x="536" y="935" on="1"/>
        <pt x="262" y="561" on="1"/>
        <pt x="531" y="185" on="1"/>
      </contour>
      <contour>
        <pt x="771" y="149" on="1"/>
        <pt x="730" y="204" on="0"/>
        <pt x="579" y="413" on="0"/>
        <pt x="524" y="490" on="1"/>
        <pt x="469" y="567" on="1"/>
        <pt x="773" y="970" on="1"/>
        <pt x="901" y="935" on="1"/>
        <pt x="642" y="561" on="1"/>
        <pt x="898" y="185" on="1"/>
      </contour>
    </TTGlyph>
    <TTGlyph name="guillemotright" xMin="102" yMin="149" xMax="915" yMax="970">
      <contour>
        <pt x="534" y="554" on="1"/>
        <pt x="230" y="149" on="1"/>
        <pt x="102" y="185" on="1"/>
        <pt x="361" y="562" on="1"/>
        <pt x="104" y="935" on="1"/>
        <pt x="231" y="970" on="1"/>
      </contour>
      <contour>
        <pt x="915" y="554" on="1"/>
        <pt x="622" y="149" on="1"/>
        <pt x="483" y="185" on="1"/>
        <pt x="753" y="562" on="1"/>
        <pt x="488" y="935" on="1"/>
        <pt x="625" y="970" on="1"/>
      </contour>
    </TTGlyph>
    <TTGlyph name="guilsinglleft" xMin="120" yMin="182" xMax="501" yMax="982">
      <contour>
        <pt x="361" y="982" on="1"/>
        <pt x="501" y="982" on="1"/>
        <pt x="269" y="583" on="1"/>
        <pt x="495" y="182" on="1"/>
        <pt x="356" y="182" on="1"/>
        <pt x="120" y="583" on="1"/>
      </contour>
    </TTGlyph>
    <TTGlyph name="guilsinglright" xMin="124" yMin="182" xMax="505" yMax="982">
      <contour>
        <pt x="505" y="585" on="1"/>
        <pt x="264" y="182" on="1"/>
        <pt x="124" y="182" on="1"/>
        <pt x="355" y="585" on="1"/>
        <pt x="130" y="982" on="1"/>
        <pt x="269" y="982" on="1"/>
      </contour>
    </TTGlyph>
    <TTGlyph name="h" xMin="145" yMin="0" xMax="1049" yMax="1533">
      <contour>
        <pt x="882" y="0" on="1"/>
        <pt x="882" y="663" on="1"/>
        <pt x="882" y="828" on="0"/>
        <pt x="777" y="978" on="0"/>
        <pt x="646" y="978" on="1"/>
        <pt x="520" y="978" on="0"/>
        <pt x="347" y="852" on="0"/>
        <pt x="321" y="752" on="1"/>
        <pt x="312" y="677" on="0"/>
        <pt x="312" y="585" on="1"/>
        <pt x="312" y="0" on="1"/>
        <pt x="145" y="0" on="1"/>
        <pt x="145" y="1523" on="1"/>
        <pt x="312" y="1533" on="1"/>
        <pt x="312" y="1087" on="1"/>
        <pt x="312" y="1030" on="0"/>
        <pt x="308" y="946" on="1"/>
        <pt x="449" y="1120" on="0"/>
        <pt x="682" y="1120" on="1"/>
        <pt x="1049" y="1120" on="0"/>
        <pt x="1049" y="689" on="1"/>
        <pt x="1049" y="0" on="1"/>
      </contour>
    </TTGlyph>
    <TTGlyph name="hbar" xMin="21" yMin="0" xMax="1007" yMax="1510">
      <contour>
        <pt x="282" y="0" on="1"/>
        <pt x="114" y="0" on="1"/>
        <pt x="114" y="1270" on="1"/>
        <pt x="21" y="1270" on="1"/>
        <pt x="21" y="1386" on="1"/>
        <pt x="114" y="1386" on="1"/>
        <pt x="114" y="1490" on="1"/>
        <pt x="282" y="1510" on="1"/>
        <pt x="282" y="1386" on="1"/>
        <pt x="558" y="1386" on="1"/>
        <pt x="558" y="1270" on="1"/>
        <pt x="282" y="1270" on="1"/>
        <pt x="282" y="949" on="1"/>
        <pt x="427" y="1124" on="0"/>
        <pt x="674" y="1124" on="1"/>
        <pt x="842" y="1124" on="0"/>
        <pt x="1007" y="885" on="0"/>
        <pt x="1007" y="664" on="1"/>
        <pt x="1007" y="0" on="1"/>
        <pt x="839" y="0" on="1"/>
        <pt x="839" y="617" on="1"/>
        <pt x="839" y="697" on="0"/>
        <pt x="829" y="805" on="0"/>
        <pt x="802" y="898" on="0"/>
        <pt x="753" y="951" on="0"/>
        <pt x="675" y="980" on="0"/>
        <pt x="619" y="980" on="1"/>
        <pt x="498" y="980" on="0"/>
        <pt x="304" y="833" on="0"/>
        <pt x="282" y="748" on="1"/>
      </contour>
    </TTGlyph>
    <TTGlyph name="hcircumflex" xMin="145" yMin="0" xMax="1049" yMax="2043">
      <component glyphName="circumflex" x="196" y="404" flags="0x1004"/>
      <component glyphName="h" x="0" y="0" flags="0x1204"/>
    </TTGlyph>
    <TTGlyph name="hungarumlaut" xMin="128" yMin="1259" xMax="713" yMax="1594">
      <contour>
        <pt x="479" y="1594" on="1"/>
        <pt x="227" y="1259" on="1"/>
        <pt x="128" y="1259" on="1"/>
        <pt x="326" y="1594" on="1"/>
      </contour>
      <contour>
        <pt x="713" y="1594" on="1"/>
        <pt x="463" y="1259" on="1"/>
        <pt x="361" y="1259" on="1"/>
        <pt x="563" y="1594" on="1"/>
      </contour>
    </TTGlyph>
    <TTGlyph name="hyphen" xMin="86" yMin="497" xMax="586" yMax="644">
      <contour>
        <pt x="86" y="497" on="1"/>
        <pt x="86" y="644" on="1"/>
        <pt x="586" y="644" on="1"/>
        <pt x="586" y="497" on="1"/>
      </contour>
    </TTGlyph>
    <TTGlyph name="i" xMin="172" yMin="0" xMax="340" yMax="1496">
      <contour>
        <pt x="340" y="1097" on="1"/>
        <pt x="340" y="0" on="1"/>
        <pt x="172" y="0" on="1"/>
        <pt x="172" y="1097" on="1"/>
      </contour>
      <contour>
        <pt x="340" y="1496" on="1"/>
        <pt x="340" y="1298" on="1"/>
        <pt x="172" y="1298" on="1"/>
        <pt x="172" y="1496" on="1"/>
      </contour>
    </TTGlyph>
    <TTGlyph name="iacute" xMin="135" yMin="0" xMax="601" yMax="1630">
      <component glyphName="acute" x="34" y="-8" flags="0x1004"/>
      <component glyphName="dotlessi" x="0" y="0" flags="0x1204"/>
    </TTGlyph>
    <TTGlyph name="ibreve" xMin="-32" yMin="0" xMax="470" yMax="1500">
      <component glyphName="breve" x="-160" y="-57" flags="0x1004"/>
      <component glyphName="dotlessi" x="0" y="0" flags="0x1204"/>
    </TTGlyph>
    <TTGlyph name="icircumflex" xMin="-74" yMin="0" xMax="513" yMax="1630">
      <component glyphName="circumflex" x="-182" y="-9" flags="0x1004"/>
      <component glyphName="dotlessi" x="0" y="0" flags="0x1204"/>
    </TTGlyph>
    <TTGlyph name="idieresis" xMin="-53" yMin="0" xMax="492" yMax="1454">
      <component glyphName="dieresis" x="-171" y="-12" flags="0x1004"/>
      <component glyphName="dotlessi" x="0" y="0" flags="0x1204"/>
    </TTGlyph>
    <TTGlyph name="igrave" xMin="-159" yMin="0" xMax="304" yMax="1629">
      <component glyphName="grave" x="-244" y="-9" flags="0x1004"/>
      <component glyphName="dotlessi" x="0" y="0" flags="0x1204"/>
    </TTGlyph>
    <TTGlyph name="ij" xMin="159" yMin="-502" xMax="796" yMax="1496">
      <contour>
        <pt x="796" y="1097" on="1"/>
        <pt x="796" y="-139" on="1"/>
        <pt x="796" y="-245" on="0"/>
        <pt x="769" y="-375" on="0"/>
        <pt x="694" y="-466" on="0"/>
        <pt x="566" y="-502" on="0"/>
        <pt x="463" y="-502" on="1"/>
        <pt x="411" y="-502" on="1"/>
        <pt x="389" y="-351" on="1"/>
        <pt x="441" y="-351" on="1"/>
        <pt x="480" y="-351" on="0"/>
        <pt x="537" y="-342" on="0"/>
        <pt x="578" y="-328" on="0"/>
        <pt x="604" y="-296" on="0"/>
        <pt x="619" y="-267" on="0"/>
        <pt x="626" y="-209" on="0"/>
        <pt x="628" y="-163" on="0"/>
        <pt x="628" y="-121" on="1"/>
        <pt x="628" y="1097" on="1"/>
      </contour>
      <contour>
        <pt x="796" y="1496" on="1"/>
        <pt x="796" y="1298" on="1"/>
        <pt x="628" y="1298" on="1"/>
        <pt x="628" y="1496" on="1"/>
      </contour>
      <contour>
        <pt x="327" y="1097" on="1"/>
        <pt x="327" y="0" on="1"/>
        <pt x="159" y="0" on="1"/>
        <pt x="159" y="1097" on="1"/>
      </contour>
      <contour>
        <pt x="327" y="1496" on="1"/>
        <pt x="327" y="1298" on="1"/>
        <pt x="159" y="1298" on="1"/>
        <pt x="159" y="1496" on="1"/>
      </contour>
    </TTGlyph>
    <TTGlyph name="imacron" xMin="-136" yMin="0" xMax="574" yMax="1364">
      <component glyphName="macron" x="-312" y="-261" flags="0x1004"/>
      <component glyphName="dotlessi" x="0" y="0" flags="0x1204"/>
    </TTGlyph>
    <TTGlyph name="infinity" xMin="135" yMin="254" xMax="1678" yMax="1017">
      <contour>
        <pt x="1678" y="642" on="1"/>
        <pt x="1678" y="472" on="0"/>
        <pt x="1474" y="254" on="0"/>
        <pt x="1323" y="254" on="1"/>
        <pt x="1211" y="254" on="0"/>
        <pt x="1013" y="386" on="0"/>
        <pt x="909" y="525" on="1"/>
        <pt x="810" y="395" on="0"/>
        <pt x="610" y="254" on="0"/>
        <pt x="493" y="254" on="1"/>
        <pt x="383" y="254" on="0"/>
        <pt x="218" y="366" on="0"/>
        <pt x="135" y="548" on="0"/>
        <pt x="135" y="659" on="1"/>
        <pt x="135" y="808" on="0"/>
        <pt x="340" y="1017" on="0"/>
        <pt x="488" y="1017" on="1"/>
        <pt x="609" y="1017" on="0"/>
        <pt x="809" y="878" on="0"/>
        <pt x="909" y="745" on="1"/>
        <pt x="1004" y="876" on="0"/>
        <pt x="1203" y="1017" on="0"/>
        <pt x="1326" y="1017" on="1"/>
        <pt x="1493" y="1017" on="0"/>
        <pt x="1678" y="810" on="0"/>
      </contour>
      <contour>
        <pt x="248" y="638" on="1"/>
        <pt x="248" y="536" on="0"/>
        <pt x="388" y="381" on="0"/>
        <pt x="495" y="381" on="1"/>
        <pt x="666" y="381" on="0"/>
        <pt x="838" y="636" on="1"/>
        <pt x="675" y="893" on="0"/>
        <pt x="487" y="893" on="1"/>
        <pt x="379" y="893" on="0"/>
        <pt x="248" y="745" on="0"/>
      </contour>
      <contour>
        <pt x="1555" y="665" on="1"/>
        <pt x="1555" y="760" on="0"/>
        <pt x="1422" y="893" on="0"/>
        <pt x="1321" y="893" on="1"/>
        <pt x="1226" y="893" on="0"/>
        <pt x="1060" y="754" on="0"/>
        <pt x="982" y="638" on="1"/>
        <pt x="1081" y="503" on="0"/>
        <pt x="1235" y="381" on="0"/>
        <pt x="1326" y="381" on="1"/>
        <pt x="1438" y="381" on="0"/>
        <pt x="1555" y="540" on="0"/>
      </contour>
    </TTGlyph>
    <TTGlyph name="integral" xMin="40" yMin="-429" xMax="662" yMax="1756">
      <contour>
        <pt x="277" y="-50" on="1"/>
        <pt x="277" y="1351" on="1"/>
        <pt x="277" y="1756" on="0"/>
        <pt x="540" y="1756" on="1"/>
        <pt x="582" y="1756" on="0"/>
        <pt x="661" y="1733" on="1"/>
        <pt x="662" y="1594" on="1"/>
        <pt x="629" y="1610" on="0"/>
        <pt x="566" y="1610" on="1"/>
        <pt x="481" y="1610" on="0"/>
        <pt x="421" y="1501" on="0"/>
        <pt x="421" y="1379" on="1"/>
        <pt x="421" y="-25" on="1"/>
        <pt x="421" y="-116" on="0"/>
        <pt x="395" y="-257" on="0"/>
        <pt x="338" y="-369" on="0"/>
        <pt x="235" y="-429" on="0"/>
        <pt x="162" y="-429" on="1"/>
        <pt x="109" y="-429" on="0"/>
        <pt x="41" y="-409" on="1"/>
        <pt x="40" y="-270" on="1"/>
        <pt x="69" y="-284" on="0"/>
        <pt x="133" y="-284" on="1"/>
        <pt x="218" y="-284" on="0"/>
        <pt x="277" y="-173" on="0"/>
      </contour>
    </TTGlyph>
    <TTGlyph name="iogonek" xMin="8" yMin="-410" xMax="358" yMax="1496">
      <component glyphName="ogonek" x="-110" y="9" flags="0x1004"/>
      <component glyphName="i" x="0" y="0" flags="0x1204"/>
    </TTGlyph>
    <TTGlyph name="itilde" xMin="-144" yMin="0" xMax="583" yMax="1487">
      <component glyphName="tilde" x="-409" y="1128" flags="0x1004"/>
      <component glyphName="dotlessi" x="0" y="0" flags="0x1204"/>
    </TTGlyph>
    <TTGlyph name="j" xMin="-77" yMin="-502" xMax="330" yMax="1496">
      <contour>
        <pt x="330" y="1097" on="1"/>
        <pt x="330" y="-139" on="1"/>
        <pt x="330" y="-245" on="0"/>
        <pt x="303" y="-375" on="0"/>
        <pt x="228" y="-466" on="0"/>
        <pt x="100" y="-502" on="0"/>
        <pt x="-3" y="-502" on="1"/>
        <pt x="-55" y="-502" on="1"/>
        <pt x="-77" y="-351" on="1"/>
        <pt x="-25" y="-351" on="1"/>
        <pt x="14" y="-351" on="0"/>
        <pt x="71" y="-342" on="0"/>
        <pt x="112" y="-328" on="0"/>
        <pt x="138" y="-296" on="0"/>
        <pt x="153" y="-267" on="0"/>
        <pt x="160" y="-209" on="0"/>
        <pt x="162" y="-163" on="0"/>
        <pt x="162" y="-121" on="1"/>
        <pt x="162" y="1097" on="1"/>
      </contour>
      <contour>
        <pt x="330" y="1496" on="1"/>
        <pt x="330" y="1298" on="1"/>
        <pt x="162" y="1298" on="1"/>
        <pt x="162" y="1496" on="1"/>
      </contour>
    </TTGlyph>
    <TTGlyph name="jcircumflex" xMin="-167" yMin="-502" xMax="420" yMax="1630">
      <component glyphName="circumflex" x="-275" y="-9" flags="0x1004"/>
      <component glyphName="uni0237" x="0" y="0" flags="0x1204"/>
    </TTGlyph>
    <TTGlyph name="k" xMin="145" yMin="0" xMax="1042" yMax="1533">
      <contour>
        <pt x="145" y="0" on="1"/>
        <pt x="145" y="1523" on="1"/>
        <pt x="311" y="1533" on="1"/>
        <pt x="311" y="736" on="1"/>
        <pt x="311" y="596" on="1"/>
        <pt x="317" y="602" on="0"/>
        <pt x="341" y="630" on="0"/>
        <pt x="348" y="637" on="1"/>
        <pt x="435" y="732" on="0"/>
        <pt x="798" y="1097" on="1"/>
        <pt x="1010" y="1097" on="1"/>
        <pt x="554" y="635" on="1"/>
        <pt x="1042" y="0" on="1"/>
        <pt x="834" y="0" on="1"/>
        <pt x="433" y="540" on="1"/>
        <pt x="311" y="435" on="1"/>
        <pt x="311" y="0" on="1"/>
      </contour>
    </TTGlyph>
    <TTGlyph name="kcommaaccent" xMin="145" yMin="-620" xMax="1042" yMax="1533">
      <component glyphName="uni0326" x="320" y="52" flags="0x1004"/>
      <component glyphName="k" x="0" y="0" flags="0x1204"/>
    </TTGlyph>
    <TTGlyph name="kgreenlandic" xMin="147" yMin="0" xMax="1014" yMax="1105">
      <contour>
        <pt x="823" y="0" on="1"/>
        <pt x="320" y="480" on="1"/>
        <pt x="293" y="506" on="1"/>
        <pt x="293" y="0" on="1"/>
        <pt x="147" y="0" on="1"/>
        <pt x="147" y="1105" on="1"/>
        <pt x="293" y="1105" on="1"/>
        <pt x="293" y="600" on="1"/>
        <pt x="776" y="1105" on="1"/>
        <pt x="981" y="1105" on="1"/>
        <pt x="458" y="551" on="1"/>
        <pt x="807" y="227" on="0"/>
        <pt x="1014" y="0" on="1"/>
      </contour>
    </TTGlyph>
    <TTGlyph name="l" xMin="145" yMin="-20" xMax="611" yMax="1533">
      <contour>
        <pt x="438" y="-20" on="1"/>
        <pt x="278" y="-20" on="0"/>
        <pt x="145" y="152" on="0"/>
        <pt x="145" y="365" on="1"/>
        <pt x="145" y="1523" on="1"/>
        <pt x="311" y="1533" on="1"/>
        <pt x="311" y="431" on="1"/>
        <pt x="311" y="363" on="0"/>
        <pt x="314" y="281" on="0"/>
        <pt x="326" y="202" on="0"/>
        <pt x="346" y="162" on="0"/>
        <pt x="384" y="129" on="0"/>
        <pt x="437" y="118" on="0"/>
        <pt x="476" y="118" on="1"/>
        <pt x="508" y="118" on="0"/>
        <pt x="602" y="130" on="1"/>
        <pt x="611" y="-3" on="1"/>
        <pt x="508" y="-20" on="0"/>
      </contour>
    </TTGlyph>
    <TTGlyph name="lacute" xMin="145" yMin="-20" xMax="760" yMax="2043">
      <component glyphName="acute" x="193" y="405" flags="0x1004"/>
      <component glyphName="l" x="0" y="0" flags="0x1204"/>
    </TTGlyph>
    <TTGlyph name="lcaron" xMin="145" yMin="-20" xMax="817" yMax="1533">
      <component glyphName="comma" x="459" y="1299" flags="0x1004"/>
      <component glyphName="l" x="0" y="0" flags="0x1004"/>
    </TTGlyph>
    <TTGlyph name="lcommaaccent" xMin="145" yMin="-640" xMax="611" yMax="1533">
      <component glyphName="uni0326" x="104" y="32" flags="0x1004"/>
      <component glyphName="l" x="0" y="0" flags="0x1204"/>
    </TTGlyph>
    <TTGlyph name="ldot" xMin="145" yMin="-20" xMax="887" yMax="1533">
      <component glyphName="periodcentered" x="569" y="0" flags="0x1004"/>
      <component glyphName="l" x="0" y="0" flags="0x1004"/>
    </TTGlyph>
    <TTGlyph name="less" xMin="103" yMin="146" xMax="1063" yMax="1195">
      <contour>
        <pt x="1061" y="146" on="1"/>
        <pt x="103" y="605" on="1"/>
        <pt x="103" y="702" on="1"/>
        <pt x="1063" y="1195" on="1"/>
        <pt x="1063" y="1037" on="1"/>
        <pt x="288" y="658" on="1"/>
        <pt x="1061" y="304" on="1"/>
      </contour>
    </TTGlyph>
    <TTGlyph name="lessequal" xMin="101" yMin="8" xMax="1066" yMax="1312">
      <contour>
        <pt x="1041" y="383" on="1"/>
        <pt x="1041" y="232" on="1"/>
        <pt x="131" y="716" on="1"/>
        <pt x="131" y="806" on="1"/>
        <pt x="1041" y="1312" on="1"/>
        <pt x="1041" y="1162" on="1"/>
        <pt x="285" y="766" on="1"/>
      </contour>
      <contour>
        <pt x="1066" y="141" on="1"/>
        <pt x="1066" y="8" on="1"/>
        <pt x="101" y="8" on="1"/>
        <pt x="101" y="141" on="1"/>
      </contour>
    </TTGlyph>
    <TTGlyph name="logicalnot" xMin="109" yMin="260" xMax="1100" yMax="825">
      <contour>
        <pt x="1100" y="825" on="1"/>
        <pt x="1100" y="260" on="1"/>
        <pt x="965" y="260" on="1"/>
        <pt x="965" y="681" on="1"/>
        <pt x="109" y="681" on="1"/>
        <pt x="109" y="825" on="1"/>
      </contour>
    </TTGlyph>
    <TTGlyph name="lozenge" xMin="87" yMin="-48" xMax="1055" yMax="1583">
      <contour>
        <pt x="565" y="106" on="1"/>
        <pt x="625" y="216" on="0"/>
        <pt x="864" y="656" on="0"/>
        <pt x="923" y="766" on="1"/>
        <pt x="909" y="792" on="0"/>
        <pt x="644" y="1293" on="0"/>
        <pt x="577" y="1424" on="1"/>
        <pt x="457" y="1206" on="0"/>
        <pt x="219" y="768" on="1"/>
        <pt x="252" y="705" on="0"/>
        <pt x="496" y="232" on="0"/>
      </contour>
      <contour>
        <pt x="630" y="1583" on="1"/>
        <pt x="1055" y="768" on="1"/>
        <pt x="621" y="-48" on="1"/>
        <pt x="512" y="-48" on="1"/>
        <pt x="87" y="766" on="1"/>
        <pt x="519" y="1583" on="1"/>
      </contour>
    </TTGlyph>
    <TTGlyph name="lslash" xMin="31" yMin="-21" xMax="611" yMax="1510">
      <contour>
        <pt x="487" y="985" on="1"/>
        <pt x="487" y="839" on="1"/>
        <pt x="311" y="703" on="1"/>
        <pt x="311" y="431" on="1"/>
        <pt x="311" y="378" on="0"/>
        <pt x="312" y="319" on="0"/>
        <pt x="316" y="245" on="0"/>
        <pt x="324" y="208" on="0"/>
        <pt x="338" y="163" on="0"/>
        <pt x="359" y="144" on="0"/>
        <pt x="390" y="124" on="0"/>
        <pt x="431" y="118" on="0"/>
        <pt x="458" y="118" on="1"/>
        <pt x="474" y="118" on="0"/>
        <pt x="596" y="128" on="1"/>
        <pt x="611" y="-8" on="1"/>
        <pt x="481" y="-21" on="0"/>
        <pt x="433" y="-21" on="1"/>
        <pt x="382" y="-21" on="0"/>
        <pt x="305" y="-10" on="0"/>
        <pt x="245" y="20" on="0"/>
        <pt x="203" y="56" on="0"/>
        <pt x="173" y="121" on="0"/>
        <pt x="156" y="187" on="0"/>
        <pt x="146" y="292" on="0"/>
        <pt x="143" y="393" on="0"/>
        <pt x="143" y="468" on="1"/>
        <pt x="143" y="573" on="1"/>
        <pt x="31" y="486" on="1"/>
        <pt x="31" y="631" on="1"/>
        <pt x="143" y="718" on="1"/>
        <pt x="143" y="1490" on="1"/>
        <pt x="311" y="1510" on="1"/>
        <pt x="311" y="848" on="1"/>
      </contour>
    </TTGlyph>
    <TTGlyph name="m" xMin="143" yMin="0" xMax="1703" yMax="1120">
      <contour>
        <pt x="1536" y="0" on="1"/>
        <pt x="1536" y="571" on="1"/>
        <pt x="1536" y="651" on="0"/>
        <pt x="1529" y="759" on="0"/>
        <pt x="1504" y="871" on="0"/>
        <pt x="1459" y="936" on="0"/>
        <pt x="1379" y="977" on="0"/>
        <pt x="1323" y="977" on="1"/>
        <pt x="1213" y="977" on="0"/>
        <pt x="1058" y="859" on="0"/>
        <pt x="1025" y="752" on="1"/>
        <pt x="1016" y="680" on="0"/>
        <pt x="1016" y="598" on="1"/>
        <pt x="1016" y="0" on="1"/>
        <pt x="849" y="0" on="1"/>
        <pt x="849" y="589" on="1"/>
        <pt x="849" y="663" on="0"/>
        <pt x="839" y="772" on="0"/>
        <pt x="811" y="875" on="0"/>
        <pt x="764" y="939" on="0"/>
        <pt x="686" y="977" on="0"/>
        <pt x="632" y="977" on="1"/>
        <pt x="512" y="977" on="0"/>
        <pt x="349" y="855" on="0"/>
        <pt x="321" y="754" on="1"/>
        <pt x="312" y="677" on="0"/>
        <pt x="312" y="587" on="1"/>
        <pt x="312" y="0" on="1"/>
        <pt x="145" y="0" on="1"/>
        <pt x="143" y="1029" on="0"/>
        <pt x="143" y="1097" on="1"/>
        <pt x="283" y="1097" on="1"/>
        <pt x="304" y="940" on="1"/>
        <pt x="354" y="1016" on="0"/>
        <pt x="538" y="1120" on="0"/>
        <pt x="655" y="1120" on="1"/>
        <pt x="716" y="1120" on="0"/>
        <pt x="819" y="1095" on="0"/>
        <pt x="888" y="1057" on="0"/>
        <pt x="942" y="1004" on="0"/>
        <pt x="972" y="953" on="0"/>
        <pt x="982" y="925" on="1"/>
        <pt x="1102" y="1120" on="0"/>
        <pt x="1349" y="1120" on="1"/>
        <pt x="1532" y="1120" on="0"/>
        <pt x="1703" y="911" on="0"/>
        <pt x="1703" y="706" on="1"/>
        <pt x="1703" y="0" on="1"/>
      </contour>
    </TTGlyph>
    <TTGlyph name="macron" xMin="176" yMin="1503" xMax="886" yMax="1625">
      <contour>
        <pt x="886" y="1625" on="1"/>
        <pt x="886" y="1503" on="1"/>
        <pt x="176" y="1503" on="1"/>
        <pt x="176" y="1625" on="1"/>
      </contour>
    </TTGlyph>
    <TTGlyph name="multiply" xMin="116" yMin="181" xMax="876" yMax="1027">
      <contour>
        <pt x="876" y="278" on="1"/>
        <pt x="768" y="181" on="1"/>
        <pt x="496" y="494" on="1"/>
        <pt x="224" y="181" on="1"/>
        <pt x="116" y="278" on="1"/>
        <pt x="401" y="604" on="1"/>
        <pt x="116" y="932" on="1"/>
        <pt x="222" y="1027" on="1"/>
        <pt x="496" y="713" on="1"/>
        <pt x="770" y="1027" on="1"/>
        <pt x="876" y="932" on="1"/>
        <pt x="591" y="604" on="1"/>
      </contour>
    </TTGlyph>
    <TTGlyph name="n" xMin="143" yMin="0" xMax="1049" yMax="1120">
      <contour>
        <pt x="143" y="0" on="1"/>
        <pt x="143" y="1097" on="1"/>
        <pt x="283" y="1097" on="1"/>
        <pt x="304" y="940" on="1"/>
        <pt x="369" y="1021" on="0"/>
        <pt x="564" y="1120" on="0"/>
        <pt x="677" y="1120" on="1"/>
        <pt x="867" y="1120" on="0"/>
        <pt x="1049" y="907" on="0"/>
        <pt x="1049" y="686" on="1"/>
        <pt x="1049" y="0" on="1"/>
        <pt x="882" y="0" on="1"/>
        <pt x="882" y="660" on="0"/>
        <pt x="881" y="707" on="1"/>
        <pt x="877" y="847" on="0"/>
        <pt x="772" y="977" on="0"/>
        <pt x="649" y="977" on="1"/>
        <pt x="520" y="977" on="0"/>
        <pt x="348" y="853" on="0"/>
        <pt x="322" y="754" on="1"/>
        <pt x="312" y="687" on="0"/>
        <pt x="312" y="600" on="1"/>
        <pt x="312" y="0" on="1"/>
      </contour>
    </TTGlyph>
    <TTGlyph name="nacute" xMin="143" yMin="0" xMax="1049" yMax="1630">
      <component glyphName="acute" x="411" y="-8" flags="0x1004"/>
      <component glyphName="n" x="0" y="0" flags="0x1204"/>
    </TTGlyph>
    <TTGlyph name="ncaron" xMin="143" yMin="0" xMax="1049" yMax="1630">
      <component glyphName="caron" x="194" y="-9" flags="0x1004"/>
      <component glyphName="n" x="0" y="0" flags="0x1204"/>
    </TTGlyph>
    <TTGlyph name="ncommaaccent" xMin="143" yMin="-620" xMax="1049" yMax="1120">
      <component glyphName="uni0326" x="322" y="52" flags="0x1004"/>
      <component glyphName="n" x="0" y="0" flags="0x1204"/>
    </TTGlyph>
    <TTGlyph name="nine" xMin="86" yMin="0" xMax="1090" yMax="1525">
      <contour>
        <pt x="556" y="598" on="1"/>
        <pt x="429" y="598" on="0"/>
        <pt x="216" y="709" on="0"/>
        <pt x="86" y="919" on="0"/>
        <pt x="86" y="1053" on="1"/>
        <pt x="86" y="1257" on="0"/>
        <pt x="366" y="1525" on="0"/>
        <pt x="592" y="1525" on="1"/>
        <pt x="709" y="1525" on="0"/>
        <pt x="900" y="1450" on="0"/>
        <pt x="1023" y="1319" on="0"/>
        <pt x="1090" y="1144" on="0"/>
        <pt x="1090" y="1042" on="1"/>
        <pt x="1090" y="899" on="0"/>
        <pt x="992" y="667" on="0"/>
        <pt x="872" y="504" on="1"/>
        <pt x="829" y="447" on="0"/>
        <pt x="628" y="195" on="0"/>
        <pt x="549" y="98" on="1"/>
        <pt x="470" y="0" on="1"/>
        <pt x="250" y="0" on="1"/>
        <pt x="781" y="658" on="1"/>
        <pt x="668" y="598" on="0"/>
      </contour>
      <contour>
        <pt x="901" y="1061" on="1"/>
        <pt x="901" y="1198" on="0"/>
        <pt x="746" y="1373" on="0"/>
        <pt x="598" y="1373" on="1"/>
        <pt x="449" y="1373" on="0"/>
        <pt x="275" y="1190" on="0"/>
        <pt x="275" y="1056" on="1"/>
        <pt x="275" y="916" on="0"/>
        <pt x="443" y="748" on="0"/>
        <pt x="592" y="748" on="1"/>
        <pt x="750" y="748" on="0"/>
        <pt x="901" y="922" on="0"/>
      </contour>
    </TTGlyph>
    <TTGlyph name="notequal" xMin="112" yMin="48" xMax="1083" yMax="1207">
      <contour>
        <pt x="798" y="1207" on="1"/>
        <pt x="913" y="1191" on="1"/>
        <pt x="796" y="915" on="1"/>
        <pt x="1074" y="915" on="1"/>
        <pt x="1083" y="783" on="1"/>
        <pt x="737" y="783" on="1"/>
        <pt x="581" y="479" on="1"/>
        <pt x="1076" y="479" on="1"/>
        <pt x="1083" y="352" on="1"/>
        <pt x="521" y="352" on="1"/>
        <pt x="376" y="48" on="1"/>
        <pt x="263" y="68" on="1"/>
        <pt x="382" y="352" on="1"/>
        <pt x="121" y="352" on="1"/>
        <pt x="114" y="479" on="1"/>
        <pt x="446" y="479" on="1"/>
        <pt x="598" y="783" on="1"/>
        <pt x="121" y="783" on="1"/>
        <pt x="112" y="915" on="1"/>
        <pt x="657" y="915" on="1"/>
      </contour>
    </TTGlyph>
    <TTGlyph name="ntilde" xMin="143" yMin="0" xMax="1049" yMax="1487">
      <component glyphName="tilde" x="-32" y="1128" flags="0x1004"/>
      <component glyphName="n" x="0" y="0" flags="0x1204"/>
    </TTGlyph>
    <TTGlyph name="numbersign" xMin="91" yMin="-23" xMax="1032" yMax="1462">
      <contour>
        <pt x="1032" y="1055" on="1"/>
        <pt x="1018" y="931" on="1"/>
        <pt x="871" y="931" on="1"/>
        <pt x="804" y="536" on="1"/>
        <pt x="951" y="536" on="1"/>
        <pt x="941" y="410" on="1"/>
        <pt x="786" y="410" on="1"/>
        <pt x="700" y="-23" on="1"/>
        <pt x="549" y="-23" on="1"/>
        <pt x="633" y="410" on="1"/>
        <pt x="398" y="410" on="1"/>
        <pt x="318" y="-23" on="1"/>
        <pt x="189" y="-23" on="1"/>
        <pt x="262" y="410" on="1"/>
        <pt x="91" y="410" on="1"/>
        <pt x="101" y="536" on="1"/>
        <pt x="284" y="536" on="1"/>
        <pt x="345" y="930" on="1"/>
        <pt x="168" y="930" on="1"/>
        <pt x="177" y="1055" on="1"/>
        <pt x="370" y="1055" on="1"/>
        <pt x="453" y="1462" on="1"/>
        <pt x="606" y="1462" on="1"/>
        <pt x="527" y="1055" on="1"/>
        <pt x="761" y="1055" on="1"/>
        <pt x="832" y="1462" on="1"/>
        <pt x="960" y="1462" on="1"/>
        <pt x="894" y="1055" on="1"/>
      </contour>
      <contour>
        <pt x="737" y="931" on="1"/>
        <pt x="502" y="931" on="1"/>
        <pt x="422" y="536" on="1"/>
        <pt x="658" y="536" on="1"/>
      </contour>
    </TTGlyph>
    <TTGlyph name="o" xMin="92" yMin="-23" xMax="1108" yMax="1120">
      <contour>
        <pt x="265" y="546" on="1"/>
        <pt x="265" y="351" on="0"/>
        <pt x="438" y="116" on="0"/>
        <pt x="604" y="116" on="1"/>
        <pt x="768" y="116" on="0"/>
        <pt x="935" y="350" on="0"/>
        <pt x="935" y="548" on="1"/>
        <pt x="935" y="749" on="0"/>
        <pt x="770" y="980" on="0"/>
        <pt x="601" y="980" on="1"/>
        <pt x="437" y="980" on="0"/>
        <pt x="265" y="744" on="0"/>
      </contour>
      <contour>
        <pt x="1108" y="549" on="1"/>
        <pt x="1108" y="294" on="0"/>
        <pt x="836" y="-23" on="0"/>
        <pt x="596" y="-23" on="1"/>
        <pt x="365" y="-23" on="0"/>
        <pt x="92" y="297" on="0"/>
        <pt x="92" y="548" on="1"/>
        <pt x="92" y="804" on="0"/>
        <pt x="366" y="1120" on="0"/>
        <pt x="605" y="1120" on="1"/>
        <pt x="840" y="1120" on="0"/>
        <pt x="1108" y="803" on="0"/>
      </contour>
    </TTGlyph>
    <TTGlyph name="oacute" xMin="92" yMin="-23" xMax="1108" yMax="1630">
      <component glyphName="acute" x="415" y="-8" flags="0x1004"/>
      <component glyphName="o" x="0" y="0" flags="0x1204"/>
    </TTGlyph>
    <TTGlyph name="obreve" xMin="92" yMin="-23" xMax="1108" yMax="1500">
      <component glyphName="breve" x="221" y="-57" flags="0x1004"/>
      <component glyphName="o" x="0" y="0" flags="0x1204"/>
    </TTGlyph>
    <TTGlyph name="ocircumflex" xMin="92" yMin="-23" xMax="1108" yMax="1630">
      <component glyphName="circumflex" x="198" y="-9" flags="0x1004"/>
      <component glyphName="o" x="0" y="0" flags="0x1204"/>
    </TTGlyph>
    <TTGlyph name="odieresis" xMin="92" yMin="-23" xMax="1108" yMax="1454">
      <component glyphName="dieresis" x="210" y="-12" flags="0x1004"/>
      <component glyphName="o" x="0" y="0" flags="0x1204"/>
    </TTGlyph>
    <TTGlyph name="oe" xMin="82" yMin="-25" xMax="1834" yMax="1124">
      <contour>
        <pt x="1099" y="634" on="1"/>
        <pt x="1672" y="634" on="1"/>
        <pt x="1672" y="647" on="1"/>
        <pt x="1669" y="813" on="0"/>
        <pt x="1526" y="988" on="0"/>
        <pt x="1404" y="988" on="1"/>
        <pt x="1279" y="988" on="0"/>
        <pt x="1113" y="796" on="0"/>
      </contour>
      <contour>
        <pt x="590" y="113" on="1"/>
        <pt x="676" y="113" on="0"/>
        <pt x="807" y="185" on="0"/>
        <pt x="883" y="308" on="0"/>
        <pt x="921" y="460" on="0"/>
        <pt x="921" y="547" on="1"/>
        <pt x="921" y="638" on="0"/>
        <pt x="885" y="791" on="0"/>
        <pt x="809" y="916" on="0"/>
        <pt x="676" y="986" on="0"/>
        <pt x="587" y="986" on="1"/>
        <pt x="518" y="986" on="0"/>
        <pt x="406" y="937" on="0"/>
        <pt x="330" y="853" on="0"/>
        <pt x="278" y="739" on="0"/>
        <pt x="255" y="613" on="0"/>
        <pt x="255" y="544" on="1"/>
        <pt x="255" y="458" on="0"/>
        <pt x="293" y="308" on="0"/>
        <pt x="371" y="184" on="0"/>
        <pt x="503" y="113" on="0"/>
      </contour>
      <contour>
        <pt x="587" y="-25" on="1"/>
        <pt x="426" y="-25" on="0"/>
        <pt x="194" y="131" on="0"/>
        <pt x="82" y="386" on="0"/>
        <pt x="82" y="547" on="1"/>
        <pt x="82" y="666" on="0"/>
        <pt x="149" y="874" on="0"/>
        <pt x="273" y="1032" on="0"/>
        <pt x="469" y="1124" on="0"/>
        <pt x="590" y="1124" on="1"/>
        <pt x="736" y="1124" on="0"/>
        <pt x="945" y="1000" on="0"/>
        <pt x="1005" y="889" on="1"/>
        <pt x="1066" y="995" on="0"/>
        <pt x="1284" y="1120" on="0"/>
        <pt x="1414" y="1124" on="1"/>
        <pt x="1616" y="1124" on="0"/>
        <pt x="1834" y="841" on="0"/>
        <pt x="1834" y="594" on="1"/>
        <pt x="1834" y="586" on="0"/>
        <pt x="1832" y="529" on="0"/>
        <pt x="1832" y="519" on="1"/>
        <pt x="1093" y="519" on="1"/>
        <pt x="1093" y="337" on="0"/>
        <pt x="1283" y="119" on="0"/>
        <pt x="1430" y="119" on="1"/>
        <pt x="1535" y="119" on="0"/>
        <pt x="1692" y="179" on="0"/>
        <pt x="1766" y="229" on="1"/>
        <pt x="1818" y="107" on="1"/>
        <pt x="1664" y="-25" on="0"/>
        <pt x="1425" y="-25" on="1"/>
        <pt x="1281" y="-25" on="0"/>
        <pt x="1063" y="97" on="0"/>
        <pt x="1000" y="211" on="1"/>
        <pt x="937" y="101" on="0"/>
        <pt x="728" y="-25" on="0"/>
      </contour>
    </TTGlyph>
    <TTGlyph name="ogonek" xMin="118" yMin="-419" xMax="468" yMax="5">
      <contour>
        <pt x="331" y="-303" on="1"/>
        <pt x="388" y="-303" on="0"/>
        <pt x="468" y="-270" on="1"/>
        <pt x="468" y="-387" on="1"/>
        <pt x="392" y="-419" on="0"/>
        <pt x="311" y="-419" on="1"/>
        <pt x="227" y="-419" on="0"/>
        <pt x="118" y="-326" on="0"/>
        <pt x="118" y="-243" on="1"/>
        <pt x="118" y="-106" on="0"/>
        <pt x="309" y="5" on="1"/>
        <pt x="423" y="5" on="1"/>
        <pt x="243" y="-128" on="0"/>
        <pt x="243" y="-214" on="1"/>
        <pt x="243" y="-252" on="0"/>
        <pt x="298" y="-303" on="0"/>
      </contour>
    </TTGlyph>
    <TTGlyph name="ograve" xMin="92" yMin="-23" xMax="1108" yMax="1629">
      <component glyphName="grave" x="136" y="-9" flags="0x1004"/>
      <component glyphName="o" x="0" y="0" flags="0x1204"/>
    </TTGlyph>
    <TTGlyph name="ohungarumlaut" xMin="92" yMin="-23" xMax="1108" yMax="1577">
      <component glyphName="hungarumlaut" x="304" y="-17" flags="0x1004"/>
      <component glyphName="o" x="0" y="0" flags="0x1204"/>
    </TTGlyph>
    <TTGlyph name="omacron" xMin="92" yMin="-23" xMax="1108" yMax="1364">
      <component glyphName="macron" x="69" y="-261" flags="0x1004"/>
      <component glyphName="o" x="0" y="0" flags="0x1204"/>
    </TTGlyph>
    <TTGlyph name="one" xMin="37" yMin="0" xMax="461" yMax="1496">
      <contour>
        <pt x="302" y="1496" on="1"/>
        <pt x="461" y="1496" on="1"/>
        <pt x="461" y="0" on="1"/>
        <pt x="284" y="0" on="1"/>
        <pt x="284" y="1311" on="1"/>
        <pt x="183" y="1245" on="0"/>
        <pt x="37" y="1198" on="1"/>
        <pt x="37" y="1365" on="1"/>
        <pt x="53" y="1372" on="0"/>
        <pt x="151" y="1414" on="0"/>
        <pt x="200" y="1436" on="0"/>
        <pt x="274" y="1476" on="0"/>
      </contour>
    </TTGlyph>
    <TTGlyph name="onehalf" xMin="122" yMin="-30" xMax="1499" yMax="1547">
      <contour>
        <pt x="245" y="0" on="1"/>
        <pt x="1165" y="1547" on="1"/>
        <pt x="1300" y="1547" on="1"/>
        <pt x="379" y="0" on="1"/>
      </contour>
      <contour>
        <pt x="934" y="-30" on="1"/>
        <pt x="934" y="63" on="1"/>
        <pt x="1157" y="287" on="0"/>
        <pt x="1218" y="355" on="1"/>
        <pt x="1367" y="527" on="0"/>
        <pt x="1370" y="617" on="1"/>
        <pt x="1370" y="682" on="0"/>
        <pt x="1290" y="760" on="0"/>
        <pt x="1176" y="760" on="0"/>
        <pt x="1062" y="697" on="0"/>
        <pt x="1020" y="634" on="1"/>
        <pt x="943" y="699" on="1"/>
        <pt x="977" y="778" on="0"/>
        <pt x="1143" y="868" on="0"/>
        <pt x="1237" y="868" on="1"/>
        <pt x="1347" y="868" on="0"/>
        <pt x="1499" y="745" on="0"/>
        <pt x="1499" y="629" on="1"/>
        <pt x="1499" y="593" on="0"/>
        <pt x="1485" y="524" on="0"/>
        <pt x="1445" y="448" on="0"/>
        <pt x="1414" y="393" on="0"/>
        <pt x="1338" y="306" on="0"/>
        <pt x="1299" y="261" on="0"/>
        <pt x="1195" y="162" on="0"/>
        <pt x="1154" y="125" on="0"/>
        <pt x="1093" y="69" on="1"/>
        <pt x="1487" y="69" on="1"/>
        <pt x="1487" y="-30" on="1"/>
      </contour>
      <contour>
        <pt x="135" y="650" on="1"/>
        <pt x="135" y="746" on="1"/>
        <pt x="253" y="746" on="1"/>
        <pt x="253" y="1409" on="1"/>
        <pt x="205" y="1377" on="0"/>
        <pt x="122" y="1334" on="1"/>
        <pt x="122" y="1436" on="1"/>
        <pt x="216" y="1484" on="0"/>
        <pt x="271" y="1539" on="1"/>
        <pt x="368" y="1538" on="1"/>
        <pt x="368" y="746" on="1"/>
        <pt x="492" y="746" on="1"/>
        <pt x="492" y="650" on="1"/>
      </contour>
    </TTGlyph>
    <TTGlyph name="onequarter" xMin="122" yMin="0" xMax="1526" yMax="1547">
      <contour>
        <pt x="122" y="1334" on="1"/>
        <pt x="122" y="1436" on="1"/>
        <pt x="216" y="1484" on="0"/>
        <pt x="271" y="1539" on="1"/>
        <pt x="368" y="1538" on="1"/>
        <pt x="368" y="746" on="1"/>
        <pt x="492" y="746" on="1"/>
        <pt x="492" y="650" on="1"/>
        <pt x="135" y="650" on="1"/>
        <pt x="135" y="746" on="1"/>
        <pt x="253" y="746" on="1"/>
        <pt x="253" y="1409" on="1"/>
        <pt x="205" y="1377" on="0"/>
      </contour>
      <contour>
        <pt x="1420" y="40" on="1"/>
        <pt x="1313" y="40" on="1"/>
        <pt x="1313" y="240" on="1"/>
        <pt x="923" y="240" on="1"/>
        <pt x="923" y="339" on="1"/>
        <pt x="1302" y="899" on="1"/>
        <pt x="1422" y="899" on="1"/>
        <pt x="1422" y="358" on="1"/>
        <pt x="1516" y="358" on="1"/>
        <pt x="1526" y="240" on="1"/>
        <pt x="1420" y="240" on="1"/>
      </contour>
      <contour>
        <pt x="1165" y="1547" on="1"/>
        <pt x="1300" y="1547" on="1"/>
        <pt x="379" y="0" on="1"/>
        <pt x="245" y="0" on="1"/>
      </contour>
      <contour>
        <pt x="1066" y="358" on="1"/>
        <pt x="1312" y="358" on="1"/>
        <pt x="1312" y="688" on="0"/>
        <pt x="1313" y="716" on="1"/>
      </contour>
    </TTGlyph>
    <TTGlyph name="ordfeminine" xMin="128" yMin="635" xMax="679" yMax="1590">
      <contour>
        <pt x="134" y="741" on="1"/>
        <pt x="679" y="741" on="1"/>
        <pt x="679" y="635" on="1"/>
        <pt x="134" y="635" on="1"/>
      </contour>
      <contour>
        <pt x="369" y="937" on="1"/>
        <pt x="453" y="937" on="0"/>
        <pt x="539" y="1068" on="0"/>
        <pt x="543" y="1168" on="1"/>
        <pt x="543" y="1195" on="1"/>
        <pt x="528" y="1193" on="0"/>
        <pt x="463" y="1188" on="0"/>
        <pt x="425" y="1184" on="0"/>
        <pt x="366" y="1175" on="0"/>
        <pt x="330" y="1163" on="0"/>
        <pt x="287" y="1141" on="0"/>
        <pt x="263" y="1114" on="0"/>
        <pt x="247" y="1073" on="0"/>
        <pt x="247" y="1048" on="1"/>
        <pt x="247" y="937" on="0"/>
      </contour>
      <contour>
        <pt x="350" y="826" on="1"/>
        <pt x="253" y="826" on="0"/>
        <pt x="128" y="949" on="0"/>
        <pt x="128" y="1050" on="1"/>
        <pt x="128" y="1106" on="0"/>
        <pt x="171" y="1188" on="0"/>
        <pt x="238" y="1237" on="0"/>
        <pt x="353" y="1270" on="0"/>
        <pt x="463" y="1284" on="0"/>
        <pt x="543" y="1289" on="1"/>
        <pt x="543" y="1307" on="1"/>
        <pt x="541" y="1397" on="0"/>
        <pt x="485" y="1473" on="0"/>
        <pt x="413" y="1473" on="1"/>
        <pt x="345" y="1473" on="0"/>
        <pt x="247" y="1440" on="0"/>
        <pt x="198" y="1385" on="1"/>
        <pt x="137" y="1463" on="1"/>
        <pt x="234" y="1590" on="0"/>
        <pt x="419" y="1590" on="1"/>
        <pt x="525" y="1590" on="0"/>
        <pt x="660" y="1462" on="0"/>
        <pt x="660" y="1330" on="1"/>
        <pt x="658" y="982" on="1"/>
        <pt x="658" y="956" on="0"/>
        <pt x="664" y="847" on="1"/>
        <pt x="546" y="847" on="1"/>
        <pt x="543" y="926" on="1"/>
        <pt x="476" y="826" on="0"/>
      </contour>
    </TTGlyph>
    <TTGlyph name="ordmasculine" xMin="131" yMin="826" xMax="769" yMax="1590">
      <contour>
        <pt x="256" y="1207" on="1"/>
        <pt x="256" y="1090" on="0"/>
        <pt x="358" y="941" on="0"/>
        <pt x="453" y="941" on="1"/>
        <pt x="543" y="941" on="0"/>
        <pt x="645" y="1092" on="0"/>
        <pt x="645" y="1203" on="1"/>
        <pt x="645" y="1319" on="0"/>
        <pt x="541" y="1473" on="0"/>
        <pt x="449" y="1473" on="1"/>
        <pt x="360" y="1473" on="0"/>
        <pt x="256" y="1320" on="0"/>
      </contour>
      <contour>
        <pt x="303" y="1590" on="0"/>
        <pt x="599" y="1590" on="0"/>
        <pt x="769" y="1372" on="0"/>
        <pt x="769" y="1205" on="1"/>
        <pt x="769" y="1041" on="0"/>
        <pt x="600" y="826" on="0"/>
        <pt x="453" y="826" on="1"/>
        <pt x="299" y="826" on="0"/>
        <pt x="131" y="1041" on="0"/>
        <pt x="131" y="1210" on="1"/>
        <pt x="131" y="1374" on="0"/>
      </contour>
    </TTGlyph>
    <TTGlyph name="oslash" xMin="92" yMin="-235" xMax="1108" yMax="1327">
      <contour>
        <pt x="294" y="-235" on="1"/>
        <pt x="223" y="-197" on="1"/>
        <pt x="332" y="48" on="1"/>
        <pt x="217" y="119" on="0"/>
        <pt x="92" y="381" on="0"/>
        <pt x="92" y="548" on="1"/>
        <pt x="92" y="804" on="0"/>
        <pt x="366" y="1120" on="0"/>
        <pt x="605" y="1120" on="1"/>
        <pt x="707" y="1120" on="0"/>
        <pt x="795" y="1087" on="1"/>
        <pt x="902" y="1327" on="1"/>
        <pt x="979" y="1296" on="1"/>
        <pt x="869" y="1051" on="1"/>
        <pt x="984" y="981" on="0"/>
        <pt x="1108" y="718" on="0"/>
        <pt x="1108" y="549" on="1"/>
        <pt x="1108" y="294" on="0"/>
        <pt x="836" y="-23" on="0"/>
        <pt x="596" y="-23" on="1"/>
        <pt x="491" y="-23" on="0"/>
        <pt x="404" y="12" on="1"/>
      </contour>
      <contour>
        <pt x="736" y="955" on="1"/>
        <pt x="675" y="980" on="0"/>
        <pt x="601" y="980" on="1"/>
        <pt x="437" y="980" on="0"/>
        <pt x="265" y="744" on="0"/>
        <pt x="265" y="546" on="1"/>
        <pt x="265" y="299" on="0"/>
        <pt x="394" y="188" on="1"/>
      </contour>
      <contour>
        <pt x="807" y="913" on="1"/>
        <pt x="463" y="144" on="1"/>
        <pt x="525" y="116" on="0"/>
        <pt x="604" y="116" on="1"/>
        <pt x="768" y="116" on="0"/>
        <pt x="935" y="350" on="0"/>
        <pt x="935" y="548" on="1"/>
        <pt x="935" y="805" on="0"/>
      </contour>
    </TTGlyph>
    <TTGlyph name="otilde" xMin="92" yMin="-23" xMax="1108" yMax="1487">
      <component glyphName="tilde" x="-28" y="1128" flags="0x1004"/>
      <component glyphName="o" x="0" y="0" flags="0x1204"/>
    </TTGlyph>
    <TTGlyph name="p" xMin="143" yMin="-476" xMax="1109" yMax="1120">
      <contour>
        <pt x="143" y="-476" on="1"/>
        <pt x="143" y="1097" on="1"/>
        <pt x="290" y="1097" on="1"/>
        <pt x="306" y="948" on="1"/>
        <pt x="450" y="1120" on="0"/>
        <pt x="652" y="1120" on="1"/>
        <pt x="802" y="1120" on="0"/>
        <pt x="1010" y="970" on="0"/>
        <pt x="1109" y="714" on="0"/>
        <pt x="1109" y="543" on="1"/>
        <pt x="1109" y="379" on="0"/>
        <pt x="1001" y="124" on="0"/>
        <pt x="792" y="-23" on="0"/>
        <pt x="652" y="-23" on="1"/>
        <pt x="546" y="-23" on="0"/>
        <pt x="360" y="72" on="0"/>
        <pt x="304" y="150" on="1"/>
        <pt x="310" y="42" on="0"/>
        <pt x="310" y="-60" on="1"/>
        <pt x="310" y="-465" on="1"/>
      </contour>
      <contour>
        <pt x="629" y="118" on="1"/>
        <pt x="705" y="118" on="0"/>
        <pt x="825" y="187" on="0"/>
        <pt x="899" y="307" on="0"/>
        <pt x="937" y="460" on="0"/>
        <pt x="937" y="549" on="1"/>
        <pt x="937" y="737" on="0"/>
        <pt x="779" y="978" on="0"/>
        <pt x="627" y="978" on="1"/>
        <pt x="309" y="978" on="0"/>
        <pt x="309" y="567" on="1"/>
        <pt x="309" y="344" on="0"/>
        <pt x="458" y="118" on="0"/>
      </contour>
    </TTGlyph>
    <TTGlyph name="paragraph" xMin="13" yMin="-158" xMax="927" yMax="1561">
      <contour>
        <pt x="393" y="-158" on="1"/>
        <pt x="393" y="847" on="1"/>
        <pt x="286" y="849" on="0"/>
        <pt x="109" y="957" on="0"/>
        <pt x="13" y="1122" on="0"/>
        <pt x="13" y="1212" on="1"/>
        <pt x="13" y="1281" on="0"/>
        <pt x="64" y="1402" on="0"/>
        <pt x="167" y="1502" on="0"/>
        <pt x="344" y="1561" on="0"/>
        <pt x="461" y="1561" on="1"/>
        <pt x="927" y="1561" on="1"/>
        <pt x="927" y="1430" on="1"/>
        <pt x="852" y="1430" on="1"/>
        <pt x="852" y="-158" on="1"/>
        <pt x="737" y="-158" on="1"/>
        <pt x="737" y="1430" on="1"/>
        <pt x="518" y="1430" on="1"/>
        <pt x="518" y="-158" on="1"/>
      </contour>
    </TTGlyph>
    <TTGlyph name="parenleft" xMin="103" yMin="-271" xMax="531" yMax="1486">
      <contour>
        <pt x="103" y="598" on="1"/>
        <pt x="103" y="1088" on="0"/>
        <pt x="376" y="1486" on="1"/>
        <pt x="531" y="1486" on="1"/>
        <pt x="273" y="1084" on="0"/>
        <pt x="273" y="602" on="1"/>
        <pt x="273" y="376" on="0"/>
        <pt x="409" y="-84" on="0"/>
        <pt x="531" y="-271" on="1"/>
        <pt x="378" y="-271" on="1"/>
        <pt x="249" y="-92" on="0"/>
        <pt x="103" y="357" on="0"/>
      </contour>
    </TTGlyph>
    <TTGlyph name="parenright" xMin="77" yMin="-271" xMax="506" yMax="1486">
      <contour>
        <pt x="506" y="598" on="1"/>
        <pt x="506" y="357" on="0"/>
        <pt x="360" y="-91" on="0"/>
        <pt x="230" y="-271" on="1"/>
        <pt x="78" y="-271" on="1"/>
        <pt x="200" y="-84" on="0"/>
        <pt x="336" y="376" on="0"/>
        <pt x="336" y="602" on="1"/>
        <pt x="336" y="1082" on="0"/>
        <pt x="77" y="1486" on="1"/>
        <pt x="232" y="1486" on="1"/>
        <pt x="506" y="1082" on="0"/>
      </contour>
    </TTGlyph>
    <TTGlyph name="partialdiff" xMin="113" yMin="-28" xMax="1069" yMax="1652">
      <contour>
        <pt x="301" y="1405" on="1"/>
        <pt x="288" y="1553" on="1"/>
        <pt x="434" y="1652" on="0"/>
        <pt x="609" y="1652" on="1"/>
        <pt x="1069" y="1652" on="0"/>
        <pt x="1069" y="917" on="1"/>
        <pt x="1069" y="774" on="0"/>
        <pt x="1029" y="507" on="0"/>
        <pt x="942" y="262" on="0"/>
        <pt x="814" y="80" on="0"/>
        <pt x="625" y="-28" on="0"/>
        <pt x="510" y="-28" on="1"/>
        <pt x="409" y="-28" on="0"/>
        <pt x="255" y="45" on="0"/>
        <pt x="160" y="177" on="0"/>
        <pt x="113" y="349" on="0"/>
        <pt x="113" y="452" on="1"/>
        <pt x="113" y="627" on="0"/>
        <pt x="238" y="913" on="0"/>
        <pt x="464" y="1077" on="0"/>
        <pt x="606" y="1077" on="1"/>
        <pt x="811" y="1077" on="0"/>
        <pt x="917" y="901" on="1"/>
        <pt x="917" y="909" on="0"/>
        <pt x="918" y="965" on="0"/>
        <pt x="918" y="980" on="1"/>
        <pt x="918" y="1227" on="0"/>
        <pt x="746" y="1507" on="0"/>
        <pt x="585" y="1507" on="1"/>
        <pt x="447" y="1507" on="0"/>
      </contour>
      <contour>
        <pt x="511" y="119" on="1"/>
        <pt x="616" y="119" on="0"/>
        <pt x="786" y="279" on="0"/>
        <pt x="888" y="541" on="0"/>
        <pt x="904" y="705" on="1"/>
        <pt x="876" y="803" on="0"/>
        <pt x="733" y="935" on="0"/>
        <pt x="529" y="935" on="0"/>
        <pt x="358" y="802" on="0"/>
        <pt x="261" y="579" on="0"/>
        <pt x="261" y="450" on="1"/>
        <pt x="261" y="300" on="0"/>
        <pt x="397" y="119" on="0"/>
      </contour>
    </TTGlyph>
    <TTGlyph name="percent" xMin="103" yMin="-15" xMax="1784" yMax="1489">
      <contour>
        <pt x="1431" y="754" on="1"/>
        <pt x="1600" y="754" on="0"/>
        <pt x="1784" y="541" on="0"/>
        <pt x="1784" y="369" on="1"/>
        <pt x="1784" y="201" on="0"/>
        <pt x="1597" y="-15" on="0"/>
        <pt x="1431" y="-15" on="1"/>
        <pt x="1263" y="-15" on="0"/>
        <pt x="1079" y="200" on="0"/>
        <pt x="1079" y="538" on="0"/>
        <pt x="1265" y="754" on="0"/>
      </contour>
      <contour>
        <pt x="1538" y="640" on="0"/>
        <pt x="1324" y="640" on="0"/>
        <pt x="1205" y="482" on="0"/>
        <pt x="1205" y="369" on="1"/>
        <pt x="1205" y="254" on="0"/>
        <pt x="1324" y="98" on="0"/>
        <pt x="1538" y="98" on="0"/>
        <pt x="1657" y="256" on="0"/>
        <pt x="1657" y="369" on="1"/>
        <pt x="1657" y="484" on="0"/>
      </contour>
      <contour>
        <pt x="401" y="-4" on="1"/>
        <pt x="1196" y="1462" on="1"/>
        <pt x="1358" y="1462" on="1"/>
        <pt x="536" y="-4" on="1"/>
      </contour>
      <contour>
        <pt x="420" y="1489" on="1"/>
        <pt x="565" y="1489" on="0"/>
        <pt x="740" y="1272" on="0"/>
        <pt x="740" y="1104" on="1"/>
        <pt x="740" y="940" on="0"/>
        <pt x="564" y="728" on="0"/>
        <pt x="420" y="728" on="1"/>
        <pt x="275" y="728" on="0"/>
        <pt x="103" y="939" on="0"/>
        <pt x="103" y="1104" on="1"/>
        <pt x="103" y="1271" on="0"/>
        <pt x="276" y="1489" on="0"/>
      </contour>
      <contour>
        <pt x="420" y="1378" on="1"/>
        <pt x="330" y="1378" on="0"/>
        <pt x="230" y="1218" on="0"/>
        <pt x="230" y="1104" on="1"/>
        <pt x="230" y="989" on="0"/>
        <pt x="329" y="844" on="0"/>
        <pt x="511" y="844" on="0"/>
        <pt x="611" y="993" on="0"/>
        <pt x="611" y="1104" on="1"/>
        <pt x="611" y="1219" on="0"/>
        <pt x="509" y="1378" on="0"/>
      </contour>
    </TTGlyph>
    <TTGlyph name="period" xMin="128" yMin="-12" xMax="394" yMax="252">
      <contour>
        <pt x="261" y="-12" on="1"/>
        <pt x="199" y="-12" on="0"/>
        <pt x="128" y="67" on="0"/>
        <pt x="128" y="120" on="1"/>
        <pt x="128" y="174" on="0"/>
        <pt x="198" y="252" on="0"/>
        <pt x="324" y="252" on="0"/>
        <pt x="394" y="174" on="0"/>
        <pt x="394" y="66" on="0"/>
        <pt x="324" y="-12" on="0"/>
      </contour>
    </TTGlyph>
    <TTGlyph name="periodcentered" xMin="150" yMin="561" xMax="318" yMax="759">
      <contour>
        <pt x="318" y="759" on="1"/>
        <pt x="318" y="561" on="1"/>
        <pt x="150" y="561" on="1"/>
        <pt x="150" y="759" on="1"/>
      </contour>
    </TTGlyph>
    <TTGlyph name="perthousand" xMin="108" yMin="-30" xMax="2207" yMax="1559">
      <contour>
        <pt x="395" y="-22" on="1"/>
        <pt x="259" y="-22" on="1"/>
        <pt x="1115" y="1547" on="1"/>
        <pt x="1272" y="1547" on="1"/>
      </contour>
      <contour>
        <pt x="404" y="1438" on="1"/>
        <pt x="323" y="1438" on="0"/>
        <pt x="237" y="1291" on="0"/>
        <pt x="237" y="1180" on="1"/>
        <pt x="237" y="1064" on="0"/>
        <pt x="324" y="919" on="0"/>
        <pt x="408" y="919" on="1"/>
        <pt x="488" y="919" on="0"/>
        <pt x="574" y="1067" on="0"/>
        <pt x="574" y="1178" on="1"/>
        <pt x="574" y="1294" on="0"/>
        <pt x="487" y="1438" on="0"/>
      </contour>
      <contour>
        <pt x="1105" y="610" on="1"/>
        <pt x="1010" y="610" on="0"/>
        <pt x="908" y="465" on="0"/>
        <pt x="908" y="354" on="1"/>
        <pt x="908" y="239" on="0"/>
        <pt x="1011" y="93" on="0"/>
        <pt x="1107" y="93" on="1"/>
        <pt x="1202" y="93" on="0"/>
        <pt x="1305" y="244" on="0"/>
        <pt x="1305" y="354" on="1"/>
        <pt x="1305" y="469" on="0"/>
        <pt x="1204" y="610" on="0"/>
      </contour>
      <contour>
        <pt x="1104" y="-30" on="1"/>
        <pt x="943" y="-30" on="0"/>
        <pt x="777" y="176" on="0"/>
        <pt x="777" y="354" on="1"/>
        <pt x="777" y="525" on="0"/>
        <pt x="945" y="735" on="0"/>
        <pt x="1107" y="735" on="1"/>
        <pt x="1270" y="735" on="0"/>
        <pt x="1434" y="532" on="0"/>
        <pt x="1434" y="352" on="1"/>
        <pt x="1434" y="183" on="0"/>
        <pt x="1264" y="-30" on="0"/>
      </contour>
      <contour>
        <pt x="404" y="796" on="1"/>
        <pt x="264" y="796" on="0"/>
        <pt x="108" y="1004" on="0"/>
        <pt x="108" y="1180" on="1"/>
        <pt x="108" y="1349" on="0"/>
        <pt x="265" y="1559" on="0"/>
        <pt x="406" y="1559" on="1"/>
        <pt x="549" y="1559" on="0"/>
        <pt x="702" y="1355" on="0"/>
        <pt x="702" y="1176" on="1"/>
        <pt x="702" y="1009" on="0"/>
        <pt x="542" y="796" on="0"/>
      </contour>
      <contour>
        <pt x="1876" y="-30" on="1"/>
        <pt x="1717" y="-30" on="0"/>
        <pt x="1550" y="176" on="0"/>
        <pt x="1550" y="354" on="1"/>
        <pt x="1550" y="525" on="0"/>
        <pt x="1720" y="735" on="0"/>
        <pt x="1881" y="735" on="1"/>
        <pt x="2043" y="735" on="0"/>
        <pt x="2207" y="533" on="0"/>
        <pt x="2207" y="352" on="1"/>
        <pt x="2207" y="183" on="0"/>
        <pt x="2036" y="-30" on="0"/>
      </contour>
      <contour>
        <pt x="1879" y="610" on="1"/>
        <pt x="1782" y="610" on="0"/>
        <pt x="1677" y="465" on="0"/>
        <pt x="1677" y="354" on="1"/>
        <pt x="1677" y="238" on="0"/>
        <pt x="1782" y="93" on="0"/>
        <pt x="1881" y="93" on="1"/>
        <pt x="1976" y="93" on="0"/>
        <pt x="2081" y="243" on="0"/>
        <pt x="2081" y="354" on="1"/>
        <pt x="2081" y="466" on="0"/>
        <pt x="1975" y="610" on="0"/>
      </contour>
    </TTGlyph>
    <TTGlyph name="pi" xMin="160" yMin="-8" xMax="1296" yMax="1120">
      <contour>
        <pt x="1296" y="1120" on="1"/>
        <pt x="1296" y="976" on="1"/>
        <pt x="1114" y="976" on="1"/>
        <pt x="1114" y="312" on="1"/>
        <pt x="1114" y="287" on="0"/>
        <pt x="1116" y="255" on="0"/>
        <pt x="1125" y="207" on="0"/>
        <pt x="1143" y="179" on="0"/>
        <pt x="1177" y="158" on="0"/>
        <pt x="1227" y="158" on="0"/>
        <pt x="1278" y="172" on="1"/>
        <pt x="1278" y="6" on="1"/>
        <pt x="1199" y="-8" on="0"/>
        <pt x="1160" y="-8" on="1"/>
        <pt x="1057" y="-8" on="0"/>
        <pt x="976" y="132" on="0"/>
        <pt x="976" y="301" on="1"/>
        <pt x="976" y="976" on="1"/>
        <pt x="570" y="976" on="1"/>
        <pt x="539" y="176" on="0"/>
        <pt x="446" y="0" on="1"/>
        <pt x="298" y="0" on="1"/>
        <pt x="401" y="221" on="0"/>
        <pt x="420" y="976" on="1"/>
        <pt x="268" y="972" on="0"/>
        <pt x="176" y="911" on="1"/>
        <pt x="160" y="1053" on="1"/>
        <pt x="202" y="1093" on="0"/>
        <pt x="343" y="1120" on="0"/>
        <pt x="470" y="1120" on="1"/>
      </contour>
    </TTGlyph>
    <TTGlyph name="plus" xMin="102" yMin="153" xMax="1027" yMax="1142">
      <contour>
        <pt x="637" y="718" on="1"/>
        <pt x="1027" y="718" on="1"/>
        <pt x="1027" y="582" on="1"/>
        <pt x="636" y="582" on="1"/>
        <pt x="636" y="153" on="1"/>
        <pt x="499" y="153" on="1"/>
        <pt x="499" y="582" on="1"/>
        <pt x="102" y="582" on="1"/>
        <pt x="102" y="718" on="1"/>
        <pt x="500" y="718" on="1"/>
        <pt x="500" y="1142" on="1"/>
        <pt x="637" y="1142" on="1"/>
      </contour>
    </TTGlyph>
    <TTGlyph name="plusminus" xMin="118" yMin="0" xMax="1088" yMax="1206">
      <contour>
        <pt x="118" y="0" on="1"/>
        <pt x="118" y="143" on="1"/>
        <pt x="1088" y="143" on="1"/>
        <pt x="1088" y="0" on="1"/>
      </contour>
      <contour>
        <pt x="668" y="790" on="1"/>
        <pt x="1086" y="790" on="1"/>
        <pt x="1086" y="647" on="1"/>
        <pt x="670" y="647" on="1"/>
        <pt x="670" y="233" on="1"/>
        <pt x="533" y="233" on="1"/>
        <pt x="533" y="647" on="1"/>
        <pt x="118" y="647" on="1"/>
        <pt x="118" y="790" on="1"/>
        <pt x="532" y="790" on="1"/>
        <pt x="532" y="1206" on="1"/>
        <pt x="668" y="1206" on="1"/>
      </contour>
    </TTGlyph>
    <TTGlyph name="product" xMin="147" yMin="0" xMax="1316" yMax="1496">
      <contour>
        <pt x="1139" y="1342" on="1"/>
        <pt x="324" y="1342" on="1"/>
        <pt x="324" y="0" on="1"/>
        <pt x="147" y="0" on="1"/>
        <pt x="147" y="1496" on="1"/>
        <pt x="1316" y="1496" on="1"/>
        <pt x="1316" y="0" on="1"/>
        <pt x="1139" y="0" on="1"/>
      </contour>
    </TTGlyph>
    <TTGlyph name="q" xMin="96" yMin="-476" xMax="1065" yMax="1120">
      <contour>
        <pt x="552" y="-23" on="1"/>
        <pt x="409" y="-23" on="0"/>
        <pt x="200" y="125" on="0"/>
        <pt x="96" y="377" on="0"/>
        <pt x="96" y="541" on="1"/>
        <pt x="96" y="711" on="0"/>
        <pt x="200" y="970" on="0"/>
        <pt x="412" y="1120" on="0"/>
        <pt x="560" y="1120" on="1"/>
        <pt x="765" y="1120" on="0"/>
        <pt x="905" y="942" on="1"/>
        <pt x="917" y="1097" on="1"/>
        <pt x="1065" y="1097" on="1"/>
        <pt x="1065" y="-466" on="1"/>
        <pt x="898" y="-476" on="1"/>
        <pt x="898" y="11" on="1"/>
        <pt x="898" y="84" on="0"/>
        <pt x="903" y="159" on="1"/>
        <pt x="847" y="75" on="0"/>
        <pt x="665" y="-23" on="0"/>
      </contour>
      <contour>
        <pt x="574" y="121" on="1"/>
        <pt x="740" y="121" on="0"/>
        <pt x="897" y="329" on="0"/>
        <pt x="899" y="529" on="1"/>
        <pt x="899" y="750" on="0"/>
        <pt x="745" y="976" on="0"/>
        <pt x="573" y="976" on="1"/>
        <pt x="469" y="976" on="0"/>
        <pt x="328" y="857" on="0"/>
        <pt x="268" y="670" on="0"/>
        <pt x="268" y="547" on="1"/>
        <pt x="268" y="454" on="0"/>
        <pt x="303" y="303" on="0"/>
        <pt x="375" y="186" on="0"/>
        <pt x="494" y="121" on="0"/>
      </contour>
    </TTGlyph>
    <TTGlyph name="question" xMin="73" yMin="-12" xMax="765" yMax="1524">
      <contour>
        <pt x="404" y="435" on="1"/>
        <pt x="317" y="435" on="1"/>
        <pt x="317" y="499" on="0"/>
        <pt x="376" y="665" on="0"/>
        <pt x="460" y="824" on="0"/>
        <pt x="543" y="980" on="0"/>
        <pt x="602" y="1132" on="0"/>
        <pt x="602" y="1186" on="1"/>
        <pt x="601" y="1281" on="0"/>
        <pt x="481" y="1373" on="0"/>
        <pt x="377" y="1373" on="1"/>
        <pt x="248" y="1373" on="0"/>
        <pt x="118" y="1292" on="1"/>
        <pt x="73" y="1427" on="1"/>
        <pt x="196" y="1524" on="0"/>
        <pt x="404" y="1524" on="1"/>
        <pt x="566" y="1524" on="0"/>
        <pt x="765" y="1353" on="0"/>
        <pt x="765" y="1200" on="1"/>
        <pt x="765" y="1123" on="0"/>
        <pt x="720" y="977" on="0"/>
        <pt x="640" y="838" on="0"/>
        <pt x="553" y="707" on="0"/>
        <pt x="444" y="523" on="0"/>
      </contour>
      <contour>
        <pt x="242" y="67" on="0"/>
        <pt x="242" y="173" on="0"/>
        <pt x="313" y="252" on="0"/>
        <pt x="375" y="252" on="1"/>
        <pt x="438" y="252" on="0"/>
        <pt x="508" y="174" on="0"/>
        <pt x="508" y="66" on="0"/>
        <pt x="438" y="-12" on="0"/>
        <pt x="375" y="-12" on="1"/>
        <pt x="313" y="-12" on="0"/>
      </contour>
    </TTGlyph>
    <TTGlyph name="questiondown" xMin="73" yMin="-310" xMax="765" yMax="1226">
      <component glyphName="question" x="838" y="1214" scale="-1.0" flags="0x1004"/>
    </TTGlyph>
    <TTGlyph name="quotedbl" xMin="139" yMin="1016" xMax="576" yMax="1510">
      <contour>
        <pt x="446" y="1016" on="1"/>
        <pt x="425" y="1510" on="1"/>
        <pt x="576" y="1510" on="1"/>
        <pt x="547" y="1016" on="1"/>
      </contour>
      <contour>
        <pt x="160" y="1016" on="1"/>
        <pt x="139" y="1510" on="1"/>
        <pt x="290" y="1510" on="1"/>
        <pt x="261" y="1016" on="1"/>
      </contour>
    </TTGlyph>
    <TTGlyph name="quotedblbase" xMin="126" yMin="-256" xMax="694" yMax="216">
      <contour>
        <pt x="126" y="-256" on="1"/>
        <pt x="216" y="216" on="1"/>
        <pt x="377" y="216" on="1"/>
        <pt x="244" y="-256" on="1"/>
      </contour>
      <contour>
        <pt x="441" y="-256" on="1"/>
        <pt x="532" y="216" on="1"/>
        <pt x="694" y="216" on="1"/>
        <pt x="559" y="-256" on="1"/>
      </contour>
    </TTGlyph>
    <TTGlyph name="quotedblleft" xMin="129" yMin="1102" xMax="690" yMax="1574">
      <contour>
        <pt x="438" y="1102" on="1"/>
        <pt x="573" y="1574" on="1"/>
        <pt x="690" y="1574" on="1"/>
        <pt x="600" y="1102" on="1"/>
      </contour>
      <contour>
        <pt x="129" y="1102" on="1"/>
        <pt x="263" y="1574" on="1"/>
        <pt x="383" y="1574" on="1"/>
        <pt x="289" y="1102" on="1"/>
      </contour>
    </TTGlyph>
    <TTGlyph name="quotedblright" xMin="133" yMin="1102" xMax="674" yMax="1574">
      <contour>
        <pt x="133" y="1102" on="1"/>
        <pt x="226" y="1574" on="1"/>
        <pt x="385" y="1574" on="1"/>
        <pt x="250" y="1102" on="1"/>
      </contour>
      <contour>
        <pt x="420" y="1102" on="1"/>
        <pt x="511" y="1574" on="1"/>
        <pt x="674" y="1574" on="1"/>
        <pt x="537" y="1102" on="1"/>
      </contour>
    </TTGlyph>
    <TTGlyph name="quoteleft" xMin="129" yMin="1102" xMax="382" yMax="1574">
      <contour>
        <pt x="129" y="1102" on="1"/>
        <pt x="265" y="1574" on="1"/>
        <pt x="382" y="1574" on="1"/>
        <pt x="291" y="1102" on="1"/>
      </contour>
    </TTGlyph>
    <TTGlyph name="quoteright" xMin="133" yMin="1102" xMax="383" yMax="1574">
      <contour>
        <pt x="249" y="1102" on="1"/>
        <pt x="133" y="1102" on="1"/>
        <pt x="226" y="1574" on="1"/>
        <pt x="383" y="1574" on="1"/>
      </contour>
    </TTGlyph>
    <TTGlyph name="quotesinglbase" xMin="126" yMin="-256" xMax="379" yMax="216">
      <contour>
        <pt x="126" y="-256" on="1"/>
        <pt x="218" y="216" on="1"/>
        <pt x="379" y="216" on="1"/>
        <pt x="245" y="-256" on="1"/>
      </contour>
    </TTGlyph>
    <TTGlyph name="quotesingle" xMin="127" yMin="975" xMax="283" yMax="1486">
      <contour>
        <pt x="283" y="1486" on="1"/>
        <pt x="263" y="975" on="1"/>
        <pt x="148" y="975" on="1"/>
        <pt x="127" y="1486" on="1"/>
      </contour>
    </TTGlyph>
    <TTGlyph name="r" xMin="148" yMin="0" xMax="717" yMax="1107">
      <contour>
        <pt x="635" y="1107" on="1"/>
        <pt x="680" y="1107" on="0"/>
        <pt x="717" y="1101" on="1"/>
        <pt x="711" y="947" on="1"/>
        <pt x="665" y="955" on="0"/>
        <pt x="631" y="955" on="1"/>
        <pt x="491" y="955" on="0"/>
        <pt x="316" y="760" on="0"/>
        <pt x="316" y="616" on="1"/>
        <pt x="316" y="0" on="1"/>
        <pt x="149" y="0" on="1"/>
        <pt x="148" y="1010" on="0"/>
        <pt x="148" y="1097" on="1"/>
        <pt x="287" y="1097" on="1"/>
        <pt x="303" y="900" on="1"/>
        <pt x="360" y="993" on="0"/>
        <pt x="536" y="1107" on="0"/>
      </contour>
    </TTGlyph>
    <TTGlyph name="racute" xMin="148" yMin="0" xMax="815" yMax="1630">
      <component glyphName="acute" x="248" y="-8" flags="0x1004"/>
      <component glyphName="r" x="0" y="0" flags="0x1204"/>
    </TTGlyph>
    <TTGlyph name="radical" xMin="68" yMin="-166" xMax="1148" yMax="1718">
      <contour>
        <pt x="1035" y="1718" on="1"/>
        <pt x="1148" y="1718" on="1"/>
        <pt x="708" y="-166" on="1"/>
        <pt x="569" y="-166" on="1"/>
        <pt x="236" y="743" on="1"/>
        <pt x="84" y="712" on="1"/>
        <pt x="68" y="833" on="1"/>
        <pt x="328" y="889" on="1"/>
        <pt x="569" y="230" on="1"/>
        <pt x="628" y="44" on="1"/>
        <pt x="763" y="602" on="0"/>
      </contour>
    </TTGlyph>
    <TTGlyph name="rcaron" xMin="139" yMin="0" xMax="726" yMax="1630">
      <component glyphName="caron" x="31" y="-9" flags="0x1004"/>
      <component glyphName="r" x="0" y="0" flags="0x1204"/>
    </TTGlyph>
    <TTGlyph name="rcommaaccent" xMin="148" yMin="-620" xMax="717" yMax="1107">
      <component glyphName="uni0326" x="158" y="52" flags="0x1004"/>
      <component glyphName="r" x="0" y="0" flags="0x1204"/>
    </TTGlyph>
    <TTGlyph name="registered" xMin="117" yMin="-26" xMax="1701" yMax="1586">
      <contour>
        <pt x="1701" y="781" on="1"/>
        <pt x="1701" y="624" on="0"/>
        <pt x="1614" y="358" on="0"/>
        <pt x="1464" y="169" on="0"/>
        <pt x="1261" y="37" on="0"/>
        <pt x="1028" y="-26" on="0"/>
        <pt x="902" y="-26" on="1"/>
        <pt x="783" y="-26" on="0"/>
        <pt x="557" y="37" on="0"/>
        <pt x="356" y="170" on="0"/>
        <pt x="205" y="357" on="0"/>
        <pt x="117" y="624" on="0"/>
        <pt x="117" y="781" on="1"/>
        <pt x="117" y="937" on="0"/>
        <pt x="204" y="1203" on="0"/>
        <pt x="353" y="1391" on="0"/>
        <pt x="553" y="1523" on="0"/>
        <pt x="778" y="1586" on="0"/>
        <pt x="897" y="1586" on="1"/>
        <pt x="1023" y="1586" on="0"/>
        <pt x="1257" y="1522" on="0"/>
        <pt x="1462" y="1390" on="0"/>
        <pt x="1613" y="1202" on="0"/>
        <pt x="1701" y="937" on="0"/>
      </contour>
      <contour>
        <pt x="902" y="67" on="1"/>
        <pt x="1067" y="67" on="0"/>
        <pt x="1331" y="179" on="0"/>
        <pt x="1499" y="374" on="0"/>
        <pt x="1588" y="630" on="0"/>
        <pt x="1588" y="926" on="0"/>
        <pt x="1498" y="1183" on="0"/>
        <pt x="1328" y="1380" on="0"/>
        <pt x="1062" y="1493" on="0"/>
        <pt x="897" y="1493" on="1"/>
        <pt x="740" y="1493" on="0"/>
        <pt x="485" y="1380" on="0"/>
        <pt x="319" y="1185" on="0"/>
        <pt x="230" y="929" on="0"/>
        <pt x="230" y="783" on="1"/>
        <pt x="230" y="634" on="0"/>
        <pt x="320" y="375" on="0"/>
        <pt x="486" y="180" on="0"/>
        <pt x="744" y="67" on="0"/>
      </contour>
      <contour>
        <pt x="857" y="843" on="1"/>
        <pt x="1005" y="843" on="0"/>
        <pt x="1141" y="908" on="0"/>
        <pt x="1141" y="999" on="1"/>
        <pt x="1141" y="1093" on="0"/>
        <pt x="1014" y="1149" on="0"/>
        <pt x="847" y="1149" on="1"/>
        <pt x="731" y="1149" on="1"/>
        <pt x="731" y="843" on="1"/>
      </contour>
      <contour>
        <pt x="914" y="716" on="1"/>
        <pt x="731" y="716" on="1"/>
        <pt x="731" y="301" on="1"/>
        <pt x="599" y="301" on="1"/>
        <pt x="599" y="1277" on="1"/>
        <pt x="857" y="1277" on="1"/>
        <pt x="1300" y="1277" on="0"/>
        <pt x="1300" y="1007" on="1"/>
        <pt x="1300" y="899" on="0"/>
        <pt x="1178" y="752" on="0"/>
        <pt x="1040" y="735" on="1"/>
        <pt x="1073" y="709" on="0"/>
        <pt x="1137" y="622" on="0"/>
        <pt x="1185" y="537" on="0"/>
        <pt x="1279" y="368" on="0"/>
        <pt x="1320" y="301" on="1"/>
        <pt x="1171" y="301" on="1"/>
        <pt x="1046" y="525" on="1"/>
        <pt x="1014" y="584" on="0"/>
        <pt x="982" y="638" on="0"/>
        <pt x="936" y="699" on="0"/>
      </contour>
    </TTGlyph>
    <TTGlyph name="ring" xMin="-33" yMin="165" xMax="466" yMax="669">
      <contour>
        <pt x="66" y="483" on="0"/>
        <pt x="66" y="353" on="0"/>
        <pt x="155" y="262" on="0"/>
        <pt x="279" y="262" on="0"/>
        <pt x="368" y="354" on="0"/>
        <pt x="368" y="418" on="1"/>
        <pt x="368" y="483" on="0"/>
        <pt x="279" y="573" on="0"/>
        <pt x="155" y="573" on="0"/>
      </contour>
      <contour>
        <pt x="-33" y="418" on="1"/>
        <pt x="-33" y="521" on="0"/>
        <pt x="114" y="669" on="0"/>
        <pt x="216" y="669" on="1"/>
        <pt x="319" y="669" on="0"/>
        <pt x="466" y="521" on="0"/>
        <pt x="466" y="418" on="1"/>
        <pt x="466" y="316" on="0"/>
        <pt x="320" y="165" on="0"/>
        <pt x="216" y="165" on="1"/>
        <pt x="114" y="165" on="0"/>
        <pt x="-33" y="314" on="0"/>
      </contour>
    </TTGlyph>
    <TTGlyph name="s" xMin="103" yMin="-23" xMax="868" yMax="1120">
      <contour>
        <pt x="470" y="-23" on="1"/>
        <pt x="358" y="-23" on="0"/>
        <pt x="169" y="25" on="0"/>
        <pt x="110" y="63" on="1"/>
        <pt x="131" y="204" on="1"/>
        <pt x="298" y="115" on="0"/>
        <pt x="459" y="115" on="1"/>
        <pt x="703" y="115" on="0"/>
        <pt x="710" y="287" on="1"/>
        <pt x="710" y="360" on="0"/>
        <pt x="606" y="444" on="0"/>
        <pt x="454" y="496" on="1"/>
        <pt x="371" y="525" on="1"/>
        <pt x="227" y="573" on="0"/>
        <pt x="104" y="715" on="0"/>
        <pt x="103" y="821" on="1"/>
        <pt x="103" y="950" on="0"/>
        <pt x="310" y="1120" on="0"/>
        <pt x="490" y="1120" on="1"/>
        <pt x="676" y="1120" on="0"/>
        <pt x="829" y="1048" on="1"/>
        <pt x="780" y="920" on="1"/>
        <pt x="625" y="984" on="0"/>
        <pt x="490" y="984" on="1"/>
        <pt x="385" y="984" on="0"/>
        <pt x="266" y="901" on="0"/>
        <pt x="266" y="826" on="1"/>
        <pt x="266" y="762" on="0"/>
        <pt x="352" y="694" on="0"/>
        <pt x="481" y="650" on="1"/>
        <pt x="514" y="638" on="0"/>
        <pt x="564" y="622" on="1"/>
        <pt x="730" y="568" on="0"/>
        <pt x="868" y="421" on="0"/>
        <pt x="868" y="296" on="1"/>
        <pt x="866" y="144" on="0"/>
        <pt x="652" y="-23" on="0"/>
      </contour>
    </TTGlyph>
    <TTGlyph name="sacute" xMin="103" yMin="-23" xMax="868" yMax="1630">
      <component glyphName="acute" x="300" y="-8" flags="0x1004"/>
      <component glyphName="s" x="0" y="0" flags="0x1204"/>
    </TTGlyph>
    <TTGlyph name="scaron" xMin="103" yMin="-23" xMax="868" yMax="1630">
      <component glyphName="caron" x="84" y="-9" flags="0x1004"/>
      <component glyphName="s" x="0" y="0" flags="0x1204"/>
    </TTGlyph>
    <TTGlyph name="scedilla" xMin="103" yMin="-435" xMax="868" yMax="1120">
      <component glyphName="cedilla" x="216" y="-25" flags="0x1004"/>
      <component glyphName="s" x="0" y="0" flags="0x1204"/>
    </TTGlyph>
    <TTGlyph name="scircumflex" xMin="103" yMin="-23" xMax="868" yMax="1630">
      <component glyphName="circumflex" x="84" y="-9" flags="0x1004"/>
      <component glyphName="s" x="0" y="0" flags="0x1204"/>
    </TTGlyph>
    <TTGlyph name="scommaaccent" xMin="103" yMin="-643" xMax="868" yMax="1120">
      <component glyphName="uni0326" x="212" y="29" flags="0x1004"/>
      <component glyphName="s" x="0" y="0" flags="0x1204"/>
    </TTGlyph>
    <TTGlyph name="section" xMin="141" yMin="-29" xMax="879" yMax="1582">
      <contour>
        <pt x="141" y="797" on="1"/>
        <pt x="141" y="884" on="0"/>
        <pt x="231" y="1019" on="0"/>
        <pt x="307" y="1059" on="1"/>
        <pt x="233" y="1106" on="0"/>
        <pt x="160" y="1222" on="0"/>
        <pt x="160" y="1307" on="1"/>
        <pt x="160" y="1429" on="0"/>
        <pt x="336" y="1571" on="0"/>
        <pt x="497" y="1582" on="1"/>
        <pt x="595" y="1591" on="0"/>
        <pt x="748" y="1565" on="0"/>
        <pt x="836" y="1530" on="1"/>
        <pt x="831" y="1505" on="0"/>
        <pt x="814" y="1410" on="0"/>
        <pt x="810" y="1385" on="1"/>
        <pt x="675" y="1446" on="0"/>
        <pt x="546" y="1446" on="1"/>
        <pt x="318" y="1446" on="0"/>
        <pt x="318" y="1311" on="1"/>
        <pt x="318" y="1249" on="0"/>
        <pt x="425" y="1163" on="0"/>
        <pt x="570" y="1105" on="1"/>
        <pt x="730" y="1040" on="0"/>
        <pt x="879" y="895" on="0"/>
        <pt x="879" y="789" on="1"/>
        <pt x="879" y="703" on="0"/>
        <pt x="792" y="560" on="0"/>
        <pt x="719" y="514" on="1"/>
        <pt x="868" y="429" on="0"/>
        <pt x="868" y="278" on="1"/>
        <pt x="868" y="133" on="0"/>
        <pt x="638" y="-29" on="0"/>
        <pt x="446" y="-29" on="1"/>
        <pt x="260" y="-29" on="0"/>
        <pt x="145" y="30" on="1"/>
        <pt x="145" y="185" on="1"/>
        <pt x="292" y="109" on="0"/>
        <pt x="448" y="109" on="1"/>
        <pt x="571" y="109" on="0"/>
        <pt x="709" y="194" on="0"/>
        <pt x="709" y="266" on="1"/>
        <pt x="709" y="290" on="0"/>
        <pt x="699" y="327" on="0"/>
        <pt x="667" y="361" on="0"/>
        <pt x="638" y="384" on="0"/>
        <pt x="569" y="418" on="0"/>
        <pt x="518" y="440" on="0"/>
        <pt x="464" y="462" on="1"/>
        <pt x="292" y="528" on="0"/>
        <pt x="141" y="677" on="0"/>
      </contour>
      <contour>
        <pt x="292" y="813" on="1"/>
        <pt x="292" y="743" on="0"/>
        <pt x="398" y="653" on="0"/>
        <pt x="527" y="602" on="1"/>
        <pt x="584" y="578" on="1"/>
        <pt x="727" y="665" on="0"/>
        <pt x="727" y="768" on="1"/>
        <pt x="727" y="802" on="0"/>
        <pt x="696" y="861" on="0"/>
        <pt x="653" y="901" on="0"/>
        <pt x="567" y="945" on="0"/>
        <pt x="499" y="973" on="0"/>
        <pt x="437" y="995" on="1"/>
        <pt x="373" y="967" on="0"/>
        <pt x="292" y="873" on="0"/>
      </contour>
    </TTGlyph>
    <TTGlyph name="semicolon" xMin="138" yMin="-310" xMax="380" yMax="1124">
      <contour>
        <pt x="174" y="893" on="1"/>
        <pt x="174" y="1124" on="1"/>
        <pt x="380" y="1124" on="1"/>
        <pt x="380" y="893" on="1"/>
      </contour>
      <contour>
        <pt x="376" y="197" on="1"/>
        <pt x="251" y="-310" on="1"/>
        <pt x="138" y="-310" on="1"/>
        <pt x="194" y="197" on="1"/>
      </contour>
    </TTGlyph>
    <TTGlyph name="seven" xMin="100" yMin="0" xMax="978" yMax="1496">
      <contour>
        <pt x="261" y="0" on="1"/>
        <pt x="775" y="1341" on="1"/>
        <pt x="100" y="1341" on="1"/>
        <pt x="111" y="1496" on="1"/>
        <pt x="978" y="1496" on="1"/>
        <pt x="978" y="1360" on="1"/>
        <pt x="443" y="0" on="1"/>
      </contour>
    </TTGlyph>
    <TTGlyph name="six" xMin="103" yMin="-23" xMax="1107" yMax="1489">
      <contour>
        <pt x="637" y="921" on="1"/>
        <pt x="763" y="921" on="0"/>
        <pt x="977" y="802" on="0"/>
        <pt x="1107" y="583" on="0"/>
        <pt x="1107" y="449" on="1"/>
        <pt x="1107" y="245" on="0"/>
        <pt x="832" y="-23" on="0"/>
        <pt x="607" y="-23" on="1"/>
        <pt x="490" y="-23" on="0"/>
        <pt x="297" y="56" on="0"/>
        <pt x="172" y="191" on="0"/>
        <pt x="103" y="370" on="0"/>
        <pt x="103" y="472" on="1"/>
        <pt x="103" y="635" on="0"/>
        <pt x="222" y="892" on="0"/>
        <pt x="378" y="1089" on="1"/>
        <pt x="416" y="1137" on="0"/>
        <pt x="580" y="1337" on="0"/>
        <pt x="644" y="1413" on="1"/>
        <pt x="707" y="1489" on="1"/>
        <pt x="938" y="1489" on="1"/>
        <pt x="412" y="861" on="1"/>
        <pt x="525" y="921" on="0"/>
      </contour>
      <contour>
        <pt x="292" y="453" on="1"/>
        <pt x="292" y="364" on="0"/>
        <pt x="359" y="220" on="0"/>
        <pt x="502" y="129" on="0"/>
        <pt x="601" y="129" on="1"/>
        <pt x="749" y="129" on="0"/>
        <pt x="918" y="311" on="0"/>
        <pt x="918" y="446" on="1"/>
        <pt x="918" y="588" on="0"/>
        <pt x="749" y="771" on="0"/>
        <pt x="601" y="771" on="1"/>
        <pt x="444" y="771" on="0"/>
        <pt x="292" y="593" on="0"/>
      </contour>
    </TTGlyph>
    <TTGlyph name="slash" xMin="50" yMin="-218" xMax="872" yMax="1466">
      <contour>
        <pt x="194" y="-218" on="1"/>
        <pt x="50" y="-218" on="1"/>
        <pt x="726" y="1466" on="1"/>
        <pt x="872" y="1466" on="1"/>
      </contour>
    </TTGlyph>
    <TTGlyph name="sterling" xMin="83" yMin="0" xMax="1068" yMax="1503">
      <contour>
        <pt x="696" y="1503" on="1"/>
        <pt x="899" y="1503" on="0"/>
        <pt x="1053" y="1373" on="1"/>
        <pt x="975" y="1253" on="1"/>
        <pt x="838" y="1357" on="0"/>
        <pt x="697" y="1357" on="1"/>
        <pt x="558" y="1357" on="0"/>
        <pt x="441" y="1170" on="0"/>
        <pt x="441" y="993" on="1"/>
        <pt x="441" y="815" on="1"/>
        <pt x="851" y="815" on="1"/>
        <pt x="851" y="681" on="1"/>
        <pt x="441" y="681" on="1"/>
        <pt x="441" y="519" on="1"/>
        <pt x="441" y="382" on="0"/>
        <pt x="392" y="209" on="0"/>
        <pt x="319" y="153" on="1"/>
        <pt x="401" y="158" on="0"/>
        <pt x="413" y="158" on="1"/>
        <pt x="1068" y="158" on="1"/>
        <pt x="1068" y="0" on="1"/>
        <pt x="96" y="0" on="1"/>
        <pt x="85" y="139" on="1"/>
        <pt x="184" y="176" on="0"/>
        <pt x="269" y="326" on="0"/>
        <pt x="269" y="449" on="1"/>
        <pt x="269" y="681" on="1"/>
        <pt x="83" y="681" on="1"/>
        <pt x="83" y="815" on="1"/>
        <pt x="269" y="815" on="1"/>
        <pt x="269" y="911" on="1"/>
        <pt x="269" y="981" on="0"/>
        <pt x="279" y="1101" on="0"/>
        <pt x="304" y="1224" on="0"/>
        <pt x="345" y="1322" on="0"/>
        <pt x="411" y="1410" on="0"/>
        <pt x="499" y="1469" on="0"/>
        <pt x="621" y="1503" on="0"/>
      </contour>
    </TTGlyph>
    <TTGlyph name="summation" xMin="82" yMin="-356" xMax="1203" yMax="1532">
      <contour>
        <pt x="1203" y="-195" on="1"/>
        <pt x="1203" y="-356" on="1"/>
        <pt x="82" y="-356" on="1"/>
        <pt x="82" y="-257" on="1"/>
        <pt x="702" y="596" on="1"/>
        <pt x="104" y="1430" on="1"/>
        <pt x="104" y="1532" on="1"/>
        <pt x="1163" y="1532" on="1"/>
        <pt x="1163" y="1379" on="1"/>
        <pt x="317" y="1379" on="1"/>
        <pt x="913" y="604" on="1"/>
        <pt x="292" y="-195" on="1"/>
      </contour>
    </TTGlyph>
    <TTGlyph name="t" xMin="28" yMin="-20" xMax="675" yMax="1352">
      <contour>
        <pt x="493" y="-20" on="1"/>
        <pt x="331" y="-20" on="0"/>
        <pt x="195" y="138" on="0"/>
        <pt x="191" y="314" on="1"/>
        <pt x="191" y="973" on="1"/>
        <pt x="28" y="973" on="1"/>
        <pt x="35" y="1083" on="1"/>
        <pt x="190" y="1097" on="1"/>
        <pt x="247" y="1348" on="1"/>
        <pt x="357" y="1352" on="1"/>
        <pt x="357" y="1097" on="1"/>
        <pt x="662" y="1097" on="1"/>
        <pt x="662" y="973" on="1"/>
        <pt x="357" y="973" on="1"/>
        <pt x="357" y="344" on="1"/>
        <pt x="357" y="219" on="0"/>
        <pt x="433" y="117" on="0"/>
        <pt x="525" y="117" on="1"/>
        <pt x="558" y="117" on="0"/>
        <pt x="668" y="133" on="1"/>
        <pt x="675" y="1" on="1"/>
        <pt x="556" y="-20" on="0"/>
      </contour>
    </TTGlyph>
    <TTGlyph name="tcaron" xMin="28" yMin="-20" xMax="1107" yMax="1352">
      <component glyphName="comma" x="749" y="1118" flags="0x1004"/>
      <component glyphName="t" x="0" y="0" flags="0x1004"/>
    </TTGlyph>
</ttFont>
